<?xml version="1.0" standalone="no"?>
<!DOCTYPE svg PUBLIC "-//W3C//DTD SVG 1.1//EN" "http://www.w3.org/Graphics/SVG/1.1/DTD/svg11.dtd" >
<svg>
<metadata>
Created by FontForge 20120731 at Thu Aug 22 00:18:13 2019
 By www
Copyright (c) 2014 by Active Images. All rights reserved.
</metadata>
<defs>
<font id="CCComicrazy-Regular" horiz-adv-x="606" >
  <font-face 
    font-family="CCComicrazy-Regular"
    font-weight="400"
    font-stretch="normal"
    units-per-em="1000"
    panose-1="0 0 0 0 0 0 0 0 0 0"
    ascent="787"
    descent="-213"
    x-height="576.5"
    cap-height="772.5"
    bbox="-113.649 -321.421 1479 1010.23"
    underline-thickness="50"
    underline-position="-50"
    unicode-range="U+000D-FB05"
  />
<missing-glyph horiz-adv-x="420" 
 />
    <glyph glyph-name=".notdef" horiz-adv-x="420" 
 />
    <glyph glyph-name=".null" horiz-adv-x="0" 
 />
    <glyph glyph-name="nonmarkingreturn" unicode="&#xd;" horiz-adv-x="420" 
 />
    <glyph glyph-name="NULL" horiz-adv-x="0" 
 />
    <glyph glyph-name="NULL" horiz-adv-x="0" 
 />
    <glyph glyph-name="RS" horiz-adv-x="500" 
 />
    <glyph glyph-name="space" unicode=" " horiz-adv-x="420" 
 />
    <glyph glyph-name="exclam" unicode="!" horiz-adv-x="451" 
d="M423 846q-12 -50 -24.5 -87t-26 -71t-28 -71t-30.5 -86q-17 -54 -29.5 -92t-24 -71t-24 -65t-29.5 -72q-4 -11 -11 -12t-15.5 2.5t-17.5 8t-17 6.5q4 40 7 66.5t5.5 47t6 38.5t9.5 42q2 9 5.5 28.5t8 44.5t9 53.5t9.5 55.5q7 41 15 89.5t16 91.5q9 50 17 101q6 2 28 4
t48.5 -1.5t52.5 -14.5t40 -36zM234 -16q-2 -23 -14.5 -41t-30 -31t-37.5 -19.5t-38 -4.5q-17 1 -34 13.5t-30.5 29.5t-21.5 35t-7 31q2 24 14.5 45t31 36t40 23t41.5 5q16 -2 32 -14.5t28.5 -30.5t19.5 -38.5t6 -38.5z" />
    <glyph glyph-name="quotedbl" unicode="&#x22;" horiz-adv-x="485" 
d="M438 749q-23 -50 -37.5 -100.5t-27.5 -117.5q-4 -21 0 -42t5 -39.5t-7 -34.5t-35 -28q-23 -6 -34 -6t-17 6t-8.5 18.5t-6.5 30.5q-14 94 -3 180t41 169q4 12 16 17.5t26.5 6t30 -2t27.5 -5.5q18 -5 27 -21.5t3 -30.5zM230 810q-6 -43 -14.5 -85.5t-15 -88.5t-10.5 -98
t-1 -115q2 -28 -15.5 -44.5t-48.5 -14.5q-31 -1 -43.5 17.5t-14.5 50.5t2.5 74.5t7.5 88.5q3 39 3 67.5t0.5 52.5t1.5 45.5t5 47.5q2 12 14 21.5t28 16t33 8t29 -3.5q15 -6 28 -16t11 -24z" />
    <glyph glyph-name="numbersign" unicode="#" horiz-adv-x="660" 
d="M587 602q3 -29 0 -49.5t-13 -43.5q-1 -11 -8.5 -17t-20 -8.5t-28.5 -2.5t-34 1q-5 -26 -8.5 -60t-8.5 -57q35 2 61.5 -1t37.5 -20q1 -15 1 -25.5t-1.5 -19.5t-4.5 -17.5t-8 -19.5q-1 -12 -10 -18.5t-23.5 -8.5t-33 -1.5t-37.5 1.5q2 -18 5.5 -37t2.5 -36.5t-8.5 -33
t-26.5 -26.5q-19 -7 -29.5 -7.5t-17 5t-10.5 17.5t-8 30q-2 17 -2.5 42.5t-0.5 47.5q-45 -5 -91 0q2 -20 5 -43t7 -40q-12 -25 -28 -43t-43 -19q-20 0 -29 12.5t-12 34t-1 48.5t5 56q-25 2 -49.5 4t-49.5 1q-11 25 -11.5 46t10.5 46q26 11 51 15.5t50 4.5q-2 27 -2 64t1 68
q-39 3 -77 3q-11 25 -11.5 46.5t10.5 46.5q23 9 44 13.5t43 6.5q4 37 8 70.5t6 56.5q1 11 5.5 15t13 4t20.5 -2.5t28 -3.5q10 -9 19 -13.5t12 -18.5q-2 -24 -4 -53.5t-6 -59.5q17 -1 34.5 -1.5t36.5 -0.5q12 0 24.5 1t25.5 3q5 30 9 59t6 52q6 11 11.5 16t13.5 6.5t18 1.5
t25 1q16 -13 25 -18.5t17 -15.5q-5 -16 -9 -39t-9 -48q29 2 51 -1t31 -17zM380 485q-27 -2 -57 -2t-59 2q-2 -29 -3.5 -65t-2.5 -64q15 -1 32.5 -1.5t35.5 -0.5q9 0 19 0.5t19 0.5q3 29 7.5 65t8.5 65z" />
    <glyph glyph-name="dollar" unicode="$" horiz-adv-x="625" 
d="M566 429q25 -27 31 -61t-2 -69.5t-28.5 -69t-48.5 -57.5q-33 -29 -70.5 -45.5t-75.5 -24.5q-1 -5 -3 -13.5t-8 -29.5q-5 -17 -2 -33t4.5 -30.5t-3.5 -27t-25 -22.5q-35 -9 -57 -2.5t-30 32.5q-3 27 -4 43.5t-0.5 28.5t2.5 23t5 26q-25 3 -49 7.5t-47 12.5q-10 3 -21.5 7
t-22 9.5t-18.5 12t-11 14.5q-8 19 -1.5 34t13.5 32q9 11 17 23t22 9q29 -6 60 -21t64 -20q36 -11 75 -10t74 13t62 34t41 54q-15 22 -37 31.5t-48 11t-56 -3t-61 -9.5t-62.5 -8.5t-60.5 0.5q-26 3 -47.5 8.5t-39.5 15.5t-32.5 26t-26.5 40q-8 15 -9.5 28t0.5 25.5t7 25.5
t11 30q28 72 111 128q32 18 70 27q0 15 1 26t3.5 22.5t5.5 27t6 40.5q11 17 36.5 20.5t51.5 4.5q14 -12 23 -15.5t14 -12.5l-9 -27t-2.5 -10t-2.5 -12.5t-9 -33.5q-3 -12 -3 -23q63 -5 120.5 -23.5t101.5 -38.5q-3 -10 -7.5 -17l-9 -14t-10 -15.5t-11.5 -21.5
q-10 -21 -23.5 -28t-30.5 -7q-56 40 -117.5 51.5t-133.5 -8.5q-18 -5 -38 -13t-36.5 -19t-28.5 -25t-13 -31q27 -22 61 -26t73 -0.5t80.5 11t84 8.5t83.5 -8t78 -37z" />
    <glyph glyph-name="percent" unicode="%" horiz-adv-x="885" 
d="M443 667q-1 -47 -9.5 -84.5t-26 -66.5t-44.5 -50t-65 -36q-60 -23 -114 -15t-101 43q-24 36 -35 72.5t-4 83.5q8 62 43 104.5t86 61.5q23 4 49 9.5t52 7.5t51.5 -1.5t47.5 -15.5q18 -10 29 -24t18.5 -29t12.5 -31t10 -29zM779 702q-14 -29 -39 -57.5t-55 -58.5t-63 -61.5
t-63 -65.5q-26 -29 -57.5 -64t-64 -72t-63 -73t-54.5 -66q-22 -28 -37 -50.5t-29.5 -44.5t-30 -45.5t-37.5 -52.5q-20 2 -41 12t-35 24.5t-17.5 30.5t11.5 29q78 88 154 175q32 37 67 77t69.5 80t66.5 78t59 70q18 22 42.5 49.5t48 56t43 55t27.5 46.5q14 2 28.5 -5
t27.5 -18.5t24 -25t18 -23.5zM837 248q18 -42 13.5 -77t-27.5 -77q-20 -36 -42.5 -58.5t-48 -36.5t-54 -21.5t-59.5 -13.5q-54 -10 -97 12.5t-70 59.5q-15 46 -16 93t31 97q15 24 35 45.5t44 38t51.5 25t57.5 6.5q31 -2 59 -6.5t51.5 -14.5t41.5 -27.5t30 -44.5zM387 624
q0 22 -8 31t-35 21q-44 19 -95 14.5t-95 -39.5q-21 -17 -36.5 -32.5t-21.5 -31t-1 -31t25 -31.5q16 -13 37.5 -14.5t43.5 3t43.5 12t37.5 12.5q42 12 65 32.5t40 53.5zM778 200q-6 18 -14.5 24t-19.5 7t-25.5 -0.5t-33.5 1.5q-24 4 -49 -0.5t-49 -16.5t-45.5 -33t-37.5 -50
q-3 -14 -5 -24t-0.5 -18t9 -14t22.5 -12q15 -2 36 -1.5t46 5t53 15t57 28.5q16 10 26 19t16 19.5t9 22.5t5 28z" />
    <glyph glyph-name="ampersand" unicode="&#x26;" horiz-adv-x="855" 
d="M800 410q2 -30 -1 -61.5t-14 -65.5t-32.5 -69.5t-55.5 -73.5q-2 -3 -5 -5.5t-5 -5.5q15 -21 26 -43t19 -49q-9 -10 -23.5 -22t-30.5 -22t-33 -14.5t-32 0.5q-9 33 -32 69q-45 -25 -93 -38.5t-94.5 -17.5t-90 0.5t-80.5 16.5q-42 13 -70.5 28.5t-48 37t-33 51t-23.5 71.5
q-6 24 3 60.5t28.5 73.5t46 68t56.5 45q27 13 54 24t53 22q-7 9 -13 22q-12 22 -26.5 44t-24 44t-11 42.5t11.5 39.5q18 28 35 52.5t44 41.5t69 25.5t110 4.5q49 -3 80.5 -18t50.5 -37.5t27.5 -48.5t11 -51t0.5 -45.5t-4 -30.5q-7 -43 -48 -82.5t-119 -76.5q12 -17 23 -32
t22.5 -30t23 -32.5t25.5 -39.5q9 -14 17.5 -27t16.5 -24q22 25 35 60.5t-2 88.5q-4 15 5.5 27.5t26.5 21.5t38 13.5t40 3t32 -10t14 -25.5zM533 601q10 7 19.5 17t4 22t-32.5 24.5t-89 25.5q-21 4 -44 1.5t-38.5 -12.5t-19 -27t15.5 -42q11 -21 17 -30.5t9.5 -12.5t5 -3
t4 -1t7 -5.5t12.5 -18.5q32 14 64.5 29.5t64.5 32.5zM495 175q-1 2 -8.5 15t-16 28.5t-16 28.5t-8.5 15q-15 26 -23.5 40.5t-13.5 22.5t-7.5 11.5l-5 7t-6.5 9t-13 17.5q-32 -13 -68.5 -24t-68 -24.5t-52 -32t-19.5 -45.5q0 -13 -2.5 -20t-1 -13t10.5 -14t34 -23
q43 -27 79 -37.5t70 -9t67 14t69 33.5z" />
    <glyph glyph-name="quotesingle" unicode="'" horiz-adv-x="270" 
d="M208 797q1 -31 -6.5 -64t-16 -73.5t-14 -89.5t-0.5 -111q1 -12 -1 -25t-9 -22t-19.5 -13.5t-33.5 0.5q-31 6 -40 28t-8.5 52t6 64.5t3.5 65.5q-4 60 -3.5 111.5t20.5 93.5q9 19 26.5 25.5t49.5 -8.5q14 -6 30 -13.5t16 -20.5z" />
    <glyph glyph-name="parenleft" unicode="(" horiz-adv-x="467" 
d="M409 29q6 -11 0.5 -27.5t-15.5 -31.5t-23 -25.5t-22 -10.5q-55 8 -96 31.5t-85 62.5q-57 50 -92 110t-48 125.5t-2.5 134t45.5 136.5q46 89 103 157.5t135 132.5q10 11 22.5 13t25.5 -2.5t23.5 -14.5t16.5 -24q9 -22 -1 -38t-32 -33t-52.5 -38t-61.5 -53
q-30 -39 -57.5 -81.5t-45.5 -88t-22 -95t14 -102.5q11 -34 23.5 -61t30.5 -49.5t42.5 -41t59.5 -35.5q34 -16 53 -20.5t30 -6t17 -5.5t14 -19z" />
    <glyph glyph-name="parenright" unicode=")" horiz-adv-x="420" 
d="M316 218q-20 -45 -42 -88t-47 -80t-52 -66t-57 -46q-14 -8 -26 -5t-21 11.5t-16 20.5t-10 22q-5 16 11.5 33t42 38t53 46t45.5 56q27 48 47.5 94t28 94t-0.5 100.5t-37 113.5q-22 45 -47.5 72.5t-50 46t-47 34t-38.5 36.5q-10 13 -6 30.5t15.5 31.5t27 22t27.5 2
q58 -26 98 -72t84 -112q36 -54 53 -105.5t18 -104.5t-13 -108.5t-40 -116.5z" />
    <glyph glyph-name="asterisk" unicode="*" horiz-adv-x="561" 
d="M513 638q-14 -22 -48 -46t-71 -43q25 -13 52.5 -28.5t44.5 -40.5q-4 -27 -15.5 -47t-31.5 -37q-11 7 -26 14.5t-31 15t-31 14t-26 11.5q-1 -18 -1 -37.5t-0.5 -38.5t-2.5 -35.5t-8 -27.5q-17 -23 -30.5 -28t-42.5 15q-19 19 -20.5 31.5t4 28t12 38t3.5 61.5
q-23 -15 -42.5 -30.5t-39 -24.5t-40 -8.5t-45.5 15.5q-13 19 -7.5 37.5t16.5 37.5q13 3 24 9.5t21 14.5t20.5 16t23.5 15q-18 8 -37 17t-34 19.5t-22 22t0 24.5q3 23 12 42.5t27 45.5q11 6 25.5 2t31.5 -15t35 -26l36 -30q-2 37 -5 73t-1 62q9 6 20 7t22 0q17 -2 32 -3
t19 -18q-2 -11 -4 -26t-3.5 -32t-2 -34.5t0.5 -32.5q16 10 33.5 20t34.5 20t33 18.5t28 14.5q8 2 16 -4.5t18 -10.5q8 -11 15 -19t10.5 -14.5t3.5 -12t-6 -12.5z" />
    <glyph glyph-name="plus" unicode="+" horiz-adv-x="561" 
d="M496 469q2 -32 0 -62t-11 -54q-1 -20 -20 -26t-45.5 -6.5t-56.5 1.5t-52 -1v-1q1 -19 3.5 -44.5t4.5 -51t2 -47t-4 -32.5q-18 -9 -37.5 -12.5t-35 -1.5t-24 8t-5.5 16q0 23 1 50q1 23 1.5 53t2.5 64q-36 3 -77.5 6.5t-76.5 2.5q-13 28 -13.5 63t11.5 65q39 20 80 21
t80 -3q1 18 1.5 33.5t0.5 29.5q0 15 -2.5 28.5t-4 27t0 26t8.5 26.5q23 15 51 17.5t54 -5.5q7 -14 7.5 -36t-2 -46.5t-7 -50.5t-7.5 -49q26 3 53.5 7.5t51.5 5.5t42 -3.5t25 -18.5z" />
    <glyph glyph-name="comma" unicode="," horiz-adv-x="327" 
d="M251 245q-10 -22 -16.5 -39.5t-13.5 -35.5t-16.5 -40t-24.5 -53q-10 -20 -18.5 -43t-18.5 -43.5t-23 -34.5t-32 -17q-24 -3 -35.5 4.5t-15 20t-1.5 27.5t6 26q14 42 24 77t19 68.5t20 67.5t28 75q10 25 39 33.5t61 -7.5q10 -5 15.5 -16.5t7 -25t0 -25.5t-4.5 -19z" />
    <glyph glyph-name="hyphen" unicode="-" horiz-adv-x="615" 
d="M565 450q9 -19 7 -42.5t-11.5 -44t-24 -33.5t-29.5 -10q-58 9 -115 7t-109 -8t-98 -12t-81 -5q-34 2 -45 33.5t0 79.5q5 20 16 32.5t25 13.5q56 5 101 6.5t88 3t87.5 4.5t99.5 11q26 4 50.5 -1.5t38.5 -34.5z" />
    <glyph glyph-name="period" unicode="." horiz-adv-x="387" 
d="M268 109q0 -34 -18 -60.5t-55 -26.5q-40 0 -67 20t-27 60q0 16 4 31.5t12 28t19.5 20t26.5 7.5q20 0 39 -5t33.5 -14.5t23.5 -24.5t9 -36z" />
    <glyph glyph-name="slash" unicode="/" horiz-adv-x="506" 
d="M532 706q-9 -34 -26 -59.5t-39 -51.5t-48 -56.5t-52 -72.5q-22 -35 -40.5 -64t-36 -56.5t-35.5 -57t-37 -65.5q-18 -34 -30.5 -62t-24 -55t-24 -55t-30.5 -63q-23 -2 -47.5 5t-42.5 20t-24.5 29.5t6.5 33.5q53 84 107 170q23 37 48 78t51 83.5t51 85.5t48 83
q16 27 32.5 51.5t31.5 47.5t26.5 45t16.5 44q6 22 28.5 22t46 -12t38.5 -31.5t6 -36.5z" />
    <glyph glyph-name="zero" unicode="0" horiz-adv-x="888" 
d="M852 500q-17 -69 -35.5 -141t-50 -136.5t-80 -116.5t-124.5 -81q-120 -46 -228.5 -29t-202.5 86q-47 72 -69 145t-9 166q9 61 31 114t55.5 95.5t77.5 73.5t95 50q46 9 98 19t104.5 14t103 -2.5t94.5 -30.5q36 -20 58 -47.5t36.5 -58.5t24.5 -62t21 -58zM739 418
q0 25 -3 47.5t-12.5 42t-26 36t-43.5 30.5q-43 21 -96 29.5t-108 2t-108.5 -28t-97.5 -60.5q-41 -36 -67.5 -77t-33.5 -83t7.5 -82.5t54.5 -76.5q32 -29 76.5 -39.5t91 -9.5t90.5 10t76 19q42 13 72.5 39t53 58.5t40 69.5t34.5 73z" />
    <glyph glyph-name="one" unicode="1" horiz-adv-x="423" 
d="M345 715q0 -32 -1 -55.5t-3 -48t-4 -54t-4 -71.5q-2 -35 -4 -64t-3.5 -56.5t-2.5 -56.5t0 -65q1 -33 4 -60t6 -53t6 -53.5t5 -61.5q-18 -5 -41.5 -9t-43.5 -4t-32.5 7t-9.5 24q1 40 2 92q1 45 1.5 108t1.5 142v215l-1 -1q-14 -14 -22.5 -23t-18.5 -17.5t-24.5 -18.5
t-41.5 -26q-26 18 -46.5 37t-25.5 51q17 27 30 40.5t25 22t24.5 15t29.5 19.5q18 14 34.5 32t32.5 32t32 22t32 3q6 0 15 -8.5t18 -20t17 -22t13 -13.5z" />
    <glyph glyph-name="two" unicode="2" horiz-adv-x="814" 
d="M740 560q-11 -42 -39 -81t-64 -74t-75.5 -66t-73.5 -56q4 -2 -7 -11.5t-29.5 -23t-41 -28t-41 -28t-30 -23t-7.5 -11.5q25 1 59 5t71.5 9.5t76 11t73 10t62.5 6.5t44 1q9 -6 15.5 -28.5t8 -47t-4 -44t-20.5 -19.5q-31 0 -54.5 1t-49.5 0.5t-60.5 -2.5t-87.5 -8
q-76 -8 -128.5 -21t-88 -22t-57 -11t-33.5 12q-21 24 -34 49.5t-14.5 49t8.5 43t36 32.5q29 15 61 35t62.5 41.5t57.5 41.5t46 34q46 34 79 58t59.5 47t50 49.5t50.5 65.5q7 18 1.5 30t-16 21t-23 15.5t-20.5 12.5q-45 -4 -92 -5t-94.5 -6t-94 -18t-90.5 -41
q-15 -20 -30 -31q-13 -10 -28 -12t-29 17q-5 17 -13 35.5t-14 38t-6.5 38.5t10.5 37l55 33q68 21 132.5 31t127.5 12.5t126.5 -2.5t129.5 -14q24 -3 43.5 -22t32.5 -46t16.5 -59t-4.5 -62z" />
    <glyph glyph-name="three" unicode="3" horiz-adv-x="768" 
d="M702 322q13 -38 10.5 -67.5t-18 -55t-41 -48t-56.5 -45.5q-69 -52 -158 -78t-207 -32q-23 -1 -47.5 0t-45 7.5t-33.5 19t-11 34.5q1 15 4 29.5t10 25.5t19.5 16.5t32.5 1.5q69 -14 139 -8.5t154 34.5q97 33 124.5 66.5t-25.5 79.5q-24 21 -53 28t-64.5 4.5t-79.5 -12
t-99 -20.5q-39 -8 -60 2.5t-29 38.5q-4 13 -5.5 26.5t3 24.5t17 19.5t36.5 12.5l54 9t47.5 9t47.5 12.5t54 19.5q17 6 39.5 25t40.5 41t25.5 43t-5.5 33q-14 12 -49 22.5t-83.5 12t-106.5 -9t-117 -40.5q-16 -8 -34.5 -17.5t-36 -13.5t-31 2t-19.5 29q-4 8 -9 23.5t-7.5 32
t-1.5 30.5t8 20q29 4 57 10.5t57 14t62 15.5t73 14q50 7 93 13.5t83.5 4t81 -18t85.5 -51.5q12 -10 20.5 -27t12 -36.5t2 -40.5t-8.5 -38q-9 -23 -24 -42.5t-32 -35.5t-35 -29t-34 -23q27 -11 54 -21t50.5 -23t42 -30.5t27.5 -42.5z" />
    <glyph glyph-name="four" unicode="4" horiz-adv-x="770" 
d="M714 407q1 -27 -9 -42.5t-37 -38.5q-2 -88 -1.5 -167t17.5 -152q-9 -5 -29 -13t-37 -7q-23 -6 -40.5 2t-22.5 13q-5 30 -3.5 75.5t4 92t3.5 86.5t-5 59q-57 -12 -97 -21.5t-79 -19t-85 -20t-115 -25.5q-21 4 -42 12t-39 19t-30.5 24.5t-15.5 27.5q-6 11 -4.5 30.5t7.5 45
t14.5 56.5t17.5 65q10 40 16.5 72.5t10.5 61t6.5 56t5.5 59.5q11 13 36.5 17t50 -0.5t40 -18t8.5 -34.5q-9 -38 -22 -79t-24.5 -84t-20 -86t-8.5 -85q50 6 103 16t103.5 21.5t94.5 23t75 20.5q2 48 1 83.5t-3 66.5t-3.5 61t-0.5 67q8 15 23 21.5t31.5 6.5t32.5 -6.5
t26 -16.5q9 -43 9 -75t-3 -61t-7 -60t-3 -72q10 0 19.5 -7t16 -18t10.5 -25t4 -27z" />
    <glyph glyph-name="five" unicode="5" horiz-adv-x="781" 
d="M714 396q33 -33 41 -74.5t-3 -84.5t-37.5 -84.5t-63.5 -72.5q-54 -47 -116.5 -67t-126.5 -22t-126 10t-116 29q-25 5 -48.5 21.5t-30.5 35.5q-5 12 -4.5 20.5t3.5 16t7.5 14t9.5 15.5q11 16 19 31t24 12q20 -4 39 -14.5t38.5 -21.5t39.5 -20t41 -10q51 -15 104.5 -13.5
t101.5 18t85 46.5t55 72q-25 46 -71 71.5t-105 33t-126 -2t-134 -34.5q-31 -11 -55 -4t-40.5 21.5t-24.5 30.5t-7 23q6 43 7.5 92t3 94.5t4.5 83.5t12 60q6 15 27.5 24t51.5 13.5t66 6t71 1.5h66.5t52.5 2q34 4 66.5 9.5t63 9.5t60.5 5t59 -4q19 -21 20.5 -42t-17.5 -55
q-7 -12 -12 -22t-10 -17t-12 -11t-17 -4q-38 4 -67.5 4t-55.5 -1.5t-51 -4t-54 -2.5q-55 0 -112 -7.5t-102 -24.5q-2 -15 -5.5 -32t-5.5 -34.5t-1 -36.5t9 -39q57 19 122 27.5t132 2.5t132.5 -28.5t122.5 -65.5z" />
    <glyph glyph-name="six" unicode="6" horiz-adv-x="861" 
d="M742 140q-40 -37 -91 -69.5t-106.5 -53.5t-111.5 -27t-105 9q-42 13 -76.5 25t-63.5 28t-53.5 39.5t-46.5 60.5q-51 85 -53.5 172.5t42.5 184.5q21 46 47 81.5t58 64t70.5 50.5t85.5 41q53 22 99.5 31t96.5 14q38 3 54.5 2t23 -8.5t8.5 -22.5t12 -39q8 -21 2 -34.5
t-19.5 -22t-31 -12t-32.5 -3.5q-44 -1 -89 -9t-86.5 -24t-79 -39t-66.5 -54q-18 -20 -33.5 -38t-27 -38t-18 -43t-7.5 -52q-1 -19 -1 -29t1.5 -16.5t5 -13t11.5 -18.5q38 49 89.5 100t129.5 90q44 22 94 34.5t97 15.5t87 -3.5t66 -21.5q46 -28 68.5 -73.5t24 -96t-17.5 -99
t-57 -83.5zM719 335q-15 21 -31 31t-37.5 13t-52 1t-73.5 -5q-30 -2 -65.5 -13.5t-70.5 -36.5t-68.5 -64.5t-60.5 -97.5q56 -30 106.5 -38.5t97 0t90 31.5t85.5 56q14 11 29 32t26 41q13 24 25 50z" />
    <glyph glyph-name="seven" unicode="7" horiz-adv-x="634" 
d="M579 748q28 -25 36 -42.5t3.5 -36t-18.5 -41t-32 -58.5q-13 -26 -28.5 -59.5t-32 -69t-33 -69t-30.5 -60.5q-26 -48 -49.5 -101t-42.5 -98.5t-31 -77.5t-15 -37q-13 -9 -19 -8t-11.5 5.5t-14 10.5t-26.5 8q-14 1 -31 6.5t-27 9.5q21 70 61 137.5t82 138t77 146t47 160.5
q-68 7 -133.5 6t-124 -4t-109 -4.5t-87.5 5.5q-9 6 -9 23.5t4 38.5t9.5 41.5t7.5 33.5q19 4 50 5t68.5 1t79 -0.5t80.5 -0.5q49 0 85 2t68 2t66 -2.5t80 -10.5z" />
    <glyph glyph-name="eight" unicode="8" horiz-adv-x="782" 
d="M753 329q15 -39 12 -70.5t-18.5 -57.5t-42 -50t-59.5 -48q-72 -54 -163.5 -81t-215.5 -33q-24 -1 -48.5 -0.5t-48.5 5.5t-46 16.5t-41 32.5q-39 43 -45.5 90.5t12.5 104.5q6 18 17 31.5t24 24t27 20t28 20.5q-12 19 -26.5 29.5t-28.5 23.5t-27 34t-22 62q-5 9 -2.5 26.5
t10 39.5t19.5 45.5t27 43.5q22 30 46 50.5t51 33.5t59 21t71 14q49 8 91.5 14t82.5 3t79.5 -18.5t84.5 -51.5q12 -9 20 -26t12 -36.5t3 -40t-8 -37.5q-9 -22 -23.5 -41t-31.5 -35t-35 -29t-34 -22q27 -11 56 -19.5t55.5 -19.5t47.5 -27t31 -42zM576 617q-14 12 -48.5 24
t-82 14t-104.5 -9t-116 -45q-11 -8 -24 -18.5t-23.5 -23t-17.5 -26t-7 -28.5q0 -13 6 -26t16.5 -23.5t24.5 -18.5t29 -11q31 6 63 10.5t63.5 9.5t62 12t59.5 18q16 6 38.5 24.5t40 40.5t25.5 43t-5 33zM599 308q-25 22 -69.5 25.5t-99.5 -4.5t-114.5 -23.5t-114.5 -32.5
q-49 -48 -56.5 -80.5t34.5 -55.5q40 -13 76.5 -15.5t73.5 2t76 14t84 20.5q103 26 134 63.5t-24 86.5z" />
    <glyph glyph-name="nine" unicode="9" horiz-adv-x="861" 
d="M792 529q10 -50 12 -94t-6.5 -84.5t-29 -80t-54.5 -79.5q-32 -39 -67 -66t-73.5 -45.5t-81.5 -29.5t-92 -17q-29 -4 -51 -5.5t-42.5 -1.5t-41 2.5t-44.5 6.5q-37 6 -56 12.5t-27.5 16.5t-10.5 25.5t-6 40.5q-3 21 6 33t24.5 16.5t34 3.5t33.5 -5q43 -11 88 -14.5t89.5 1
t86 17.5t77.5 36q22 14 42 27.5t36.5 29.5t29.5 36.5t21 48.5q5 18 7 29t2 19t-0.5 14.5t-0.5 16.5q-23 -19 -51.5 -40.5t-61.5 -41t-71.5 -35.5t-80.5 -24q-48 -10 -99 -12t-97 3.5t-82.5 19.5t-57.5 36q-25 26 -37 60t-12.5 71.5t9.5 75t27.5 71t42.5 60.5t55 43
q48 25 110.5 41t127 19t124.5 -8t104 -39q37 -23 61 -43t39.5 -43.5t25.5 -52.5t19 -71zM640 543q-23 51 -66.5 78.5t-97.5 35.5t-111.5 -1t-108.5 -31q-17 -8 -33.5 -24t-30.5 -33q-16 -19 -31 -42q2 -33 12 -52t30 -31t51 -19t74 -16q30 -6 76.5 2.5t93 27.5t86 46
t56.5 59z" />
    <glyph glyph-name="colon" unicode=":" horiz-adv-x="387" 
d="M268 499q0 -34 -18 -60.5t-55 -26.5q-40 0 -67 20.5t-27 60.5q0 15 4.5 30.5t12.5 28t19.5 20.5t25.5 8q20 0 39 -5t33.5 -15t23.5 -25t9 -36zM268 109q0 -34 -18 -60.5t-55 -26.5q-40 0 -67 20t-27 60q0 16 4 31.5t12 28t19.5 20t26.5 7.5q20 0 39 -5t33.5 -14.5
t23.5 -24.5t9 -36z" />
    <glyph glyph-name="semicolon" unicode=";" horiz-adv-x="387" 
d="M268 499q0 -34 -18 -60.5t-55 -26.5q-40 0 -67 20.5t-27 60.5q0 15 4.5 30.5t12.5 28t19.5 20.5t25.5 8q20 0 39 -5t33.5 -15t23.5 -25t9 -36zM249 205q-10 -22 -20.5 -42.5t-22.5 -42t-25.5 -47t-28.5 -56.5q-10 -20 -16.5 -42t-14 -41.5t-18.5 -33.5t-30 -18
q-24 -2 -36 5.5t-15.5 20t-1.5 27t7 25.5q13 42 26 79.5t26 73.5t26 73t26 79q18 20 36.5 22.5t50.5 -13.5q21 -11 29 -33t2 -36z" />
    <glyph glyph-name="less" unicode="&#x3c;" horiz-adv-x="635" 
d="M607 706q-46 -56 -93.5 -96t-97.5 -77.5t-103 -80.5t-109 -106q42 -39 98.5 -78.5t113 -76t104 -68t70.5 -54.5q2 -9 -8.5 -22.5t-26 -28t-31.5 -29.5t-23 -28q-14 6 -45 26t-67.5 46.5t-74 53.5t-65.5 46q-34 23 -58 34t-48 24.5t-52 35.5t-70 66q-2 25 11.5 43t35 35
t48 36t49.5 47q37 44 76 78.5t83 72.5q40 34 71 65t53 55.5t35.5 40.5t17.5 21q14 4 21 1t12.5 -9t12 -14t19.5 -15q4 -3 10 -9.5l12 -13t11 -12.5t8 -9z" />
    <glyph glyph-name="equal" unicode="=" horiz-adv-x="561" 
d="M501 608q2 -32 0 -62t-11 -55q-1 -20 -19 -28t-43.5 -10.5t-54 -3t-50.5 -5.5q-30 -7 -61 -8.5t-63 -1t-64.5 1t-63.5 -3.5q-13 27 -13.5 62t11.5 66q28 17 54 23.5t53 8t55 1t61 2.5q30 3 63.5 12t63 15t51.5 4.5t31 -18.5zM498 237q-28 -17 -54 -23.5t-53 -8t-55 -1
t-61 -2.5q-30 -3 -63.5 -12t-63 -15t-51.5 -4.5t-31 18.5q-2 32 0 62t11 55q1 20 19 28t43.5 10t53.5 2.5t51 5.5q30 7 61 8.5t63 1t64 -0.5t64 3q13 -26 13.5 -61t-11.5 -66z" />
    <glyph glyph-name="greater" unicode="&#x3e;" horiz-adv-x="635" 
d="M623 467q2 -26 -11.5 -43.5t-35 -34.5t-48 -36t-49.5 -47q-37 -44 -76 -78.5t-83 -72.5q-40 -35 -71 -65.5t-53 -55t-35.5 -40.5t-17.5 -21q-14 -4 -21 -1t-12.5 9t-12 14t-19.5 15q-5 3 -10.5 9.5t-11.5 13t-11 12.5t-8 9q46 56 93.5 96t97.5 77.5t103 80.5t109 106
q-28 26 -63 52.5t-73 52t-76 50t-71.5 46.5t-60.5 41.5t-42 34.5q-2 9 8.5 22.5t26 28t31 29.5t23.5 28q14 -6 45 -26t67.5 -46.5t74 -53.5t65.5 -46q34 -23 58 -34t48 -24.5t52 -35.5t70 -66z" />
    <glyph glyph-name="question" unicode="?" horiz-adv-x="775" 
d="M848 641q-8 -40 -28 -71.5t-50 -56t-67.5 -42t-80.5 -30.5q-79 -23 -165.5 -31.5t-161.5 -10.5q-15 -17 -16 -39t-3 -40.5t-12.5 -30t-44.5 -7.5q-22 -4 -36 0t-23.5 12.5t-16 21t-12.5 25.5q8 27 7 55t1 53t13.5 45.5t46.5 33.5q61 -18 137 -22t148 7q40 6 77.5 16.5
t68 26t52.5 36t33 46.5q-28 37 -65.5 60.5t-81.5 35.5t-92.5 11.5t-99.5 -11.5q-28 -6 -51.5 -17t-45 -23t-41.5 -24.5t-41 -21.5q-12 5 -24 10.5t-25 13t-25 19.5t-24 31q16 21 39.5 39t51.5 33t60 26.5t65 20.5q52 8 108.5 13t112 2.5t106.5 -14t92.5 -36.5t71.5 -65
t42 -100zM324 79q11 -52 -12 -85.5t-72 -41.5q-45 -8 -80 6.5t-43 52.5q-5 25 -3.5 49t11.5 43t30.5 32t53.5 18q42 5 71.5 -15t43.5 -59z" />
    <glyph glyph-name="at" unicode="@" horiz-adv-x="895" 
d="M794 585q37 -86 34.5 -164.5t-49.5 -165.5q-19 -35 -33 -56t-30.5 -31.5t-39 -10.5t-56.5 7q-26 5 -48 22.5t-25 52.5q-1 10 -2 16t-3 10.5t-5 8.5t-6 11q-28 -26 -64 -53t-74 -41t-75 -8t-65 45q-11 15 -21 39t-15 51.5t-3 56t14 53.5q19 41 39.5 67t42.5 41t45.5 20.5
t50.5 5.5q33 0 63.5 -6.5t62.5 -22.5q8 10 7 21.5t-1 25.5q2 16 18 20.5t34 1.5t32 -12.5t13 -19.5q-4 -29 -9.5 -40.5t-10.5 -23.5t-8 -33t-2 -68q0 -22 2 -43t8 -38.5t16.5 -31t27.5 -21.5q21 14 40 36.5t31 53.5t15.5 69.5t-4.5 85.5q-14 46 -31.5 74t-41 44t-56 24
t-76.5 15q-54 8 -109.5 6t-108 -23.5t-99.5 -66.5t-84 -122q-8 -36 -12 -75t2 -78.5t24 -78t56 -72.5q34 -17 67 -29t69.5 -16t78.5 2t96 25q11 4 24 -7t21 -28.5t7.5 -36.5t-17.5 -31q-14 -10 -35.5 -16t-44.5 -10.5t-44 -7t-33 -4.5q-57 -10 -109 4t-93.5 41t-70.5 62.5
t-41 68.5q-18 49 -29 99.5t-10 102t15.5 103.5t48.5 104q33 50 73.5 91.5t89 70t105.5 42t122 8.5t110.5 -18t79 -37.5t59 -63.5t50.5 -97zM512 412q-3 16 -13.5 26.5t-25 16t-31 6.5t-31.5 -2q-26 -5 -44.5 -11.5t-34 -17t-30 -26t-30.5 -37.5q-11 -28 2 -48t42 -22
q30 -2 59.5 6t55 23t46.5 37t35 49z" />
    <glyph glyph-name="A" unicode="A" horiz-adv-x="740" 
d="M746 65q8 -12 -7 -29t-38 -30.5t-46.5 -19t-30.5 5.5q-22 33 -36.5 62.5t-27.5 56.5t-28 52.5t-38 50.5q-31 -11 -77 -20.5t-94.5 -18t-93 -16t-73.5 -13.5q-11 -17 -17 -33.5t-11 -34t-10 -35.5t-14 -39q-6 -15 -26.5 -18t-41.5 2t-36 15.5t-11 23.5q14 47 26 81.5
t24.5 66.5t27 67t32.5 82q26 68 47.5 129t43 117.5t45 110t53.5 107.5q3 6 17.5 10t30.5 4.5t30 -1.5t17 -8q44 -92 84 -184.5t82 -184.5t90 -182t107 -177zM439 362q-18 27 -33.5 59.5t-29.5 65.5t-27.5 64t-27.5 55q-12 -24 -32.5 -59.5t-40 -76.5t-34.5 -85t-17 -86
q40 -3 73 5.5t77 19.5q14 3 30 9.5t30 12.5q16 7 32 16z" />
    <glyph glyph-name="B" unicode="B" horiz-adv-x="741" 
d="M702 322q13 -38 10.5 -67.5t-18 -55t-41 -48t-56.5 -45.5q-69 -52 -158 -83t-207 -37q-45 -2 -78.5 -1t-69.5 17q-18 8 -26 28t-6 37q5 55 4 103.5t-1 96.5q0 36 -1 65.5t-2 61.5t-2.5 71t-2.5 95q-11 8 -17 29.5t-7.5 45.5t1.5 44t11 25q82 55 239 79q51 8 97.5 9.5
t90 -6t84.5 -25.5t81 -50q12 -10 20.5 -27t12 -36.5t2 -40.5t-8.5 -38q-9 -23 -24 -42.5t-32 -35.5t-35 -29t-34 -23q27 -11 54 -21t50.5 -23t42 -30.5t27.5 -42.5zM522 618q-14 12 -52 24t-89.5 15t-113 -8.5t-121.5 -45.5q-3 -11 -4.5 -36.5t-1.5 -54t2 -53t7 -33.5
q33 6 68.5 10.5t71 9.5t69.5 11.5t64 18.5q17 6 39.5 25t40.5 41t25.5 43t-5.5 33zM553 302q-24 21 -72.5 24.5t-107 -4t-121 -22.5t-114.5 -31q6 -14 5 -33.5t-3.5 -39t-3.5 -37.5t5 -29q70 -9 144.5 -1t162.5 30q99 24 128.5 60.5t-23.5 82.5z" />
    <glyph glyph-name="C" unicode="C" horiz-adv-x="800" 
d="M750 691q8 -8 6 -21.5t-11 -28.5t-22.5 -30t-27.5 -24.5t-27 -12.5t-21 5q-12 13 -30 27.5t-41.5 25t-53.5 15.5t-67 1q-55 -7 -107.5 -25t-97.5 -48.5t-78 -76t-49 -108.5q-11 -44 -2.5 -94.5t51.5 -101.5q37 -43 97 -60t128 -10.5t135.5 35.5t120.5 77q12 10 22.5 11
t20 -4t18.5 -14t17 -18q7 -8 13 -20t7 -25.5t-3.5 -27t-17.5 -23.5q-40 -33 -98 -61t-121.5 -46.5t-127 -24t-114.5 6.5q-46 11 -80 30.5t-58.5 47t-42.5 63.5t-33 80q-18 52 -22.5 106.5t4.5 106t31 98t58 84.5q43 46 90 83t97.5 62t104.5 36.5t113 5.5q42 -4 72 -11.5
t54 -20t45.5 -29.5t47.5 -41z" />
    <glyph glyph-name="D" unicode="D" horiz-adv-x="810" 
d="M775 444q-10 -37 -22.5 -65.5t-29.5 -53.5t-38.5 -49.5t-49.5 -54.5q-56 -60 -115 -101.5t-124.5 -69.5t-139.5 -44t-160 -26q-26 -3 -40.5 11.5t-12.5 46.5q3 56 4.5 119t2 126t0.5 123v110q-21 22 -27.5 46t-3.5 45t11.5 37.5t17.5 22.5q47 33 97.5 52.5t106.5 31.5
t118.5 19t133.5 14q33 3 63.5 4t59 -3.5t54 -17t48.5 -34.5q27 -27 41 -62.5t18.5 -73.5t0.5 -77.5t-14 -75.5zM634 630q-27 12 -81.5 12.5t-120.5 -8.5t-136.5 -26t-131.5 -40q-20 -53 -24.5 -101.5t-2.5 -97.5t5.5 -99t-0.5 -105q38 -9 77.5 -6.5t80 14.5t82 32.5
t84.5 46.5q28 17 61 42t63.5 55t54 64.5t33 70.5t0.5 73t-44 73z" />
    <glyph glyph-name="E" unicode="E" horiz-adv-x="650" 
d="M587 807q9 -3 12.5 -20t2 -36.5t-7.5 -36t-15 -19.5q-43 -14 -96 -25t-108 -22t-108.5 -24.5t-96.5 -31.5q-3 -8 -5.5 -29t-3.5 -45t1 -47.5t7 -36.5q44 8 96.5 24t107 32t107.5 29t99 16q11 1 15 -17t2.5 -41t-8 -44.5t-16.5 -28.5q-19 -14 -46.5 -19t-54.5 -13
q-39 -10 -80.5 -20t-81.5 -19.5t-76.5 -19t-64.5 -19.5q-8 -12 -12.5 -36.5t-5.5 -51.5t0 -52t4 -38q48 6 98.5 21.5t103.5 32.5t108.5 32t113.5 18q13 1 17 -19t1 -44.5t-12.5 -46t-23.5 -22.5q-42 -4 -95 -19.5t-108.5 -34t-110.5 -35.5t-103 -24q-14 -2 -27 -4t-24 -1.5
t-20 5.5t-15 17q-5 10 -5.5 22.5t0.5 26t3 27t3 25.5q4 62 3 122t-2 108q-1 86 -2 145.5t-1 108.5q-9 8 -16 27t-5.5 40t13.5 40t40 27q56 16 126 37.5t139.5 39t131.5 25t102 -5.5z" />
    <glyph glyph-name="F" unicode="F" horiz-adv-x="564" 
d="M560 818q17 -3 21.5 -19.5t0.5 -36.5t-14 -38t-21 -24q-35 -20 -83.5 -29.5t-101 -18.5t-104.5 -21.5t-95 -36.5q-9 -26 -13.5 -47.5t-5 -42t2.5 -42t8 -47.5q49 11 98 27t96.5 31t92 25.5t86.5 9.5q12 0 16.5 -17.5t4 -39.5t-5 -42.5t-11.5 -27.5q-28 -26 -75 -36.5
t-100.5 -20.5t-108.5 -27t-100 -56q-2 -23 -1.5 -42t2 -40.5t4.5 -48t8 -62.5q3 -22 -11 -36.5t-32 -21t-34.5 -5.5t-19.5 10q-14 41 -12 98t2 135q0 97 -4 185.5t7 159.5q-16 13 -21.5 36t-2 45.5t15.5 41t30 23.5q58 16 127 35.5t135.5 35.5t124.5 25t94 3z" />
    <glyph glyph-name="G" unicode="G" horiz-adv-x="995" 
d="M935 346q-27 -111 -113 -206q-51 -57 -116 -92t-132.5 -51t-132 -14.5t-113.5 16.5q-42 13 -76.5 25t-63.5 28t-53.5 39.5t-46.5 60.5q-51 85 -53.5 172.5t42.5 184.5q21 46 47 81.5t58 64t70.5 50.5t85.5 41q134 55 256.5 53t219.5 -50q22 -11 41 -23.5t26 -33.5
q4 -13 -8 -32.5t-30 -36.5t-39 -27.5t-35 -4.5q-15 6 -28 13t-25 14t-24.5 13t-26.5 9q-54 11 -114 9.5t-118.5 -15.5t-111 -41t-91.5 -68q-37 -38 -63 -78t-33 -98q-6 -51 20 -100.5t91 -84.5q56 -30 119 -42t125 -6t120 31t104 70q13 13 24 33t19 39q9 22 16 46
q-51 1 -100 -12.5t-96.5 -29.5t-93 -28t-87.5 -9q-10 1 -17 17.5t-8.5 37.5t3.5 40.5t19 25.5q35 14 81 27t94 23.5t94.5 18.5t82.5 14q23 3 50.5 9t53.5 10t48 3t34 -12q14 -12 18 -26.5t2.5 -31t-6.5 -33.5t-9 -33z" />
    <glyph glyph-name="H" unicode="H" horiz-adv-x="770" 
d="M724 14q4 -16 -14.5 -26.5t-42.5 -12.5t-45 4.5t-24 25.5q-5 31 -5 72t0.5 81.5t-0.5 76t-7 54.5q-66 -4 -112.5 -10.5t-89 -15t-90 -18.5t-115.5 -21q-6 -40 -7 -71t1 -58.5t5 -54t5 -56.5q1 -17 -14 -26.5t-34.5 -10.5t-37.5 7t-23 27q-7 24 -8.5 51t-1 57.5t3 64
t3.5 68.5q1 41 4.5 103.5t4.5 132.5t-4.5 141.5t-22.5 130.5q-4 12 12.5 24.5t39.5 18.5t45 3.5t30 -18.5q15 -33 15 -76t-4.5 -90t-10 -96.5t-0.5 -97.5q50 3 108.5 10t115 17t104.5 23t76 27q0 48 -3.5 83.5t-7.5 66t-6 60t3 65.5q2 17 20.5 25t40 8.5t39 -6t17.5 -18.5
q1 -40 1 -73v-65v-65.5t2 -73.5q3 -69 4 -129.5t3 -117.5t7.5 -111.5t19.5 -109.5z" />
    <glyph glyph-name="I" unicode="I" horiz-adv-x="302" 
d="M209 34q0 -18 -19.5 -27t-43 -8.5t-41.5 9.5t-15 26q1 95 2 191q0 41 0.5 86t1.5 90t1.5 89.5t0.5 83.5q0 27 -1 56t-2 54.5t0 46t5 29.5q4 10 19.5 19t33 12.5t32.5 0.5t20 -17q9 -31 10.5 -64t-0.5 -69t-6 -75t-6 -81q-2 -35 -4 -64t-3.5 -56.5t-2.5 -56.5t0 -65
q1 -33 3.5 -57t5.5 -46.5t5.5 -47.5t3.5 -59z" />
    <glyph glyph-name="J" unicode="J" horiz-adv-x="715" 
d="M675 748q7 -60 8 -138t-1.5 -158t-6.5 -154t-5 -126q-2 -64 -28.5 -104t-70 -61.5t-100 -26.5t-119.5 0q-39 3 -81.5 13.5t-80 28.5t-67 43.5t-43.5 58.5q-9 20 -14.5 43t-8.5 51.5t-4 64.5t-1 82q0 32 15 55t49 20q65 -6 56 -46q-8 -38 -9 -74.5t-1 -75.5q0 -26 17 -45
t45 -32.5t62.5 -22.5t70.5 -14q72 -11 112 -4.5t60.5 31.5t27.5 68t14 105q4 36 3 84.5t-5 98t-10 95.5t-11 77q-14 79 40 88q17 3 32 4.5t26.5 -0.5t19 -8.5t9.5 -20.5z" />
    <glyph glyph-name="K" unicode="K" horiz-adv-x="748" 
d="M709 706q-40 -50 -77 -87.5t-73 -72t-73.5 -71.5t-77.5 -88q19 -21 35 -36t33.5 -28.5t38 -28.5t49.5 -37q24 -18 39.5 -29t27.5 -19t24 -17.5t30 -24.5q14 -12 10.5 -35.5t-17 -45t-32 -34t-34.5 -3.5q-45 26 -83.5 56t-76.5 60t-78.5 58.5t-90.5 50.5q-11 5 -28 -2.5
t-34 -18.5q-19 -12 -40 -30q-6 -29 -6 -49.5t2 -40t4 -42t2 -56.5q0 -19 -17 -33t-38 -20t-38 -2.5t-17 19.5q-1 55 -0.5 105t1.5 102t2.5 109t4.5 126q1 40 1.5 85t0.5 88.5t-1 83.5t-1 72q0 16 17 26t38 13t38.5 -1t18.5 -17q1 -17 0.5 -48.5t-2.5 -69.5t-4.5 -80
t-4.5 -80t-2.5 -68.5t0.5 -46.5q9 0 31.5 15t48 35.5t49 41t36.5 31.5q50 42 96 91t82.5 93t62 76.5t34.5 41.5t22 7t25.5 -11.5t23.5 -24.5t17.5 -31t7.5 -31.5t-7 -25.5z" />
    <glyph glyph-name="L" unicode="L" horiz-adv-x="635" 
d="M576 137q-14 -8 -37.5 -17.5t-53 -20t-62.5 -22t-64 -23.5q-39 -15 -78 -35.5t-74.5 -37t-64.5 -24.5t-47 2q-22 12 -30 34t-8.5 52.5t3 69t4.5 84.5q1 57 1 109t4 111q3 52 3 105t-1.5 97.5t-2.5 74.5t1 36q5 13 11.5 21.5t15 13.5t19.5 8t25 7q5 1 13.5 0t16.5 -5
t14 -10.5t7 -14.5q5 -72 -3 -144.5t-16 -148t-9 -154t18 -160.5q56 12 107 31.5t96 39t84 35.5t71 20q16 2 27 -17t15.5 -44t3 -47t-8.5 -26z" />
    <glyph glyph-name="M" unicode="M" horiz-adv-x="938" 
d="M892 37q0 -15 -9.5 -24t-24 -12.5t-31.5 -3t-31.5 4.5t-23.5 11.5t-8 17.5q4 37 8.5 81t6.5 90t-0.5 91.5t-11.5 84.5q-16 -19 -31 -37q-13 -16 -25.5 -33t-20.5 -28q-34 -51 -53 -82.5t-35 -55.5t-34 -47.5t-50 -59.5q-11 -12 -28 -17.5t-34 -4t-31 9.5t-19 22
q-21 56 -46 102.5t-52 90.5t-54.5 89t-54.5 98q-8 -17 -12.5 -49.5t-5.5 -73.5t0 -85.5t4.5 -85.5t7.5 -73.5t9 -49.5q4 -13 -4 -21.5t-22 -13.5t-32 -6t-34 1.5t-27.5 8.5t-13.5 16q-10 52 -11.5 107.5t1 113t7 115.5t6.5 115.5t-1 113.5t-15 109q-7 29 17.5 43t60.5 17
q20 2 34 1t23.5 -7t15.5 -18t12 -33q8 -30 17.5 -53t21 -46t26 -50.5t32.5 -66.5q19 -41 39.5 -75.5t41.5 -63.5t40.5 -54.5t37.5 -48.5q48 60 83.5 106.5t64 91.5t51.5 94.5t46 115.5q15 43 21 72.5t16 55.5q6 16 22.5 23t36.5 6t39.5 -9t32.5 -21q5 -5 4.5 -20t-3.5 -34.5
t-7 -40.5t-6 -38q-5 -40 -6.5 -73t-1 -64.5t2 -64.5t3.5 -73q2 -49 5 -87.5t5.5 -73t4.5 -68.5t3 -73z" />
    <glyph glyph-name="N" unicode="N" horiz-adv-x="847" 
d="M789 771q-1 -54 -7.5 -110t-11.5 -125q-5 -73 -4.5 -137t4 -123t8.5 -116t8 -116q1 -20 -12 -31.5t-32 -15t-39 0t-33 15.5q-47 44 -87 82.5t-77 74.5t-73 71t-76 73q-10 9 -31 27t-44.5 36.5t-45.5 33.5t-34 18q-6 -40 -9 -68.5t-4.5 -55.5t-1.5 -57t1 -73
q1 -27 1.5 -46.5t2 -38t3 -39t4.5 -50.5q2 -22 -17 -33t-42 -11t-43 10t-21 30q-2 50 -0.5 89.5t4.5 74.5t7 68t7.5 69t5 78t-0.5 96q-1 32 -5 62.5t-8 59.5t-6.5 55t-0.5 49q1 14 19 24t40.5 15t43 5.5t26.5 -4.5q25 -22 49 -62.5t53 -82.5q41 -57 77 -95.5t75 -70.5
t84.5 -63.5t105.5 -75.5q3 42 5 74.5t3.5 64.5t1.5 66.5v80.5q-1 48 -6 97t-3 97q1 19 22.5 28.5t46.5 9.5t46 -9t21 -26z" />
    <glyph glyph-name="O" unicode="O" horiz-adv-x="869" 
d="M819 588q18 -41 24.5 -79t2 -75.5t-18.5 -75.5t-36 -79q-39 -72 -83.5 -119t-95 -78t-106.5 -48t-118 -29q-53 -10 -105 -1.5t-97 30.5t-80.5 55.5t-56.5 73.5q-45 87 -39.5 184t70.5 197q30 47 70 89t87.5 73.5t102.5 49.5t116 18q65 0 121 -9t102 -30t81 -56.5
t59 -90.5zM742 503q-4 23 -25.5 42.5t-53.5 34.5t-71 26t-76 17q-48 8 -104.5 2.5t-110.5 -29t-100 -67t-73 -111.5q-12 -29 -15.5 -63t2.5 -65.5t23 -57.5t48 -41q53 -25 111 -34.5t116 -1.5t113.5 35.5t103.5 75.5q27 27 49.5 54.5t38.5 56.5t23 60t1 66z" />
    <glyph glyph-name="P" unicode="P" horiz-adv-x="700" 
d="M702 634q28 -60 23 -113t-36 -111q-16 -30 -34 -50t-39 -35.5t-45.5 -29.5t-52.5 -31q-45 -27 -98 -48t-104 -36.5t-94 -25t-68 -13.5q0 -22 1.5 -38.5t2.5 -32.5t1.5 -35t-0.5 -46t-45 -35q-12 -2 -26.5 -1t-26.5 5.5t-20 13t-6 20.5q6 40 8.5 69t3 55t0 53t-1.5 64
q-2 90 -3.5 173t4.5 173q-12 13 -18.5 31.5t-6.5 37t7.5 34t23.5 21.5q32 13 75.5 24t93.5 20t105.5 14t111.5 6q46 1 86.5 -5t74 -21.5t59.5 -41.5t44 -65zM580 481q10 12 22.5 30.5t16.5 38t-5.5 37t-43.5 29.5q-46 15 -103.5 19t-115 -0.5t-110 -15.5t-88.5 -26
q-8 -21 -11 -61t-3.5 -83.5t0.5 -83t2 -59.5q13 -6 32.5 -5.5t43 5t47.5 12.5t46 17q45 18 85.5 34t75 33.5t62 36.5t47.5 42z" />
    <glyph glyph-name="Q" unicode="Q" horiz-adv-x="888" 
d="M852 500q-5 -50 -16.5 -101t-30.5 -99.5t-44.5 -93.5t-58.5 -83q9 -12 29 -28t39.5 -35t33 -40t10.5 -42q-2 -12 -18.5 -25t-38 -21t-42.5 -9t-33 11q-21 31 -37 56q-8 11 -14.5 20.5t-11.5 17.5q-6 9 -11 18q-11 -6 -22 -11t-24 -10q-60 -23 -119.5 -32t-115 -3
t-105.5 28.5t-91 63.5q-61 61 -76 139t-2 172q9 61 30.5 115.5t55 97.5t77 74t96.5 46q45 13 96 22.5t102.5 11t101.5 -7t94 -32.5q36 -20 64.5 -43t48 -50t28.5 -58.5t5 -68.5zM739 418q0 25 -3 47.5t-12.5 42t-26 36t-43.5 30.5q-43 21 -96 29.5t-108 2t-108.5 -28
t-97.5 -60.5q-41 -36 -71.5 -77t-42 -83t-1 -82.5t50.5 -76.5q30 -27 75.5 -37.5t94.5 -10.5t96 7t80 16q-7 10 -17 21.5t-20 23.5t-18 25t-9 26q-2 15 4 26.5t16.5 18t23.5 8.5t27 -3t26 -15t22.5 -23t20 -27t19.5 -27q42 38 74 81.5t44 109.5z" />
    <glyph glyph-name="R" unicode="R" horiz-adv-x="780" 
d="M740 142q11 -11 7.5 -34.5t-16 -46t-30 -36t-33.5 -4.5q-58 33 -95.5 55t-72.5 39t-77 31.5t-110 32.5q-15 -6 -35 -11.5t-39 -11t-34.5 -9t-22.5 -4.5q-5 -37 -2.5 -66.5t6 -51.5t4 -35.5t-6.5 -18.5q-10 -6 -24 -10.5t-28 -5t-25.5 3.5t-17.5 14q-12 22 -15 52
t-1.5 65.5t4.5 74.5t2 80q-1 51 -5 96.5t-7 87.5t-3.5 83t4.5 83q-15 1 -27 19.5t-12 42.5t16 48.5t55 38.5q63 22 133 32t140.5 10t138 -10t126.5 -27q23 -7 42.5 -26t32.5 -45.5t17 -57t-4 -60.5q-11 -42 -39 -81t-64 -74t-75.5 -66t-73.5 -56q37 -19 76 -36t74 -33.5
t65.5 -33.5t51.5 -38zM598 542q12 15 12 31t-8.5 30t-23 23t-31.5 10q-45 2 -95.5 2.5t-101 -3.5t-99.5 -14t-91 -28q10 -31 9 -64.5t-3 -69t-1.5 -71.5t13.5 -71q41 2 86.5 18.5t90.5 34.5q39 16 72.5 33t63 38t56 45.5t51.5 55.5z" />
    <glyph glyph-name="S" unicode="S" horiz-adv-x="814" 
d="M768 339q7 -27 5 -63t-12.5 -72t-28.5 -67t-43 -47q-122 -83 -248.5 -98.5t-265.5 40.5q-41 17 -52.5 41t-0.5 46q5 10 10 21.5t11.5 20t14.5 12.5t18 0q27 -11 58 -22.5t64.5 -20t70 -11t73.5 4.5q33 6 72 13.5t74 21t62.5 35t38.5 57.5q5 16 -1.5 25.5t-20.5 14.5
t-32.5 6.5t-36.5 1.5t-33.5 -1.5t-24.5 -1.5q-69 -2 -124.5 -11.5t-106 -12t-100 8t-105.5 48.5q-22 14 -35 29.5t-21 41.5q-8 29 -5.5 54t10.5 54q25 84 72.5 137t118.5 81q148 58 276 41.5t220 -115.5q10 -11 3 -31t-21.5 -38t-33 -28.5t-31.5 -1.5q-21 14 -39.5 27
t-38 23.5t-41.5 18.5t-49 12q-35 5 -83.5 -0.5t-98.5 -21t-96 -41t-76 -61.5q-12 -21 -9 -36.5t16 -25.5t33 -16t42.5 -9t44 -3.5t37.5 0.5q58 3 105 9t89.5 9t84 0.5t89.5 -15.5q39 -11 64.5 -28.5t36.5 -55.5z" />
    <glyph glyph-name="T" unicode="T" horiz-adv-x="660" 
d="M657 671q-24 -16 -58 -25t-70.5 -15.5l-73 -13t-65.5 -16.5q-6 -62 -9.5 -138t-3.5 -153t3 -148.5t9 -123.5q1 -13 1 -21t-3.5 -14t-13 -11.5t-25.5 -12.5q-18 -8 -35.5 -8.5t-31 5t-21.5 15.5t-7 22q5 76 6 146t1 138.5t1 137t7 142.5q-33 9 -60 3.5t-51.5 -15
t-49.5 -18t-55 -6.5q-18 1 -25.5 21t-7.5 44t5.5 44.5t14.5 24.5q42 18 102.5 31.5t135.5 20.5q57 6 108.5 16.5t97.5 20.5t87.5 17t80.5 4q21 -2 28.5 -17t6.5 -34t-9.5 -37.5t-19.5 -25.5z" />
    <glyph glyph-name="U" unicode="U" horiz-adv-x="825" 
d="M766 343q-1 -45 2 -80.5t4.5 -62t-2 -45t-18.5 -29.5q-21 -16 -44 -29t-48 -26q-64 -32 -134 -58t-140.5 -34t-138 6t-126.5 61q-30 24 -42 56t-15 68t-2 73t-3 70q-2 17 -3 49.5t-0.5 72.5t1.5 84t4 84t7.5 72t10.5 50q7 22 26.5 28t39.5 1.5t35.5 -17t16.5 -26.5
q1 -23 -5 -53.5t-11 -68.5q-8 -60 -15.5 -127.5t-4.5 -129t20.5 -108.5t60.5 -65q30 -13 68 -18t78.5 -2.5t80 11.5t73.5 24.5t58.5 37.5t34.5 50q11 33 15 59.5t4 52t-1.5 53t-1.5 60.5q0 38 -6 80t-10.5 79.5t-4 65.5t12.5 37q15 11 33.5 14.5t35.5 1t30 -9.5t18 -16
q12 -25 15 -70.5t1.5 -100.5t-5.5 -114t-5 -111z" />
    <glyph glyph-name="V" unicode="V" horiz-adv-x="750" 
d="M744 679q2 -29 -10.5 -53t-23.5 -50q-16 -36 -30.5 -63t-28.5 -52.5t-29.5 -53t-34.5 -64.5q-25 -49 -44 -91.5t-34.5 -82.5t-28.5 -80.5t-26 -85.5q-3 -12 -16 -20.5t-29 -11.5t-31.5 1t-24.5 18q-17 26 -31 54t-29 59.5t-31.5 67t-38.5 77.5q-18 36 -34 63.5t-31 52.5
t-29.5 51t-29.5 58q-11 22 -25.5 45t-28.5 46t-25 45t-14 42q-4 23 10.5 44t33.5 30q18 8 40 6.5t34 -21.5q23 -39 46 -100.5t61 -136.5q19 -38 37 -71.5t36.5 -65.5t37 -63t39.5 -64q29 56 62 117.5t59 123.5q21 51 36 88t27 69.5t23.5 63.5t25.5 70q7 21 28 24t43 -6.5
t39.5 -30.5t19.5 -49z" />
    <glyph glyph-name="W" unicode="W" horiz-adv-x="1020" 
d="M1021 738q6 -23 -2 -57t-21 -75.5t-28.5 -87.5t-24.5 -92q-12 -56 -26 -103.5t-26.5 -89t-22.5 -78t-13 -70.5q-2 -24 -11 -45t-26 -26q-38 -11 -61.5 -7t-39.5 27q-17 23 -28.5 46t-22 47.5t-21 51t-24.5 56.5q-20 41 -34 73t-28 60.5t-29.5 56t-36.5 60.5
q-51 -80 -85.5 -165.5t-63.5 -172.5q-10 -28 -14 -56l-7.5 -52.5t-8.5 -42.5t-16 -26q-12 -8 -31.5 -12.5t-39 -2.5t-34 12.5t-17.5 32.5q-8 61 -18 110t-22 94.5t-25.5 92t-26.5 102.5q-11 45 -19.5 80t-16 66.5t-15.5 64.5t-17 75q-4 18 10 33t33.5 21.5t38 3.5t23.5 -19
q14 -50 27 -110t27 -120.5t30.5 -116t37.5 -96.5q26 57 45 101.5t38 89.5q16 38 28.5 68.5t22.5 60.5t19 62t19 73q5 19 24.5 26.5t41.5 5.5t41 -12.5t24 -26.5q18 -66 39 -145t63 -169q12 -26 22.5 -46.5t21 -38t23.5 -33.5t31 -32q29 51 44.5 101t32.5 102q23 72 37.5 145
t25.5 139q3 17 21.5 27.5t41 10.5t43 -12t27.5 -40z" />
    <glyph glyph-name="X" unicode="X" horiz-adv-x="764" 
d="M726 148q0 -9 -9.5 -24t-23.5 -29.5t-29 -25t-25 -10.5t-21.5 8t-22 19t-19.5 21.5t-14 15.5q-21 21 -40.5 43.5t-39.5 44t-42 40t-48 31.5q-23 -22 -50 -55.5t-54 -70.5t-50.5 -73t-38.5 -63q-3 -5 -9 -13t-13.5 -16t-15.5 -13.5t-15 -4.5q-8 0 -18.5 8.5t-21 19.5
t-19.5 22.5t-14 16.5q18 37 46 81.5t59 90t62 89.5t56 80l-244 265q10 30 27 54q14 20 37 36t56 14q16 -20 34.5 -42l37 -44t36.5 -43.5t34 -40.5q38 -45 75 -88q16 14 41 45t51 67t49 70.5t36 56.5q3 5 11 17t18 24.5t20.5 22t19.5 9.5q13 0 26 -7t24.5 -17t20 -21.5
t12.5 -19.5l-235 -331q12 -22 31.5 -44.5t41.5 -44t44 -41.5t40 -36q3 -3 17 -15.5t29 -27.5t27.5 -29.5t12.5 -21.5z" />
    <glyph glyph-name="Y" unicode="Y" horiz-adv-x="671" 
d="M697 749q-8 -20 -15.5 -35.5t-17.5 -33t-24 -39.5t-35 -53q-26 -38 -51 -80.5t-46.5 -82.5t-38.5 -74t-26 -54q-20 -41 -34 -76t-25.5 -69.5t-21 -70.5t-19.5 -79q-4 -19 -25 -24.5t-44.5 -1.5t-42 15.5t-17.5 27.5q2 35 12.5 71t24.5 71.5t30.5 70.5t31.5 67
q-32 49 -74 89.5t-83.5 80t-76.5 82.5t-52 96q-4 13 7.5 33t29.5 37.5t37 26.5t30 0q25 -21 40.5 -42.5t29.5 -45.5t32 -51t47 -58q16 -18 29 -32.5t26.5 -27.5t29.5 -26t39 -28q20 43 39.5 84t39.5 82.5t43 85t51 93.5q9 16 31.5 19.5t44.5 -2t36.5 -18t7.5 -28.5z" />
    <glyph glyph-name="Z" unicode="Z" horiz-adv-x="742" 
d="M686 662q-51 -62 -95 -112t-85 -97t-83.5 -96t-90.5 -110q-8 -11 -20 -23t-23 -25.5t-20 -27.5t-12 -27q34 -3 56 -3.5t42 1t43.5 4.5t60.5 7q47 5 100.5 13t104.5 22q10 3 16.5 -7t10.5 -26.5t4 -36.5t-3.5 -37.5t-11 -30.5t-18.5 -14q-65 -8 -110.5 -13.5t-88.5 -10.5
t-91.5 -10.5t-117.5 -14.5q-27 -3 -48 -5.5t-40 -3.5t-36.5 -0.5t-37.5 2.5q-12 1 -21 21t-13.5 45.5t-4.5 49.5t5 34q8 15 21 27t28 23.5t29.5 22t25.5 21.5q53 53 93.5 94.5t75 82.5t66.5 88.5t70 112.5q-48 5 -96.5 2t-108.5 -8q-23 -2 -42 -4t-36.5 -3t-35 0.5
t-37.5 6.5q-13 3 -23 21t-14 40t-0.5 42t18.5 28q17 9 35 11.5t38 2t44 -2.5t53 -2q62 0 111.5 5t95 12.5l91 15t101.5 13.5q9 1 17.5 -13t13.5 -34t4.5 -40.5t-10.5 -32.5z" />
    <glyph glyph-name="bracketleft" unicode="[" horiz-adv-x="405" 
d="M367 -17q-2 -8 -7.5 -14t-12.5 -11q-8 -6 -17 -11q-23 3 -48.5 4t-49.5 0t-45.5 -4.5t-34.5 -9.5q-30 -6 -59 6.5t-38 44.5q-4 13 -2 27.5t2 22.5q-1 53 1.5 115.5t-2.5 138.5q-1 16 0 57t2 96t1.5 117t-2.5 120q-1 13 -5.5 28t-4.5 32v23t1.5 21t6 18.5t14.5 15.5
q17 11 35 10t33 -8q38 -2 75 1t58 13q13 2 28 0t28.5 -8t24.5 -17t16 -26q5 -17 2 -34t-12.5 -31.5t-23 -24t-29.5 -10.5q-23 -2 -62 -0.5t-81 -2.5q-8 -70 -14 -140.5t-6 -131.5q0 -37 0.5 -77.5t3 -82t8.5 -82.5t16 -79q35 -1 77.5 0.5t81.5 16.5q17 1 28 -8t16.5 -25
t4.5 -39t-8 -51z" />
    <glyph glyph-name="backslash" unicode="\" horiz-adv-x="565" 
d="M557 52q-9 -10 -23.5 -22t-30.5 -22t-33 -14.5t-32 0.5q-5 22 -16.5 44t-26.5 45t-31.5 47.5t-32.5 51.5q-23 40 -48.5 83t-51.5 85.5t-51 83.5t-48 78q-54 86 -106 170q-13 17 -6.5 33.5t24.5 29t42.5 20t47.5 5.5q18 -35 30.5 -63t24 -55t24 -55t30.5 -62
q19 -36 37 -65.5t35.5 -57t36 -56.5t40.5 -64q26 -42 52 -72.5t48 -56.5t39 -51.5t26 -59.5z" />
    <glyph glyph-name="bracketright" unicode="]" horiz-adv-x="405" 
d="M361 42v-23t-1.5 -21t-6 -18.5t-14.5 -15.5q-17 -11 -35 -10t-33 8q-38 2 -75 -1t-58 -13q-13 -2 -28 0t-28.5 8t-24.5 17t-16 26q-5 16 -2 33.5t12.5 32t23 24t29.5 10.5q22 2 61.5 0t81.5 3q8 70 14 140.5t6 131.5q0 37 -0.5 77.5t-3 82t-8.5 82.5t-16 79
q-35 1 -77.5 -0.5t-81.5 -16.5q-17 -1 -28 8t-16.5 25t-4.5 39t8 51q2 7 7.5 13.5t12.5 11.5q8 6 17 11q22 -3 48 -4t50 0t45 4.5t35 9.5q30 6 59 -6.5t38 -44.5q4 -13 2 -27.5t-2 -22.5q1 -53 -1.5 -115.5t2.5 -138.5q1 -16 0 -57t-2 -96t-1.5 -117t2.5 -120q1 -13 5.5 -28
t4.5 -32z" />
    <glyph glyph-name="asciicircum" unicode="^" 
d="M582 797q6 -8 -1.5 -24t-20.5 -31t-27 -25t-20 -7q-18 10 -39 30t-44 44t-49.5 49t-55.5 46q-26 -24 -50.5 -51.5t-50 -56.5t-53 -59.5t-60.5 -61.5q-8 -8 -16 -9t-14.5 1t-11.5 5.5t-7 5.5q-6 7 -13 15t-12.5 16.5t-7.5 16.5t1 15q2 4 12.5 12.5t26.5 22t36.5 32.5
t42.5 43q25 27 49 49.5t49 49.5q18 19 32 37.5t26.5 30.5t25 16t28.5 -5q19 -11 50 -41t66 -65q15 -15 31.5 -30t32 -28.5t27.5 -24.5t17 -18z" />
    <glyph glyph-name="underscore" unicode="_" horiz-adv-x="693" 
d="M655 127q2 -29 0 -55.5t-13 -48.5q-2 -18 -29.5 -24t-65.5 -6t-78.5 2t-67.5 -1q-35 -4 -79.5 -2.5t-91.5 4t-92.5 5.5t-83.5 2q-15 25 -16 56.5t14 58.5q34 13 72 16.5t78.5 3t81.5 -3.5t80 -2q36 0 82.5 5.5t89 8.5t75.5 0t44 -19z" />
    <glyph glyph-name="grave" unicode="`" 
d="M457 712q15 -11 12 -30t-15 -34.5t-30 -23t-34 3.5q-28 20 -59 35.5t-54 27.5t-50.5 18.5t-49 14.5t-34 20.5t-5.5 37.5q11 41 32 60t63 7q39 -11 72 -28.5t61 -37t50.5 -38.5t40.5 -33z" />
    <glyph glyph-name="a" unicode="a" 
d="M583 55q13 -26 -3.5 -50t-53.5 -34q-18 -5 -29 -3t-17.5 10.5t-9 22t-4.5 32.5q-1 12 -2.5 18.5t-4 11.5t-5.5 9.5t-8 12.5q-37 -30 -85 -59.5t-98 -45t-98.5 -9t-85.5 49.5q-15 17 -28 43.5t-19.5 56.5t-4.5 61.5t18 58.5q26 45 53.5 75t57.5 47.5t62 24.5t68 7
q45 -1 82.5 -11t79.5 -26q9 10 8.5 23t-0.5 28q0 13 3 24t2.5 20.5t-7.5 17t-27 14.5q-41 6 -78 1t-71 -13t-66 -16.5t-63 -11.5l-22.5 -2.5t-25.5 -1t-21 4t-10 14.5q-7 35 -9.5 54.5t9.5 39.5q19 13 54.5 18t78 8.5t88.5 9.5t85 22q26 5 55.5 6t56 -5t47.5 -21.5t30 -43.5
q-13 -31 -18 -67t-6 -77.5t0.5 -88t2.5 -98.5q1 -50 11.5 -88.5t27.5 -73.5zM422 224q-5 18 -19 29.5t-32.5 17.5t-40.5 7t-42 -2q-34 -5 -59 -12.5t-45.5 -19t-39.5 -28.5t-40 -42q-14 -29 7.5 -44.5t60.5 -17.5q40 -2 76 5t67 22t58 37t49 48z" />
    <glyph glyph-name="b" unicode="b" horiz-adv-x="607" 
d="M571 255q-13 -56 -46 -100.5t-77.5 -78.5t-97 -56t-104.5 -33q-23 -5 -52 -9t-57 -1t-51 16.5t-33 45.5q-3 8 -4 34t-1 61.5t0.5 75t0.5 74.5q0 24 -1.5 53t-3.5 60t-3.5 61t-1.5 55q0 28 -4.5 57t-7.5 56.5t-2 51.5t13 43q6 9 17.5 15t25 8t27 -0.5t22.5 -10.5
q7 -6 8.5 -14.5t0 -18t-3.5 -19t-2 -16.5q0 -18 -1.5 -40.5t-3 -46.5t-3 -48.5t-0.5 -46.5q46 25 98 46.5t104.5 31.5t102 5.5t89.5 -30.5q30 -20 45 -54.5t19 -74.5t-0.5 -80.5t-11.5 -71.5zM479 395q-21 25 -56 30t-74 -1t-76 -19t-61 -23q-31 -13 -50.5 -30t-31.5 -29
q5 -31 5.5 -60.5t0.5 -56t1 -47t6 -33.5q30 -12 62.5 -10.5t65 11.5t62.5 25.5t56 32.5q25 16 51.5 40.5t43 52.5t18 58t-22.5 59z" />
    <glyph glyph-name="c" unicode="c" horiz-adv-x="636" 
d="M614 454q8 -10 -0.5 -27.5t-24.5 -33t-34.5 -24t-30.5 0.5q-17 12 -31 22.5t-26.5 19t-26 15.5t-30.5 13q-80 28 -139.5 10.5t-99.5 -61.5q-15 -17 -31 -36.5t-26.5 -40.5t-13.5 -42.5t6 -41.5q23 -49 60 -73.5t80.5 -33t88.5 -3t84 16.5q15 4 33.5 14.5t37.5 22t38 21.5
t37 13q12 2 23.5 -11t19 -31t9 -35.5t-5.5 -24.5q-28 -26 -52.5 -43t-50 -29t-54.5 -20.5t-65 -17.5q-68 -17 -122.5 -6.5t-113.5 48.5q-71 47 -108.5 108t-26.5 147q27 205 201 284q57 18 113.5 17t108 -18t96 -48t77.5 -72z" />
    <glyph glyph-name="d" unicode="d" horiz-adv-x="620" 
d="M604 745q-4 -45 -8.5 -82.5t-8.5 -73t-6.5 -70t-2.5 -73.5q0 -75 1 -151t-3 -160q3 -15 13 -29.5t17.5 -29t7.5 -29t-17 -30.5q-19 -17 -41 -25.5t-50 -0.5q-10 10 -12.5 23t-3 25.5t-3 24t-12.5 17.5q-34 -31 -80 -55t-94 -36t-93.5 -9.5t-78.5 25.5q-47 32 -70.5 82
t-25.5 131q-2 54 4 101t18 86t29 67.5t38 45.5q33 26 70.5 34t76.5 4t77 -17.5t71 -30.5q20 -10 35.5 -13.5t37.5 0.5q5 27 6.5 59t1 63.5t-1.5 60t-1 49.5q0 23 15 34t35 13q10 1 20.5 -0.5t19.5 -5t14.5 -9.5t4.5 -15zM475 226q9 14 11 26.5t0 24.5t-5.5 25.5t-5.5 29.5
q-7 8 -18 17t-23.5 17.5t-25.5 14.5t-23 9q-33 9 -65 19t-61 13.5t-55 -3.5t-47 -32q-37 -44 -49 -83.5t-8 -86.5q2 -31 23.5 -52.5t50.5 -35.5q42 -20 84 -18t81.5 18t74 42t61.5 55z" />
    <glyph glyph-name="e" unicode="e" horiz-adv-x="576" 
d="M554 41q-53 -22 -108 -38t-110 -20.5t-108.5 7t-102.5 44.5q-37 26 -66.5 61.5t-33.5 89.5q-8 107 16.5 194t80.5 143q33 33 76.5 49.5t90 20t92.5 -4.5t82 -26q25 -12 41 -41t23 -62t6 -65t-8 -51q-24 -60 -65.5 -89t-93.5 -41t-109.5 -14t-113.5 -7q-12 -13 -17 -20
t8 -23q23 -30 53.5 -42.5t65 -13t72.5 8t77 19.5q20 6 39 15.5t36.5 18t33.5 13t30 0.5q11 -4 18.5 -21.5t10 -38.5t-1 -40t-14.5 -26zM445 417q-18 19 -42.5 32t-52 17.5t-56 0t-54.5 -18.5q-13 -7 -35.5 -18t-43.5 -25.5t-35 -32t-8 -36.5q4 -12 14.5 -16t23.5 -4t27 1
t24 -3q28 5 64.5 9t71.5 14t63 28t39 52z" />
    <glyph glyph-name="f" unicode="f" horiz-adv-x="393" 
d="M481 785q10 -7 12 -25t-2.5 -38.5t-15 -39t-26.5 -24.5q-11 -5 -22.5 -1.5t-23 9t-21.5 11.5t-19 8q-65 12 -104 12t-59 -16q-39 -33 -46 -62.5t7 -70.5q19 -8 62 -5t94 14q15 3 27 -7t19 -28t7.5 -41t-8.5 -45q-5 -13 -12.5 -19.5t-19 -9t-26 -2.5h-32.5q-16 0 -33 -1
t-33 -3.5t-29 -7t-21 -10.5q-2 -38 -1 -73.5t5 -72t10 -77t15 -87.5q3 -17 9 -32.5t5.5 -29.5t-11 -25.5t-38.5 -20.5q-30 -9 -45 -1.5t-21 24.5t-6.5 39t-0.5 41q-1 42 0 81.5t1.5 78t0 76t-3.5 76.5q-11 1 -18.5 8t-12 16.5t-7 20t-5.5 20.5q-8 29 3 57.5t41 42.5
q7 25 3 49.5t-5 60.5q-3 107 122 149q80 26 151.5 24.5t133.5 -43.5z" />
    <glyph glyph-name="g" unicode="g" horiz-adv-x="594" 
d="M561 120q-1 -38 -4.5 -68.5t-12.5 -58.5t-25.5 -53.5t-44.5 -52.5q-61 -58 -129 -75t-143 -4q-45 8 -76.5 20t-60.5 32q-15 11 -15.5 36t8.5 48.5t25 36.5t34 0q15 -11 34 -19.5t41 -14.5t45 -9.5t44 -4.5q28 -2 52 -3t44.5 2.5t38 14t31.5 33.5q13 20 18.5 37t5.5 34
t-3 35.5t-7 41.5q-35 -37 -80 -59t-92.5 -30t-93.5 -1.5t-84 26.5q-37 19 -58.5 55t-29 79t-2.5 88.5t21 83.5q19 45 34.5 76.5t36.5 55t51.5 41.5t79.5 36q27 10 54.5 5t54.5 -14.5t52 -18.5t46 -9q-8 29 -5.5 43t10.5 18.5t19.5 4t23.5 -0.5q11 0 21.5 -1.5t18 -7t12 -16
t3.5 -28.5q-2 -38 -2 -68t1 -58l2 -56t2 -62q2 -50 4 -95t0 -95zM457 377q-11 24 -29 38t-41.5 20.5t-50.5 8t-56 1.5q-24 0 -50 -5t-50.5 -16t-44.5 -30t-30 -46q-9 -24 -11 -50t3 -50t17.5 -42.5t32.5 -26.5q16 -6 41 -8t54 1.5t59 11.5t55 21q56 29 84 72.5t17 99.5z" />
    <glyph glyph-name="h" unicode="h" horiz-adv-x="552" 
d="M522 67q8 -26 -1 -50.5t-39 -30.5q-35 -7 -55 11.5t-17 45.5q6 61 8.5 120t2.5 108t-2.5 84.5t-5.5 49.5q-4 14 -16 18.5t-27.5 2t-31.5 -10t-27 -16.5q-24 -19 -49.5 -38t-48 -38t-40 -39t-24.5 -42q-9 -29 -11 -55t-0.5 -51.5t5 -52.5t3.5 -59q0 -12 -8 -21t-20 -14
t-26 -6t-26 4q-15 5 -20 17.5t-4.5 28.5t4 32.5t4.5 30.5q3 33 4 64t0.5 62.5t-1.5 65.5t-2 73q0 27 -1 58t-2 63t-2 63.5t-2 60.5l-6 134q-6 22 7.5 40t33.5 27q12 6 24 6.5t21.5 -4t15 -14t2.5 -22.5q-8 -40 -11.5 -70.5t-4.5 -59t0 -60t1 -73.5q0 -26 -0.5 -47t15.5 -28
q27 34 69.5 68.5t87 59t86 32.5t67.5 -12q33 -26 44.5 -63.5t12.5 -80t-4 -87.5t-4 -86q1 -44 3 -93t18 -106z" />
    <glyph glyph-name="i" unicode="i" horiz-adv-x="245" 
d="M216 719q0 -27 -17.5 -50t-52.5 -26q-38 -3 -64 11t-26 46q0 11 5 23.5t13 23.5t18.5 18.5t22.5 8.5q19 2 37 0t32.5 -9t23 -18.5t8.5 -27.5zM190 55q5 -17 2.5 -27.5t-10 -16.5t-18.5 -10t-22 -7q-23 -7 -43 2.5t-22 43.5q-2 36 -3 65.5t-1 58t0.5 57.5t1.5 64
q2 66 2.5 127t2.5 131q0 19 18 31.5t38.5 14t36.5 -9t14 -37.5q-6 -64 -13 -122.5t-11 -125.5q-2 -35 -2 -64.5t3 -57.5t9.5 -56.5t16.5 -60.5z" />
    <glyph glyph-name="j" unicode="j" horiz-adv-x="245" 
d="M216 719q0 -27 -17.5 -50t-52.5 -26q-38 -3 -64 11t-26 46q0 11 5 23.5t13 23.5t18.5 18.5t22.5 8.5q19 2 37 0t32.5 -9t23 -18.5t8.5 -27.5zM190 123q11 -60 -3.5 -104t-43 -81.5t-64.5 -72.5t-67 -75q-11 -14 -27 -6t-30.5 25.5t-25 38.5t-10.5 33q-1 19 12 29t25 27
q21 28 47 52.5t48.5 50t37 55.5t10.5 69q-5 54 -12 101t-11.5 92t-4 89.5t10.5 93.5q4 20 22 26.5t38 2.5t35 -17.5t13 -33.5q-5 -51 -9.5 -99.5t-5.5 -96.5t2 -97.5t13 -101.5z" />
    <glyph glyph-name="k" unicode="k" horiz-adv-x="570" 
d="M590 106q13 -9 8 -30.5t-19.5 -42.5t-33 -34t-31.5 -3q-13 4 -21 12.5t-16.5 20.5t-20 27t-31.5 30q-24 19 -45.5 35.5t-42.5 32.5t-43.5 31.5t-50.5 31.5q-20 12 -43.5 16t-49.5 2q-5 -43 -7 -70t-1 -47t3.5 -39t6.5 -45q2 -17 -11.5 -33t-33.5 -21q-26 -6 -38 -0.5
t-16.5 16.5t-5 24.5t-2.5 25.5q17 112 16.5 216.5t-2.5 205.5q-1 40 -1 74t0.5 66t0 66t-2.5 74q-1 17 16 24t37 6t36 -9.5t13 -22.5q-5 -23 -7.5 -41t-4 -34.5t-2.5 -34.5t-4 -42q-1 -4 -1.5 -18.5t-0.5 -35t0.5 -43t2 -42.5t4 -34.5t7.5 -16.5q40 18 75 42.5t70 50.5
t70 55.5t65 64.5q16 13 30 14.5t26 -4.5t21 -16.5t15 -19.5q16 -26 13.5 -44.5t-15 -33t-32 -26.5t-38.5 -26q-21 -16 -43.5 -29.5t-43.5 -28t-40.5 -31.5t-35.5 -39q24 -18 49 -36q21 -16 44.5 -33.5t43.5 -32.5q24 -18 42.5 -33t36.5 -29.5t38 -29.5t47 -33z" />
    <glyph glyph-name="l" unicode="l" horiz-adv-x="213" 
d="M184 74q7 -23 5 -41t-10 -30.5t-22 -20t-31 -9.5q-24 -3 -38 6t-21.5 24t-9.5 34t-2 36q0 26 0.5 49.5t1 48.5t0 54t-2.5 67q-1 16 0.5 53t2.5 87.5t1 108.5t-3 116q-1 20 -6 40t-6.5 38t3 33.5t21.5 26.5q16 7 34 8t33 -5t25 -18t10 -31q-10 -88 -20 -173t-10 -166
q-1 -88 6 -171.5t39 -164.5z" />
    <glyph glyph-name="m" unicode="m" horiz-adv-x="762" 
d="M730 11q-18 -20 -41 -25.5t-47 5.5q-17 8 -21 21.5t-2.5 30t6.5 35.5t7 38q2 22 4.5 45.5t4 55.5t1 76.5t-4.5 107.5q-1 13 -12 17.5t-25.5 4t-30 -5t-24.5 -10.5q-9 -14 -20 -24t-21.5 -19.5t-21.5 -21.5t-20 -31q-14 -29 -19.5 -61t-5 -66t4.5 -69t10 -69
q4 -21 -12 -34.5t-36 -15.5q-24 -3 -43 11.5t-21 42.5q-4 46 1.5 87t7.5 82q1 25 3 47.5t2 44.5t-2 44.5t-7 49.5q-5 15 -23 20.5t-32 -3.5q-30 -19 -56.5 -38.5t-48.5 -39.5t-37 -40t-21 -40q-7 -22 -7.5 -42t-1.5 -46q-1 -25 3 -46t8.5 -38.5t7.5 -33t2 -28.5
q-2 -13 -10 -24.5t-22 -18.5q-11 -5 -23 -6.5t-23 1.5t-19 11t-9 22q-6 73 -2.5 137t6.5 124.5t2 120.5t-16 125q-3 13 -3 25.5t5.5 23t17.5 18t32 10.5q9 1 19.5 3t18.5 0t13.5 -9t5.5 -22q3 -17 1.5 -29t-4 -23.5t-4 -23.5t1.5 -29q28 12 50 28.5t43 34.5t44 35.5t54 30.5
q17 5 33.5 3t30 -9.5t22.5 -20.5t9 -30q1 -18 0.5 -34t9.5 -32q2 -9 14.5 1t33 29.5t47 41.5t55.5 37.5t59.5 17.5t58.5 -19q16 -54 21 -107.5t5.5 -109t0 -114t5.5 -122.5q2 -20 7.5 -36t9.5 -29.5t3 -26t-13 -24.5z" />
    <glyph glyph-name="n" unicode="n" horiz-adv-x="590" 
d="M562 53q-2 -25 -12.5 -38.5t-36.5 -17.5q-29 -11 -48 -3t-24 42t-5 62t2 54t5 53t4.5 60t0 73.5t-8.5 93.5q-12 7 -31 6t-39.5 -6t-40 -13t-31.5 -15q-23 -13 -47 -26.5t-45 -26.5t-36.5 -25t-19.5 -22q-8 -18 -10.5 -32.5t-2.5 -28t1 -27.5t0 -32q-1 -24 4 -46.5
t9.5 -43.5t5 -39.5t-9.5 -33.5l-16 -14t-17 -11.5t-19 -5t-22 5.5q-13 4 -16 22.5t-1.5 44t5 53t3.5 48.5q0 65 -2 112.5t-4 87.5t-3.5 76.5t-1.5 79.5q-3 29 1.5 43t13.5 19.5t21.5 6.5t26.5 4q18 4 23 -8t5 -31.5t-2 -41t1 -36.5q0 -9 16.5 -2t38 19.5t43 27t31.5 20.5
q24 15 53 30.5t59 27.5t59.5 17.5t53.5 -0.5q23 -5 37 -24t9 -52q-8 -55 -11.5 -117.5t-6.5 -128.5q-3 -62 7.5 -125t30.5 -116z" />
    <glyph glyph-name="o" unicode="o" horiz-adv-x="640" 
d="M578 432q25 -36 32 -83.5t-2 -98t-35 -97.5t-67 -81q-139 -113 -302 -41q-29 13 -59 36.5t-56 53.5t-44 63.5t-22 65.5q-11 88 21 157t105 121q60 43 125 48.5t136 -11.5q26 -6 51 -21t47 -34t40 -39.5t30 -38.5zM515 334q-8 23 -20.5 39t-29 27.5t-35.5 20t-40 15.5
q-67 23 -130 11t-107 -68q-15 -18 -27 -35t-18.5 -34.5t-7 -36.5t8.5 -41q15 -38 47 -60.5t71 -36.5q34 -12 70.5 -13.5t70 7t63.5 27.5t52 48q13 18 22.5 32.5t14 29.5t3.5 31t-8 37z" />
    <glyph glyph-name="p" unicode="p" horiz-adv-x="573" 
d="M540 462q23 -61 16 -114t-34.5 -99t-71 -83.5t-93.5 -66.5q-28 -17 -58.5 -27.5t-59 -18.5t-53 -14.5t-40.5 -14.5q-9 -20 -9 -44v-52q0 -16 4 -31t8 -29t4.5 -26.5t-8.5 -21.5q-41 -44 -91 -18q-16 8 -19.5 22t-2 30.5t6 34t4.5 34.5q2 67 2.5 127.5t-0.5 118t-3.5 114
t-6.5 116.5q-10 18 -12.5 36.5t-0.5 36.5t7 35t10 33q9 10 20 15.5t23 8.5t24.5 4.5t25.5 3.5q33 5 68 11t70.5 8t71.5 -1t71 -15q49 -17 79.5 -43t47.5 -70zM468 419q-12 17 -38 28.5t-59.5 16.5t-71.5 4t-73 -8q-14 -3 -28.5 -5t-27.5 -5t-22 -8t-11 -14q-6 -30 -8.5 -63
t-2.5 -66.5t2.5 -65.5t7.5 -59q13 -8 25.5 -8t25 2.5t25 6t26.5 3.5q37 16 76.5 38.5t73 52t55.5 66.5t25 84z" />
    <glyph glyph-name="q" unicode="q" horiz-adv-x="620" 
d="M592 568q-6 -45 -10 -82t-7 -72t-4.5 -69t-1.5 -73q0 -37 -0.5 -69.5t-0.5 -64.5t1 -67t4 -77q2 -29 13 -49t18 -36.5t4 -33t-29 -38.5q-20 -16 -41 -18t-47 19q-10 37 -9 61t3.5 50t2 60.5t-12.5 92.5q-34 -31 -80 -55t-94 -36t-93.5 -9.5t-78.5 25.5q-47 32 -70.5 82
t-25.5 131q-2 54 4 101t18 86t29 67.5t38 45.5q33 26 70.5 34t76.5 4t77 -17.5t71 -30.5q10 -5 15 -9t9.5 -6t10.5 -2.5t17 1.5q-6 24 -5.5 45t6.5 36.5t18.5 23.5t32.5 6q10 -1 23 -5t24 -10.5t18.5 -17t5.5 -24.5zM475 341q-7 8 -21 22t-29.5 27.5t-31.5 24.5t-26 14
q-33 9 -62 16t-55 7t-49 -9.5t-44 -34.5q-37 -44 -49 -83.5t-8 -86.5q2 -31 23.5 -52.5t50.5 -35.5q42 -20 82.5 -19t78 16t71 40t60.5 54q9 14 12 25.5t3 22.5t-2 23.5t-4 28.5z" />
    <glyph glyph-name="r" unicode="r" horiz-adv-x="443" 
d="M461 570q6 -23 6 -37.5t-5 -23t-14 -13t-19 -6.5q-26 -5 -59.5 -14.5t-53.5 -21.5q-31 -19 -55.5 -35t-44 -33.5t-35 -37t-27.5 -46.5q-6 -15 -9 -23t-4.5 -16.5t-1.5 -21v-35.5q0 -27 2.5 -51.5t6 -47t7 -44t3.5 -42.5q1 -30 -11.5 -39t-31.5 -13q-12 -3 -24.5 -2.5
t-22.5 6.5t-16.5 17.5t-6.5 31.5q1 64 3.5 130.5t3.5 134.5t-2.5 136t-14.5 135q-7 40 15.5 54t72.5 1q20 -9 24 -23.5t1.5 -31t-5 -34.5t4.5 -34q23 10 53 33.5t62.5 47t64.5 41.5t59 18q9 0 19.5 -3t21 -10t19.5 -18.5t14 -28.5z" />
    <glyph glyph-name="s" unicode="s" horiz-adv-x="602" 
d="M582 257q-6 -39 -15.5 -78.5t-26.5 -75.5t-44 -66t-68 -50t-79.5 -21t-76.5 8.5t-76 25.5t-77 30q-22 14 -23 34.5t10 43.5q16 34 32.5 40t34.5 -1.5t37.5 -21.5t41.5 -21q35 -12 73 -13.5t71.5 7.5t59.5 28t36 49q3 14 -3 25t-16.5 18.5t-23.5 12t-24 6.5
q-33 5 -66.5 2.5t-67.5 -7t-67 -9t-64 -4.5q-42 0 -75.5 17.5t-53.5 59.5q-23 46 -15 91.5t34.5 86t66 74.5t79.5 57q47 19 86.5 20t74 -9.5t65 -29t59.5 -37.5q7 -5 15.5 -7.5t17 -6t15 -8t10.5 -13.5q3 -15 1.5 -31t-9 -29.5t-21.5 -23t-34 -10.5q-28 14 -56.5 30.5
t-58 28t-61 14.5t-65.5 -10q-26 -9 -50.5 -18.5t-43 -22t-28.5 -31t-7 -46.5q21 -21 47.5 -27t56 -5t62 6t65.5 7q36 1 74 3t71.5 -5t59.5 -26.5t40 -60.5z" />
    <glyph glyph-name="t" unicode="t" horiz-adv-x="499" 
d="M479 545q0 -14 -2.5 -29t-8.5 -27.5t-16.5 -21.5t-26.5 -12q-29 -5 -66 -4.5t-74 0t-71.5 -6.5t-59.5 -23q-7 -35 -11 -70.5t-4 -70.5q0 -17 1.5 -37.5t5 -41t9 -40t13.5 -34.5q11 -21 36 -21q30 0 51 12.5t36.5 31t27 40t22 40t22 31t27.5 12.5q13 0 26.5 -8.5t24.5 -21
t17.5 -27.5t6.5 -27q0 -21 -21 -50.5t-49.5 -59.5t-57.5 -56t-45 -39q-20 -16 -43.5 -25t-48.5 -9q-14 0 -27.5 3.5t-22.5 14.5q-39 46 -57 101.5t-24.5 114.5t-6 119t-1.5 116q-12 0 -19.5 6.5t-11.5 16t-5 21t-1 20.5q0 34 3.5 50.5t9 23t12 7t12 2.5t9 9t3.5 27
q0 16 -2 31t-2 30q0 30 17 42t45 12q22 0 35.5 -8.5t13.5 -32.5q0 -23 -6 -44.5t-5 -44.5v-5q11 -4 23 -5t23 -1q28 0 56.5 5.5t56 11.5t53.5 11.5t49 5.5q31 0 40 -19.5t9 -45.5z" />
    <glyph glyph-name="u" unicode="u" horiz-adv-x="540" 
d="M509 598q2 -26 0 -56t-6 -63.5t-7.5 -70.5t-4.5 -76q-2 -69 1 -124.5t2 -111.5q0 -15 4.5 -32.5t5.5 -33t-6 -28t-32 -16.5q-23 -4 -35 3t-17 21t-6.5 34.5t-3.5 43.5q-28 -13 -66 -33t-80.5 -37t-87 -25.5t-86.5 0.5q-6 1 -11.5 8.5t-10 18.5t-8 24.5t-4.5 26.5
q-7 74 -10.5 133.5t-5 114.5t-1 111.5t2.5 125.5q1 18 15 33t37 17q26 2 40.5 -11.5t8.5 -42.5q-11 -48 -16 -99.5t-5.5 -102t2.5 -98t9 -87.5q2 -15 19.5 -17.5t42 3t53 16t52.5 21.5q32 14 62.5 36t38.5 53q13 46 16.5 122.5t-4.5 185.5q-2 21 13.5 30.5t35 10.5t36 -7
t17.5 -21z" />
    <glyph glyph-name="v" unicode="v" horiz-adv-x="516" 
d="M541 557q-11 -63 -33 -118t-47 -107.5t-49 -106t-40 -113.5q-6 -23 -5 -41.5t2 -34t-0.5 -28.5t-13.5 -25q-8 -9 -20 -16.5t-25.5 -12t-26.5 -4t-24 8.5q-21 28 -36.5 58.5t-27.5 62.5t-23 66t-24 70q-20 56 -49 117.5t-67 126.5q-9 15 -17.5 32t-13 33.5t-2 32
t16.5 28.5q18 18 40.5 25t42.5 -7q20 -15 30 -38t16.5 -50t12.5 -56.5t19 -57.5q16 -35 28 -62.5t23.5 -53t23.5 -51t28 -55.5q21 17 32 33.5t18.5 34.5t14 39t17.5 47q15 34 27 63.5t20.5 57.5t13 56t4.5 59q0 18 10 32.5t28 20.5q14 5 28.5 0.5t26 -14.5t18 -24t3.5 -28z
" />
    <glyph glyph-name="w" unicode="w" horiz-adv-x="720" 
d="M734 588q-12 -42 -23.5 -82t-22 -81t-20.5 -85.5t-19 -95.5q-4 -23 -10 -43t-11 -39t-7 -38t3 -40q3 -12 3.5 -25t-4 -25.5t-17 -24.5t-35.5 -22q-25 -11 -39.5 -6t-23.5 19t-14 33t-11 36q-12 34 -32 81t-40 89q-11 21 -22 46.5t-21 48.5q-11 26 -23 52
q-24 -30 -41.5 -66t-29.5 -73.5t-17.5 -73.5t-4.5 -66q0 -12 3 -25t4.5 -26.5t-1 -26t-12.5 -22.5q-15 -14 -32 -19.5t-32 -3.5t-26 10t-13 21q-12 69 -29.5 131.5t-34.5 129.5q-16 60 -35 118t-47 117q-6 17 -2.5 29t11.5 21.5t19.5 17.5t22.5 16q39 14 60.5 0t25.5 -72
q11 -73 20.5 -137.5t33.5 -127.5q14 16 26.5 37t22.5 47q17 47 28.5 104.5t27.5 112.5q5 17 21 26t35.5 11.5t38.5 -0.5t30 -10q7 -12 10 -26.5t4.5 -29.5t3 -30.5t4.5 -28.5q9 -36 17.5 -64.5t20 -54.5t26.5 -52.5t37 -58.5q12 17 19.5 32t12.5 30.5t9.5 31.5t10.5 36
q10 32 16.5 59.5t11 54t8 54t8.5 59.5q2 15 19.5 22t36.5 6.5t32.5 -10t8.5 -28.5z" />
    <glyph glyph-name="x" unicode="x" horiz-adv-x="593" 
d="M572 547q-5 -33 -22 -57.5t-37 -45.5q-21 -22 -41 -41.5t-39 -39t-38.5 -41.5t-38.5 -48q15 -19 41 -42t54.5 -47t55 -48t40.5 -45q15 -21 11.5 -42.5t-17 -35t-33 -17t-37.5 11.5q-31 26 -79.5 72.5t-102.5 114.5q-29 -18 -50.5 -42t-39 -49.5t-31.5 -49.5t-27.5 -41.5
t-27 -25.5t-30.5 -1q-28 15 -43.5 29t-15.5 42q0 24 14 37t31 29q40 40 73.5 78t66.5 83q-14 26 -37 51.5t-47.5 51t-48 51.5t-37.5 54q-14 26 -9.5 48.5t24.5 38.5q17 14 38 18t38 -19q15 -21 30.5 -52t32.5 -62.5t37.5 -59.5t46.5 -42q17 19 35 38q15 17 31 36.5t29 37.5
q17 25 29 50t24 45t26.5 33t36.5 14q13 0 26 -7t24 -18t20 -23t14 -22z" />
    <glyph glyph-name="y" unicode="y" horiz-adv-x="625" 
d="M574 555q-13 -36 -24 -69t-23 -66t-25.5 -67.5t-31.5 -73.5q-27 -60 -53.5 -108t-54.5 -92.5t-58 -89t-65 -95.5q-11 -16 -22.5 -31.5t-25 -26t-29 -15t-33.5 1.5q-41 14 -52 49q-2 19 8.5 35t28 32.5t39 34t40.5 40.5q6 7 18.5 24t26 38t25 43.5t16.5 42.5
q-1 8 -12 23.5t-27.5 35.5t-35.5 42.5t-34 44.5q-21 31 -40 56.5t-36.5 49.5t-34 49.5t-33.5 56.5q-6 10 -5.5 22t5 23t13 19.5t20.5 13.5q18 8 37.5 10t27.5 -14q17 -35 38.5 -75t47.5 -80.5t56 -79t65 -71.5q24 31 41.5 69t31 79t24.5 83t21 82q4 16 13 23t20 7.5
t23.5 -3.5t23.5 -8q22 -8 37 -26.5t8 -38.5z" />
    <glyph glyph-name="z" unicode="z" horiz-adv-x="555" 
d="M514 589q7 -18 8 -40t-5 -42.5t-18 -35.5t-30 -18q-24 -26 -41.5 -46t-33.5 -39.5t-32.5 -42t-38.5 -53.5q-17 -23 -33 -42.5t-30 -38.5t-25.5 -38t-18.5 -40q24 -9 58.5 -6t71 9t71 11.5t58.5 1.5t33.5 -23.5t-1.5 -48.5q-8 -21 -17.5 -40.5t-29.5 -21.5
q-25 -3 -57.5 -3.5t-67 -1t-69 -3.5t-63.5 -10q-20 -5 -40.5 -12t-39 -10.5t-35.5 0t-29 18.5q-6 7 -10 18.5t-5 24.5t1 25.5t9 21.5q39 52 75 98t70 91.5t65 93t61 101.5q-18 18 -48.5 19t-65 -5.5t-68.5 -16.5t-59 -14q-20 -3 -34.5 1.5t-22 18t-7 37.5t11.5 60
q4 11 12.5 16.5t20 8t23.5 3t23 2.5q29 5 55.5 7.5t53.5 4.5t57.5 5t67.5 11q23 5 49.5 10t50.5 5t42.5 -6.5t26.5 -24.5z" />
    <glyph glyph-name="braceleft" unicode="{" horiz-adv-x="561" 
d="M498 620q5 -11 5 -18.5t-4 -15t-11.5 -17t-17.5 -22.5q-12 -4 -19.5 -7.5t-13.5 -6t-12 -4t-14 -1.5q-33 42 -66 81.5t-77 88.5q-14 16 -34 24t-37 17t-27 22.5t-4 39.5q7 20 15 30.5t17.5 14t22 0.5t30.5 -10q42 -18 73.5 -44t59.5 -55t54.5 -59.5t59.5 -57.5zM482 333
q-28 -13 -54 -16.5t-53 -2.5t-55 4t-61 2q-30 0 -63.5 -5.5t-63 -8.5t-51.5 -0.5t-31 18.5q-2 29 0 56t11 49q1 18 19 23.5t43.5 5.5t53.5 -2t51 1q30 4 61 3t63 -4t64 -5.5t64 -2.5q13 -25 13.5 -56.5t-11.5 -58.5zM493 184q-18 -39 -44.5 -69.5t-56.5 -58.5t-60.5 -55
t-56.5 -58q-12 -6 -20.5 -6.5t-17.5 2.5t-20 9t-27 14q-11 20 -18 28t-7 22q43 34 84 67t91 77q16 14 23.5 32.5t15.5 35t22 26.5t44 7q23 -6 35 -12t16.5 -14t2.5 -19.5t-6 -27.5z" />
    <glyph glyph-name="bar" unicode="|" horiz-adv-x="528" 
d="M496 672q-12 -9 -34 -14t-48 -8.5t-52 -6.5t-45 -8q-4 -38 -9.5 -74.5t-7.5 -83.5q-2 -36 -3.5 -80.5t-2.5 -90.5t-1.5 -90t0.5 -80q14 0 37.5 5t46.5 9t42 4t24 -12q5 -11 7 -28t-1 -35t-11 -34t-23 -24t-33 -11t-39.5 -4t-47.5 -2t-56 -4q-29 -3 -63.5 -12.5t-64 -16
t-50 -6t-21.5 16.5q0 3 -4.5 15.5t-6.5 29.5t1 34t18 29q14 12 32 16t37 5.5t38 2t36 4.5q1 48 2.5 111.5t3 131t2.5 132.5t1 118q-23 -4 -49.5 -9.5t-51.5 -9t-44 -2t-25 11.5q-5 7 -8.5 20t-3.5 29.5t4 34t15 33.5q4 6 27 12.5t55 12.5t69 12t69 11q35 6 75 12t74.5 9.5
t59 4t28.5 -4.5q6 -8 11 -24.5t6.5 -34t-2 -33.5t-13.5 -24z" />
    <glyph glyph-name="braceright" unicode="}" horiz-adv-x="561" 
d="M386 780q-43 -34 -84 -67.5t-91 -76.5q-16 -14 -23.5 -32.5t-15.5 -35t-22 -26.5t-44 -7q-23 6 -35 12t-16.5 14t-3 19.5t6.5 27.5q18 39 44.5 69.5t56.5 58.5t60.5 54.5t56.5 58.5q12 6 20.5 6.5t17.5 -2.5t20 -9t27 -14q11 -20 18 -28t7 -22zM501 468q2 -29 0 -56
t-11 -49q-1 -18 -19 -23.5t-43.5 -5.5t-54 2t-50.5 -1q-30 -4 -61 -3t-63 4t-64.5 5.5t-63.5 2.5q-13 25 -13.5 56.5t11.5 58.5q28 13 54 16.5t53 2.5t55 -4t61 -2q30 0 63.5 5.5t63 8.5t51.5 0.5t31 -18.5zM385 -9q-8 -20 -15.5 -30.5t-17 -14t-22 -1t-30.5 10.5
q-42 18 -73.5 44t-59.5 55t-54.5 59.5t-59.5 57.5q-5 10 -5 18t4 15.5t11.5 16.5t17.5 23q12 4 19.5 7.5t13.5 6t12 4t14 1.5q33 -42 66 -81.5t77 -88.5q14 -16 34 -24t37 -17t27 -22.5t4 -39.5z" />
    <glyph glyph-name="asciitilde" unicode="~" 
d="M613 824q-6 -18 -28 -41.5t-51.5 -45t-63 -37t-61.5 -18.5q-30 -3 -56.5 9.5t-50.5 27.5t-45.5 27.5t-41.5 9.5q-27 -4 -44 -13.5t-32.5 -20t-33.5 -18.5t-46 -9q-6 12 -14 21.5t-14.5 18.5t-9 19t2.5 24q25 13 48 25.5t46 24.5t47.5 24.5t54.5 25.5q14 6 40.5 -3t56 -25
t58 -32.5t47.5 -25.5q17 -8 35 3.5t35.5 29t34.5 32.5t34 15q15 0 24.5 -6.5t15 -14.5t8 -16t4.5 -11z" />
    <glyph glyph-name="uni00A0" unicode="&#xa0;" horiz-adv-x="500" 
 />
    <glyph glyph-name="exclamdown" unicode="&#xa1;" horiz-adv-x="451" 
d="M406 763q-2 -24 -14.5 -45.5t-31 -36.5t-40 -22.5t-41.5 -4.5q-16 2 -32 14.5t-28.5 30.5t-20 38.5t-5.5 38.5q2 22 14.5 40.5t30 31.5t37.5 19t38 5q16 -1 33.5 -13.5t31 -29.5t21.5 -35t7 -31zM293 554q-5 -41 -6.5 -63.5t-3 -38t-4 -30t-8.5 -38.5q-2 -9 -5.5 -28.5
t-8 -44.5t-9 -53.5t-9.5 -55.5q-8 -41 -15 -83.5t-13 -77.5q-7 -41 -14 -79q-6 -2 -28 -4t-48.5 1.5t-52.5 14.5t-40 36q8 33 15.5 57.5t15.5 43.5t16.5 36t17 36.5t18.5 43t20 56.5q17 54 28.5 88.5t22 62.5t22 56t28.5 69q4 10 11 11.5t15.5 -2t17.5 -8.5t17 -6z" />
    <glyph glyph-name="cent" unicode="&#xa2;" horiz-adv-x="625" 
d="M530 625q-4 -12 -14 -25.5t-22 -27t-25.5 -25t-24.5 -17.5q-21 22 -52 37.5t-80 13.5q-37 -7 -71 -19t-62.5 -32t-51 -49.5t-35.5 -71.5q-2 -30 3.5 -63t33.5 -66q25 -29 63.5 -39.5t82 -6t87.5 24t80 51.5q17 20 30 14.5t37 -29.5q12 -2 20.5 -10.5t11 -20t-1.5 -22.5
t-16 -18q-27 -26 -70.5 -48.5t-91.5 -37.5q-5 -17 -2 -45.5t4.5 -57.5t-3.5 -54t-25 -35q-35 -9 -57 -2.5t-30 32.5q-5 41 -1.5 74t0.5 65q-19 -1 -36 0t-32 5q-34 8 -58.5 22t-43 34t-32 46.5t-24.5 59.5q-13 38 -17 78t2 77.5t22.5 71t44.5 58.5q17 20 33 37t34 32t39 27
t49 21q0 15 1 26t3.5 22.5t5.5 27t6 40.5q11 17 36.5 20.5t51.5 4.5q14 -12 23 -15.5t14 -12.5q-7 -21 -8.5 -30t-2 -17t-2 -19.5t-8.5 -36.5q16 -2 36.5 -4.5t44 -9.5t49 -20t52.5 -35z" />
    <glyph glyph-name="sterling" unicode="&#xa3;" horiz-adv-x="655" 
d="M618 126q-6 -20 -29 -44.5t-54.5 -47t-66.5 -39t-65 -19.5q-22 -2 -42 3t-40 13t-41.5 15.5t-45 10.5t-51 -1t-59.5 -19q-25 -6 -47.5 9.5t-36 39.5t-16.5 49.5t11 39.5l45.5 45.5t30 36t22 43.5t20.5 67q-27 -3 -45.5 -1.5t-30.5 6.5t-18 12t-9 16q-11 30 -8 48t14 28
t27.5 14.5t33.5 6.5q-6 9 -14 22.5t-15 28.5t-11 30t-2 28q11 75 47.5 128t102.5 85q43 13 86 12t82 -13.5t72 -36.5t57 -55q7 -7 0.5 -25.5t-18.5 -36.5t-25.5 -30t-22.5 -6q-28 20 -45 33t-42 21q-61 21 -104.5 8t-75.5 -47q-11 -12 -15 -31.5t-2.5 -41t8 -42t15.5 -35.5
q19 -2 42.5 -2t47.5 1t47 3t40 6q28 6 42 -18.5t-2 -67.5q-10 -24 -30 -27t-55 -2q-31 1 -53.5 -1.5t-38.5 -14.5q-7 -36 -16.5 -60.5t-20 -44t-20.5 -38t-16 -41.5q37 6 75.5 2.5t74 -12t66 -19.5t50.5 -20q18 -8 35 3.5t33.5 28.5t33 32t33.5 15q16 0 26.5 -7t16 -15.5
t8 -16.5t4.5 -12z" />
    <glyph glyph-name="yen" unicode="&#xa5;" horiz-adv-x="729" 
d="M697 749q-11 -24 -18.5 -40.5t-16.5 -33t-22.5 -36.5t-34.5 -51q-32 -46 -61 -96q48 2 84 -0.5t46 -15.5q2 -26 0 -49.5t-13 -43.5q-1 -12 -19 -17.5t-45 -7t-60.5 -1t-64.5 0.5q-9 -19 -16.5 -34.5t-12.5 -26.5q-4 -8 -5 -11q61 -2 122.5 -5t107.5 0q16 -21 16.5 -49
t-13.5 -52q-29 -12 -64 -16t-73 -4.5t-77 1.5t-75 2q-15 -37 -24.5 -75t-14.5 -86q-8 -13 -14.5 -19t-13.5 -7.5t-16.5 0.5t-24.5 6q-21 6 -30 8t-13 4.5t-7 7.5t-10 17q3 31 12 64t22 68q-28 -5 -55 -9.5t-50 -5.5t-40 2t-24 13q-2 26 0 50t13 44q1 16 22.5 22t52.5 8t65 2
t61 5q3 0 6 0.5t7 0.5q2 4 3.5 8t3.5 8q-17 25 -36 48q-48 0 -96 1.5t-96 -2.5q-15 21 -15.5 49t13.5 53q20 8 39 13t39 8q-42 41 -77.5 83t-56.5 95q2 20 12.5 34t26.5 28q16 19 32 29t33 6q20 -26 34.5 -48t30.5 -44.5t35.5 -48t48.5 -56.5q20 -22 34.5 -38.5t32.5 -32.5
h3q17 0 36 2.5t41 4.5q17 35 34.5 69.5t36 70t38.5 73.5t41 82q11 14 26.5 16t32 -4t32.5 -17t29 -24z" />
    <glyph glyph-name="brokenbar" unicode="&#xa6;" horiz-adv-x="285" 
d="M214 802q4 -38 0.5 -66t-10 -58.5t-12.5 -69.5t-6 -99q0 -12 -2 -24.5t-8.5 -22t-18.5 -14.5t-33 -1q-31 6 -40.5 20.5t-9.5 36t4.5 48.5t1.5 58q-5 60 -5.5 112t17.5 94q8 20 24 20.5t52 -1.5q11 -10 26 -15.5t20 -17.5zM209 337q4 -38 0.5 -66.5t-10 -60t-12.5 -71.5
t-6 -100q0 -12 -2 -24.5t-8.5 -22t-18.5 -14.5t-33 -1q-31 6 -40.5 21.5t-9.5 38t4.5 50t1.5 58.5q-5 60 -5.5 112t17.5 94q8 20 24 20.5t52 -1.5q11 -10 26 -15.5t20 -17.5z" />
    <glyph glyph-name="section" unicode="&#xa7;" horiz-adv-x="646" 
d="M626 245q3 -35 -5 -70.5t-27.5 -68t-50 -59.5t-71.5 -45t-79.5 -19t-76.5 8t-76 23.5t-77 26.5q-22 12 -23 30.5t10 39.5q16 30 32.5 36t34.5 -0.5t37.5 -19.5t41.5 -19q35 -11 73 -12t71.5 6.5t59.5 25t36 44.5q3 12 -3 22t-16.5 16.5t-23.5 10.5t-24 6q-33 4 -64 3.5
t-61.5 -3t-61 -4.5t-61.5 -2q-21 0 -42.5 2.5t-41 9t-36 18t-26.5 29.5q-15 27 -16.5 50.5t7 43.5t26 37.5t40.5 32.5q-32 5 -56.5 21t-41.5 47q-23 41 -15 82t34.5 77.5t66 67t79.5 51.5q47 18 86.5 18.5t74 -9.5t65 -26.5t59.5 -33.5q7 -4 15.5 -6.5t17 -5.5t15 -7
t10.5 -12q3 -14 1.5 -28.5t-9 -26.5t-21.5 -20.5t-34 -9.5q-28 13 -56.5 27.5t-58 25t-61 13t-65.5 -8.5q-26 -9 -50.5 -17t-43 -19.5t-28.5 -28t-7 -41.5q21 -19 47.5 -24.5t56 -4t62 6t65.5 5.5q36 1 77.5 3.5t77.5 -3.5t61 -23.5t29 -56.5q2 -15 3.5 -31.5t-6.5 -30.5
t-12 -26t-8 -23.5t-9 -22.5t-14 -22q15 -4 29.5 -9.5t27 -14.5t20.5 -21.5t10 -30.5zM495 403v1q0 15 -22.5 27.5t-55.5 20t-70.5 7.5t-67.5 -10q-40 -13 -75 -27t-49 -41q0 -15 11 -23.5t26 -13t32 -5.5t31 0q37 1 75 1.5t71.5 5.5t58.5 17.5t35 39.5z" />
    <glyph glyph-name="dieresis" unicode="&#xa8;" horiz-adv-x="594" 
d="M504 757q0 -31 -16.5 -55t-50.5 -24q-35 0 -59.5 18.5t-24.5 53.5q0 10 4 23.5t11 25.5t17.5 20.5t22.5 8.5q18 0 35 -4t30.5 -13t22 -22.5t8.5 -31.5zM242 752q0 -15 -4 -30t-12.5 -27t-21 -19.5t-29.5 -7.5q-37 0 -60.5 20.5t-23.5 57.5q0 32 21 55t56 23t54.5 -17.5
t19.5 -54.5z" />
    <glyph glyph-name="copyright" unicode="&#xa9;" horiz-adv-x="895" 
d="M794 585q37 -86 34.5 -164.5t-49.5 -165.5q-41 -75 -82 -119.5t-86.5 -69.5t-98 -37.5t-118.5 -24.5q-57 -11 -109 3t-93.5 41.5t-70.5 63t-41 68.5q-18 49 -29 99.5t-10 102t15.5 103.5t48.5 104q33 50 73.5 91.5t89 70t105.5 42t122 8.5t110.5 -18t79 -37.5t59 -63.5
t50.5 -97zM741 516q-14 46 -30.5 73t-40 41.5t-55 21t-75.5 13.5q-54 8 -110.5 7t-109.5 -21t-100.5 -63.5t-84.5 -120.5q-8 -36 -12 -75t2 -78.5t24 -78t56 -72.5q60 -30 118 -43t115 -5t113 39t112 89q31 32 50 61t28 60.5t8.5 68t-8.5 83.5zM620 554q-9 -26 -32 -50.5
t-46 -37.5q-20 19 -40 29.5t-52 8.5q-24 -4 -47.5 -12t-43 -21t-34.5 -32.5t-23 -47.5q-1 -9 -3 -19t-2 -20t3 -20.5t12 -20.5q16 -18 43.5 -25t59 -3.5t63 16t54.5 33.5q16 18 29 16.5t35 -24.5q11 -3 18.5 -12.5t10 -20.5t-1 -22t-15.5 -17q-21 -19 -54 -36t-69 -28
t-71.5 -15t-62.5 2q-52 13 -78.5 43.5t-43.5 81.5q-20 59 -11.5 118t50.5 97q45 54 101 80.5t119 21.5q23 -2 39.5 -6.5t30.5 -12t28.5 -18.5t33.5 -26z" />
    <glyph glyph-name="ordfeminine" unicode="&#xaa;" 
d="M583 244q13 -26 -3.5 -50t-53.5 -34q-18 -5 -29 -3t-17.5 10.5t-9 22t-4.5 32.5q-1 12 -2.5 18.5t-4 11.5t-5.5 9.5t-8 12.5q-37 -30 -85 -59.5t-98 -45t-98.5 -9t-85.5 49.5q-15 17 -28 43.5t-19.5 56.5t-4.5 61.5t18 58.5q26 45 53.5 75t57.5 47.5t62 24.5t68 7
q45 -1 82.5 -11t79.5 -26q9 10 8.5 23t-0.5 28q0 13 3 24t2.5 20.5t-7.5 17t-27 14.5q-41 6 -78 1t-71 -13t-66 -16.5t-63 -11.5l-22.5 -2.5t-25.5 -1t-21 4t-10 14.5q-7 35 -9.5 54.5t9.5 39.5q19 13 54.5 18t78 8.5t88.5 9.5t85 22q26 5 55.5 6t56 -5t47.5 -21.5t30 -43.5
q-13 -31 -18 -67t-6 -77.5t0.5 -88t2.5 -98.5q1 -50 11.5 -88.5t27.5 -73.5zM422 413q-5 18 -19 29.5t-32.5 17.5t-40.5 7t-42 -2q-34 -5 -59 -12.5t-45.5 -19t-39.5 -28.5t-40 -42q-14 -29 7.5 -44.5t60.5 -17.5q40 -2 76 5t67 22t58 37t49 48z" />
    <glyph glyph-name="guillemotleft" unicode="&#xab;" horiz-adv-x="772" 
d="M737 717q-33 -47 -67.5 -80.5t-70.5 -65t-74 -67.5t-78 -89q30 -33 71 -66t81.5 -64t74.5 -57.5t51 -45.5q1 -8 -7 -19t-19 -23t-22.5 -25t-16.5 -24q-10 5 -32 22t-48.5 39t-53.5 44.5t-47 38.5q-24 19 -41.5 29t-35 21t-38 29.5t-50.5 55.5q-1 21 9 36t25.5 29t34.5 30
t36 40q26 38 54 66.5t60 60.5q58 59 90 102t37 52q10 3 15 0.5t9 -7.5t9 -12t14 -13q7 -5 16 -18.5t14 -18.5zM452 700q-33 -47 -67.5 -80.5t-70.5 -65t-74 -67.5t-78 -89q30 -33 71 -66t81.5 -64t74.5 -57.5t51 -45.5q1 -8 -7 -19t-19 -23t-22.5 -25t-16.5 -24
q-10 5 -32 22t-48.5 39t-53.5 44.5t-47 38.5q-24 19 -41.5 29t-35 21t-38 29.5t-50.5 55.5q-1 21 9 36t25.5 29t34.5 30t36 40q26 38 54 66.5t60 60.5q58 59 90 102t37 52q10 3 15 0.5t9 -7.5t9 -12t14 -13q7 -5 16 -18.5t14 -18.5z" />
    <glyph glyph-name="logicalnot" unicode="&#xac;" horiz-adv-x="790" 
d="M727 469q6 -8 7 -23t-4 -34.5t-15.5 -40t-27.5 -38.5q-26 -27 -44.5 -61.5t-38.5 -74.5q-10 -20 -9.5 -42t-1 -41.5t-11 -35t-38.5 -22.5q-24 -2 -36 5.5t-15.5 20t-1.5 27t7 25.5q16 52 32 96.5t32 89.5q-48 0 -98.5 1t-92.5 0q-44 -1 -93.5 -1.5t-92 0t-72.5 3t-35 8.5
q-23 29 -25.5 64t20.5 64q6 8 15 12t25.5 5.5t42 1.5t64.5 2q46 1 69 1t41.5 -1t41.5 -2t69 -2q42 -1 86 5t83 10t70 0.5t47 -22.5z" />
    <glyph glyph-name="registered" unicode="&#xae;" horiz-adv-x="895" 
d="M794 585q37 -86 34.5 -164.5t-49.5 -165.5q-41 -75 -82 -119.5t-86.5 -69.5t-98 -37.5t-118.5 -24.5q-57 -11 -109 3t-93.5 41.5t-70.5 63t-41 68.5q-18 49 -29 99.5t-10 102t15.5 103.5t48.5 104q33 50 73.5 91.5t89 70t105.5 42t122 8.5t110.5 -18t79 -37.5t59 -63.5
t50.5 -97zM741 516q-14 46 -30.5 73t-40 41.5t-55 21t-75.5 13.5q-54 8 -110.5 7t-109.5 -21t-100.5 -63.5t-84.5 -120.5q-8 -36 -12 -75t2 -78.5t24 -78t56 -72.5q60 -30 118 -43t115 -5t113 39t112 89q31 32 50 61t28 60.5t8.5 68t-8.5 83.5zM630 291q4 -14 -7.5 -39.5
t-38.5 -47.5q-32 16 -50.5 27.5t-35 20.5t-35.5 16t-50 15q-6 -3 -15 -5.5t-18.5 -4.5t-18 -3t-13.5 -1q-2 -15 -1.5 -24.5t1.5 -17.5t1.5 -18t0.5 -26q-32 -8 -48 -9.5t-24 12.5q-7 12 -8.5 28.5t0 36t3.5 40.5t1 43q-1 24 -3 46.5t-4 44t-2.5 42t1.5 40.5q-2 9 -5.5 17.5
t-5 17t0 17.5t7.5 20l29 18q68 11 138.5 12t139.5 -9q13 -2 25.5 -13t21 -27t12 -35t-0.5 -36q-11 -41 -46 -75t-70 -59q33 -16 64.5 -33t53.5 -31zM555 496q0 4 -4 7t-9.5 5t-11.5 3t-10 3q-20 -2 -43.5 0t-48 2t-48 -3t-43.5 -14q5 -27 1.5 -56t4.5 -59q16 3 37.5 8
t38.5 14q24 13 43.5 21.5t35.5 17.5t30 20.5t27 30.5z" />
    <glyph glyph-name="macron" unicode="&#xaf;" horiz-adv-x="616" 
d="M558 829q11 -23 5.5 -50t-21.5 -47q-11 -13 -36 -18t-57.5 -6t-67.5 -0.5t-66 -2.5q-41 -4 -76 -5t-61 0.5t-42.5 4.5t-19.5 8q-15 25 -17.5 54.5t14.5 52.5q7 9 24.5 14t41 6.5t50 1t52 -2t47 -3t35.5 -1.5q28 -1 59 5t58.5 9.5t48 0.5t29.5 -21z" />
    <glyph glyph-name="degree" unicode="&#xb0;" horiz-adv-x="495" 
d="M443 667q7 -95 -31 -151.5t-114 -85.5q-60 -23 -116.5 -18.5t-98.5 46.5q-31 31 -38.5 70t-0.5 86q8 62 42 106.5t87 59.5q22 6 48 11.5t52.5 7t52 -2.5t47.5 -16q35 -20 51.5 -52t18.5 -61zM371 628q6 21 -3.5 38t-38.5 22q-45 7 -88 2.5t-87 -39.5q-42 -33 -45.5 -63
t18.5 -44q17 -11 37.5 -15.5t41.5 -4.5t40.5 4t35.5 10q35 14 56.5 34.5t32.5 55.5z" />
    <glyph glyph-name="plusminus" unicode="&#xb1;" horiz-adv-x="561" 
d="M496 592q2 -32 0 -62t-11 -54q-1 -20 -20 -26t-45.5 -6.5t-56.5 1.5t-52 -1v-1q1 -19 3.5 -44.5t4.5 -51t2 -47t-4 -32.5q-18 -9 -37.5 -12.5t-35 -1.5t-24 8t-5.5 16q0 23 1 50q1 23 1.5 53t2.5 64q-36 3 -77.5 6.5t-76.5 2.5q-13 28 -13.5 63t11.5 65q39 20 80 21
t80 -3q1 18 1.5 33.5t0.5 29.5q0 15 -2.5 28.5t-4 27t0 26t8.5 26.5q23 15 51 17.5t54 -5.5q7 -14 7.5 -36t-2 -46.5t-7 -50.5t-7.5 -49q26 3 53.5 7.5t51.5 5.5t42 -3.5t25 -18.5zM537 141q9 -19 7 -41.5t-11 -42t-23.5 -32.5t-30.5 -14q-57 13 -114 10.5t-109.5 -9.5
t-98.5 -14.5t-81 -4.5q-17 -1 -28 8t-16.5 25t-4.5 39t8 51q2 7 7.5 13.5t12.5 11.5q8 6 17 11q56 5 99.5 5t84 2t84 8.5t100.5 24.5q26 5 54.5 -8.5t42.5 -42.5z" />
    <glyph glyph-name="twosuperior" unicode="&#xb2;" horiz-adv-x="500" 
d="M410 484q0 -17 -7 -30t-24 -13h-20q-17 0 -37.5 -0.5t-55.5 -4.5q-32 -4 -54 -8.5t-37 -8.5q-25 -7 -40 -7.5t-26 13.5q-13 15 -20 29.5t-7 29.5q0 32 32 49h-1q26 13 55 33.5t46 34.5q5 4 10.5 8t10.5 8q26 19 44.5 34.5t37.5 41.5q-2 2 -5.5 4t-5.5 4t-1.5 0.5
t-0.5 0.5q-8 -1 -14 -1h-14q-32 -2 -63 -4t-60 -19q-2 -3 -9 -10.5t-17 -12.5t-22.5 -3t-24.5 19q-2 7 -2.5 11t-2.5 8q-7 15 -10 32.5t9 37.5l33 19q37 12 72 16.5t71 4.5q26 0 51.5 -1.5t51.5 -5.5q14 -2 26 -13t20 -27.5t11 -35t-2 -35.5v1q-6 -21 -18.5 -40t-29 -35.5
t-35 -31t-35.5 -26.5q-6 -11 -20 -20l15 3q28 5 55 7.5t47 0.5q9 -6 16 -23.5t7 -33.5z" />
    <glyph glyph-name="threesuperior" unicode="&#xb3;" horiz-adv-x="500" 
d="M435 534q0 -29 -18.5 -50.5t-44.5 -41.5q-70 -52 -185 -56q-14 0 -30 1t-29 6t-21 15t-6 28q1 10 3 21t8 18.5t16 11.5t27 1q12 -2 22.5 -3.5t20.5 -1.5q38 0 89 17q50 17 50 26q0 3 -9 12q-14 11 -34 11q-11 0 -28.5 -3t-40.5 -8l1 1q-5 -2 -11.5 -3t-12.5 -3
q-29 -6 -44 3t-21 31v-1q-3 10 -4.5 20.5t2 19t13 15.5t28.5 10q14 2 25.5 4t22.5 4t22 5.5t25 8.5h-1q5 2 13.5 7.5t16 11t12 10.5t1.5 7q-5 5 -20 9t-38 4q-20 0 -45 -5t-47 -17l-6 -3q-2 -1 -3 -2l2 1q-11 -6 -23 -11t-22.5 -5.5t-19.5 6.5t-13 26l1 -5q-3 6 -5.5 16.5
t-2.5 22.5t2.5 23t10.5 17q19 2 30.5 5t25.5 6q14 4 31 8.5t36 6.5q4 1 9 1t8 1q16 3 31 5t32 2q26 0 50.5 -7.5t50.5 -29.5q17 -13 21.5 -40.5t-3.5 -50.5q-6 -17 -17 -29t-22 -22q20 -8 37 -19.5t26 -34.5q4 -9 4.5 -17.5t0.5 -16.5z" />
    <glyph glyph-name="acute" unicode="&#xb4;" horiz-adv-x="593" 
d="M487 809q9 -17 3.5 -34.5t-18.5 -20.5q-24 -6 -45 -11t-40.5 -10.5t-39.5 -12t-43 -14.5q-21 -7 -39.5 -16.5t-35.5 -16.5t-31.5 -7.5t-27.5 10.5q-23 20 -21 43.5t29 43.5q34 26 65 42t60.5 26t58 16t57.5 11q26 5 40 -8t28 -41z" />
    <glyph glyph-name="mu" unicode="&#xb5;" horiz-adv-x="540" 
d="M512 687q3 -26 1 -56t-6 -63.5t-8 -70.5t-5 -76q-2 -69 1 -124.5t2 -111.5q0 -15 4.5 -32.5t5.5 -33t-6 -28t-32 -16.5q-23 -4 -35 3t-17 21t-6.5 34.5t-3.5 43.5q-21 -10 -47 -23.5t-56 -27.5t-62 -26t-64 -18q-4 -17 -10 -30t-12 -26.5t-11 -28.5t-6 -35
q-1 -22 7.5 -42t14.5 -39t3.5 -36.5t-26.5 -35.5q-21 -11 -35 -8.5t-22.5 12.5t-11.5 24t-3 26q-10 101 -15.5 197.5t-8 192.5t-3 193t-0.5 199q5 17 17 34t35 16q13 2 24.5 -1.5t19 -10.5t9.5 -18t-4 -24q-8 -54 -14 -101t-8.5 -92.5t-1 -92.5t8.5 -101q3 -15 21.5 -17.5
t43.5 3t54 16t53 21.5q32 14 62 36t39 53q14 49 19 83t4 66t-4.5 68.5t-6.5 90.5q-3 21 12.5 30.5t35.5 10.5t37 -7t17 -21z" />
    <glyph glyph-name="paragraph" unicode="&#xb6;" horiz-adv-x="765" 
d="M721 736q10 -33 11 -50t-2.5 -32.5t-9 -37.5t-6.5 -64q-1 -26 -1.5 -64t-1 -78t-1 -77.5t-1.5 -64.5q-1 -37 -1 -66.5t1 -58t3 -60t7 -71.5q3 -12 -4.5 -17.5t-20 -7.5t-27.5 -1t-27 3q-21 5 -32.5 5.5t-12.5 14.5q-2 27 -1 48t2 40t2.5 38t1.5 41q-18 3 -46 7t-61 9
q1 -24 3.5 -43.5t5 -40t4.5 -43t3 -51.5q0 -18 -19.5 -26t-43 -7t-41.5 11t-15 27q1 25 1 56v61t1 77q-38 9 -75.5 22t-70.5 30q-29 15 -53 26.5t-45 25t-39 32t-34 47.5q-31 55 -36 107.5t23 115.5q36 81 103.5 115t160.5 41q56 4 109 7.5t102.5 1t95.5 -13t88 -34.5z
M613 341q1 20 2 59.5t0.5 83t-4 83.5t-10.5 61q-36 14 -83 20q-3 -41 -9 -84.5t-8 -92.5q-2 -37 -4 -66.5t-4 -58.5q36 -7 69.5 -10t50.5 5zM398 652q-54 -2 -107 -11t-97 -29q-33 -15 -43.5 -34t-7.5 -38t14 -36t22 -28q18 -20 38 -36t45 -29.5t57 -24t74 -20.5
q1 51 1.5 100t1.5 93q0 26 0.5 49t1.5 44z" />
    <glyph glyph-name="periodcentered" unicode="&#xb7;" horiz-adv-x="500" 
d="M328 375q0 -34 -18 -60.5t-55 -26.5q-40 0 -67 20t-27 60q0 22 4.5 42t18.5 20q5 0 10 4t9.5 8.5t9.5 8.5t10 4q20 0 39 -5t33.5 -14.5t23.5 -24.5t9 -36z" />
    <glyph glyph-name="cedilla" unicode="&#xb8;" horiz-adv-x="368" 
d="M237 80q42 -17 54 -40.5t3 -47t-34 -43t-57 -27.5q-22 -5 -47 -10t-48 -8t-42.5 -2.5t-30.5 6.5q-13 7 -18.5 17.5t-5 20.5t7.5 17.5t19 7.5q59 1 90.5 12.5t19.5 31.5q-7 11 -27.5 18.5t-43.5 15.5q-5 2 -11 6t-10.5 10t-6 14t2.5 18q10 26 23 50.5t33 43.5
q14 13 32 14.5t34.5 -3.5t29 -13.5t17.5 -14.5q2 -3 -2 -10t-10.5 -15.5t-13 -18t-9.5 -16.5q-3 -8 4 -14t16.5 -10t18.5 -6.5t12 -3.5z" />
    <glyph glyph-name="onesuperior" unicode="&#xb9;" horiz-adv-x="328" 
d="M252 362q-16 -3 -35 -6.5t-33 -3.5q-22 0 -35.5 7.5t-8.5 29.5q0 4 1 46t2 116q0 15 -0.5 31t-0.5 33q-8 -5 -17 -10t-26 -14q-22 12 -39.5 26.5t-21.5 41.5q20 26 31.5 34.5t22.5 14.5q3 2 8 4t10 5q6 5 11.5 8.5t9.5 8.5q17 14 33 24t36 5q9 -1 17.5 -9t16.5 -16
q2 -2 4.5 -5t4.5 -4l9 -16q0 -32 -3 -59q-1 -11 -2 -23t-2 -28q-1 -11 -1.5 -20.5t-1.5 -17.5q-2 -20 -3 -37.5t0 -39.5q1 -29 6 -54q2 -13 4 -30t3 -42z" />
    <glyph glyph-name="ordmasculine" unicode="&#xba;" horiz-adv-x="640" 
d="M584 638q38 -38 47 -86t-3.5 -97.5t-43.5 -96t-72 -80.5q-139 -113 -302 -41q-23 10 -41 21.5t-33 25t-28.5 29.5t-28.5 37q-10 13 -18 24.5t-14.5 23t-11 25.5t-6.5 33q-11 88 21 157t105 121q30 21 58 35t57.5 20t60.5 5t66 -10q34 -8 57.5 -22.5t43 -33t39.5 -41.5
t47 -49zM529 546q-6 24 -19.5 39t-32 25.5t-39.5 17.5l-42 14q-67 23 -130 11t-107 -68q-15 -18 -27.5 -36.5t-20.5 -37t-9.5 -38.5t7.5 -42q7 -19 20 -33t29.5 -24.5t35.5 -18t39 -14.5q34 -12 70.5 -13.5t70 7t63.5 27.5t52 48q13 18 24.5 34t18 32t6.5 33t-9 37z" />
    <glyph glyph-name="guillemotright" unicode="&#xbb;" horiz-adv-x="772" 
d="M746 456q1 -21 -9 -36t-25.5 -29t-34.5 -30t-36 -40q-26 -38 -54 -66.5t-60 -60.5q-58 -59 -90 -102t-37 -52q-10 -3 -15 -0.5t-9 7.5t-9 12t-14 13q-7 5 -16 18.5t-14 18.5q33 47 67 80.5t70 65t74 67.5t79 89q-30 33 -71 66t-81.5 64t-75 57.5t-50.5 45.5q-1 8 7 19
t19 23t22.5 25t16.5 24q10 -5 32 -22t48.5 -39t53.5 -44.5t47 -38.5q24 -20 41.5 -29.5t35 -20.5t38 -29.5t50.5 -55.5zM461 439q1 -21 -9 -36t-25.5 -29t-34.5 -30t-36 -40q-26 -38 -54 -66.5t-60 -60.5q-58 -59 -90 -102t-37 -52q-10 -3 -15 -0.5t-9 7.5t-9 12t-14 13
q-7 5 -16 18.5t-14 18.5q33 47 67 80.5t70 65t74 67.5t79 89q-30 33 -71 66t-81.5 64t-75 57.5t-50.5 45.5q-1 8 7 19t19 23t22.5 25t16.5 24q10 -5 32 -22t48.5 -39t53.5 -44.5t47 -38.5q24 -20 41.5 -29.5t35 -20.5t38 -29.5t50.5 -55.5z" />
    <glyph glyph-name="onequarter" unicode="&#xbc;" horiz-adv-x="848" 
d="M789 205q2 -15 -3.5 -24t-16.5 -19q0 -10 -0.5 -18.5t-0.5 -17.5q0 -24 2.5 -49t9.5 -53q-8 -5 -22.5 -11t-25.5 -6q-14 -2 -29 4t-19 9q-3 16 -3 39q0 11 0.5 22.5t1.5 22.5q1 19 3.5 24t-0.5 14q-14 -3 -25.5 -6t-22.5 -5q-19 -5 -41.5 -10t-55.5 -12q-23 4 -44.5 17
t-27.5 30q-5 14 -1.5 34t11.5 46q2 5 2.5 8.5t2.5 8.5q6 25 8.5 46t5.5 45q1 4 1.5 9t1.5 9q7 9 24.5 11.5t34.5 -0.5t28 -12.5t7 -24.5q-2 -9 -4.5 -21t-7.5 -23q-6 -17 -11.5 -36.5t-7.5 -37.5q34 5 65.5 12.5t56.5 14.5v30.5t-1 24.5q-1 12 -1.5 26.5t-0.5 28.5
q6 12 17.5 18t23.5 6t23.5 -4.5t18.5 -12.5q5 -18 6.5 -29t1.5 -19q0 -22 -3 -35q-1 -7 -2 -14.5t-1 -14.5q10 -8 15 -20t6 -25zM663 698q-9 -34 -26 -59.5t-39 -51.5t-48 -56.5t-52 -72.5q-22 -35 -40.5 -64t-36 -56.5t-35.5 -57t-37 -65.5q-18 -34 -30.5 -62t-24 -55
t-24 -55t-30.5 -63q-23 -2 -47.5 5t-42.5 20t-24.5 29.5t6.5 33.5q53 84 107 170q23 37 48 78t51 83.5t51 85.5t48 83q16 27 32.5 51.5t31.5 47.5t26.5 45t16.5 44q6 22 28.5 22t46 -12t38.5 -31.5t6 -36.5zM252 362q-16 -3 -35 -6.5t-33 -3.5q-22 0 -35.5 7.5t-8.5 29.5
q0 4 1 46t2 116q0 15 -0.5 31t-0.5 33q-8 -5 -17 -10t-26 -14q-22 12 -39.5 26.5t-21.5 41.5q20 26 31.5 34.5t22.5 14.5q3 2 8 4t10 5q6 5 11.5 8.5t9.5 8.5q17 14 33 24t36 5q9 -1 17.5 -9t16.5 -16q2 -2 4.5 -5t4.5 -4l9 -16q0 -32 -3 -59q-1 -11 -2 -23t-2 -28
q-1 -11 -1.5 -20.5t-1.5 -17.5q-2 -20 -3 -37.5t0 -39.5q1 -29 6 -54q2 -13 4 -30t3 -42z" />
    <glyph glyph-name="onehalf" unicode="&#xbd;" horiz-adv-x="892" 
d="M838 61q0 -17 -7 -30t-24 -13h-20q-17 0 -37.5 -0.5t-55.5 -4.5q-32 -4 -54 -8.5t-37 -8.5q-25 -7 -40 -7.5t-26 13.5q-13 15 -20 29.5t-7 29.5q0 32 32 49h-1q26 13 55 33.5t46 34.5q5 4 10.5 8t10.5 8q26 19 44.5 34.5t37.5 41.5q-2 2 -5.5 4t-5.5 4t-1.5 0.5t-0.5 0.5
q-8 -1 -14 -1h-14q-32 -2 -63 -4t-60 -19q-2 -3 -9 -10.5t-17 -12.5t-22.5 -3t-24.5 19q-2 7 -2.5 11t-2.5 8q-7 15 -10 32.5t9 37.5l33 19q37 12 72 16.5t71 4.5q26 0 51.5 -1.5t51.5 -5.5q14 -2 26 -13t20 -27.5t11 -35t-2 -35.5v1q-6 -21 -18.5 -40t-29 -35.5t-35 -31
t-35.5 -26.5q-6 -11 -20 -20l15 3q28 5 55 7.5t47 0.5q9 -6 16 -23.5t7 -33.5zM663 698q-9 -34 -26 -59.5t-39 -51.5t-48 -56.5t-52 -72.5q-22 -35 -40.5 -64t-36 -56.5t-35.5 -57t-37 -65.5q-18 -34 -30.5 -62t-24 -55t-24 -55t-30.5 -63q-23 -2 -47.5 5t-42.5 20
t-24.5 29.5t6.5 33.5q53 84 107 170q23 37 48 78t51 83.5t51 85.5t48 83q16 27 32.5 51.5t31.5 47.5t26.5 45t16.5 44q6 22 28.5 22t46 -12t38.5 -31.5t6 -36.5zM252 362q-16 -3 -35 -6.5t-33 -3.5q-22 0 -35.5 7.5t-8.5 29.5q0 4 1 46t2 116q0 15 -0.5 31t-0.5 33
q-8 -5 -17 -10t-26 -14q-22 12 -39.5 26.5t-21.5 41.5q20 26 31.5 34.5t22.5 14.5q3 2 8 4t10 5q6 5 11.5 8.5t9.5 8.5q17 14 33 24t36 5q9 -1 17.5 -9t16.5 -16q2 -2 4.5 -5t4.5 -4l9 -16q0 -32 -3 -59q-1 -11 -2 -23t-2 -28q-1 -11 -1.5 -20.5t-1.5 -17.5q-2 -20 -3 -37.5
t0 -39.5q1 -29 6 -54q2 -13 4 -30t3 -42z" />
    <glyph glyph-name="threequarters" unicode="&#xbe;" horiz-adv-x="927" 
d="M876 205q2 -15 -3.5 -24t-16.5 -19q0 -10 -0.5 -18.5t-0.5 -17.5q0 -24 2.5 -49t9.5 -53q-8 -5 -22.5 -11t-25.5 -6q-14 -2 -29 4t-19 9q-3 16 -3 39q0 11 0.5 22.5t1.5 22.5q1 19 3.5 24t-0.5 14q-14 -3 -25.5 -6t-22.5 -5q-19 -5 -41.5 -10t-55.5 -12q-23 4 -44.5 17
t-27.5 30q-5 14 -1.5 34t11.5 46q2 5 2.5 8.5t2.5 8.5q6 25 8.5 46t5.5 45q1 4 1.5 9t1.5 9q7 9 24.5 11.5t34.5 -0.5t28 -12.5t7 -24.5q-2 -9 -4.5 -21t-7.5 -23q-6 -17 -11.5 -36.5t-7.5 -37.5q34 5 65.5 12.5t56.5 14.5v30.5t-1 24.5q-1 12 -1.5 26.5t-0.5 28.5
q6 12 17.5 18t23.5 6t23.5 -4.5t18.5 -12.5q5 -18 6.5 -29t1.5 -19q0 -22 -3 -35q-1 -7 -2 -14.5t-1 -14.5q10 -8 15 -20t6 -25zM762 706q-9 -34 -26 -59.5t-39 -51.5t-48 -56.5t-52 -72.5q-22 -35 -40.5 -64t-36 -56.5t-35.5 -57t-37 -65.5q-18 -34 -30.5 -62t-24 -55
t-24 -55t-30.5 -63q-23 -2 -47.5 5t-42.5 20t-24.5 29.5t6.5 33.5q53 84 107 170q23 37 48 78t51 83.5t51 85.5t48 83q16 27 32.5 51.5t31.5 47.5t26.5 45t16.5 44q6 22 28.5 22t46 -12t38.5 -31.5t6 -36.5zM435 534q0 -29 -18.5 -50.5t-44.5 -41.5q-70 -52 -185 -56
q-14 0 -30 1t-29 6t-21 15t-6 28q1 10 3 21t8 18.5t16 11.5t27 1q12 -2 22.5 -3.5t20.5 -1.5q38 0 89 17q50 17 50 26q0 3 -9 12q-14 11 -34 11q-11 0 -28.5 -3t-40.5 -8l1 1q-5 -2 -11.5 -3t-12.5 -3q-29 -6 -44 3t-21 31v-1q-3 10 -4.5 20.5t2 19t13 15.5t28.5 10
q14 2 25.5 4t22.5 4t22 5.5t25 8.5h-1q5 2 13.5 7.5t16 11t12 10.5t1.5 7q-5 5 -20 9t-38 4q-20 0 -45 -5t-47 -17l-6 -3q-2 -1 -3 -2l2 1q-11 -6 -23 -11t-22.5 -5.5t-19.5 6.5t-13 26l1 -5q-3 6 -5.5 16.5t-2.5 22.5t2.5 23t10.5 17q19 2 30.5 5t25.5 6q14 4 31 8.5
t36 6.5q4 1 9 1t8 1q16 3 31 5t32 2q26 0 50.5 -7.5t50.5 -29.5q17 -13 21.5 -40.5t-3.5 -50.5q-6 -17 -17 -29t-22 -22q20 -8 37 -19.5t26 -34.5q4 -9 4.5 -17.5t0.5 -16.5z" />
    <glyph glyph-name="questiondown" unicode="&#xbf;" horiz-adv-x="846" 
d="M765 805q5 -26 3.5 -49.5t-11.5 -42.5t-30.5 -32.5t-53.5 -17.5q-42 -5 -71.5 15t-43.5 59q-11 52 12 85.5t72 41.5q45 8 80 -6.5t43 -52.5zM783 94q-16 -21 -39.5 -39t-51.5 -33t-60 -26.5t-65 -20.5q-53 -8 -109 -13t-111.5 -2.5t-106.5 14t-92.5 36.5t-71.5 65
t-42 100q9 51 39.5 88.5t74.5 64t98.5 43t112.5 26.5t117 14t111 6q15 17 16 39t3 40.5t12.5 30t44.5 7.5q22 4 36 0t23.5 -12.5t16 -21t12.5 -25.5q-8 -27 -7 -55t-1 -53t-14 -45.5t-46 -33.5q-65 19 -146 22.5t-157 -10t-134.5 -43.5t-78.5 -79q28 -37 65.5 -60.5
t81.5 -35.5t92.5 -11.5t99.5 11.5q28 6 51.5 17t45 23t41.5 24.5t41 21.5q12 -5 24 -10.5t25 -13t25 -19.5t24 -31z" />
    <glyph glyph-name="Agrave" unicode="&#xc0;" horiz-adv-x="753" 
d="M380 845q14 -9 11.5 -25t-14.5 -29.5t-29.5 -19.5t-32.5 3q-27 17 -57 30t-52 23q-23 10 -49 15.5t-47.5 12t-33 17t-5.5 31.5q11 34 31 50t61 6q38 -9 70 -23.5t59 -31t48.5 -32.5t39.5 -27zM746 59q8 -11 -7 -26.5t-38 -27.5t-46.5 -17t-30.5 5q-22 29 -36.5 55.5
t-27.5 51t-28 47.5t-38 46q-31 -10 -77 -18.5t-94.5 -16.5t-93 -14.5t-73.5 -12.5q-11 -15 -17 -30t-11 -30.5t-10 -32t-14 -34.5q-6 -14 -26.5 -17t-41.5 1.5t-36 14.5t-11 21q14 42 26 73.5t24.5 60.5t27 60t32.5 74q26 61 47.5 116t43 106t45 99t53.5 96q3 6 17.5 9.5
t30.5 4t30 -1.5t17 -7q44 -83 84 -166.5t82 -166t90 -163.5t107 -159zM439 326q-18 24 -33.5 53.5t-29.5 59t-27.5 57t-27.5 49.5q-12 -22 -32.5 -53.5t-40 -68.5t-34.5 -76.5t-17 -77.5q40 -2 73 5.5l77 17.5q14 3 30 8.5t30 11.5q16 6 32 14z" />
    <glyph glyph-name="Aacute" unicode="&#xc1;" horiz-adv-x="740" 
d="M552 902q9 -17 3.5 -34.5t-18.5 -20.5q-24 -6 -45 -11t-40.5 -10.5t-39.5 -12t-43 -14.5q-21 -7 -39.5 -16.5t-35 -16.5t-31.5 -7.5t-28 10.5q-23 20 -20.5 43.5t28.5 43.5q34 26 65 42t60.5 26t58 16t57.5 11q26 5 40 -8t28 -41zM746 59q8 -11 -7 -26.5t-38 -27.5
t-46.5 -17t-30.5 5q-22 29 -36.5 55.5t-27.5 51t-28 47.5t-38 46q-31 -10 -77 -18.5t-94.5 -16.5t-93 -14.5t-73.5 -12.5q-11 -15 -17 -30t-11 -30.5t-10 -32t-14 -34.5q-6 -14 -26.5 -17t-41.5 1.5t-36 14.5t-11 21q14 42 26 73.5t24.5 60.5t27 60t32.5 74q26 61 47.5 116
t43 106t45 99t53.5 96q3 6 17.5 9.5t30.5 4t30 -1.5t17 -7q44 -83 84 -166.5t82 -166t90 -163.5t107 -159zM439 326q-18 24 -33.5 53.5t-29.5 59t-27.5 57t-27.5 49.5q-12 -22 -32.5 -53.5t-40 -68.5t-34.5 -76.5t-17 -77.5q40 -2 73 5.5l77 17.5q14 3 30 8.5t30 11.5
q16 6 32 14z" />
    <glyph glyph-name="Acircumflex" unicode="&#xc2;" horiz-adv-x="740" 
d="M547 809q10 -8 5.5 -22.5t-16 -29t-26 -23.5t-25.5 -6q-17 5 -35.5 16t-40 24.5t-45.5 28t-51 25.5q-47 -27 -91 -60t-103 -67q-20 -11 -37.5 -5t-28.5 19.5t-14 29.5t6 25q5 4 36.5 19.5t71.5 41.5q23 15 44.5 27.5t44.5 27.5q16 10 28.5 20t24 17t23.5 9t26 -3
q17 -6 45 -22.5t60 -35.5q13 -8 28.5 -16.5t29.5 -16t24.5 -13.5t15.5 -10zM746 59q8 -11 -7 -26.5t-38 -27.5t-46.5 -17t-30.5 5q-22 29 -36.5 55.5t-27.5 51t-28 47.5t-38 46q-31 -10 -77 -18.5t-94.5 -16.5t-93 -14.5t-73.5 -12.5q-11 -15 -17 -30t-11 -30.5t-10 -32
t-14 -34.5q-6 -14 -26.5 -17t-41.5 1.5t-36 14.5t-11 21q14 42 26 73.5t24.5 60.5t27 60t32.5 74q26 61 47.5 116t43 106t45 99t53.5 96q3 6 17.5 9.5t30.5 4t30 -1.5t17 -7q44 -83 84 -166.5t82 -166t90 -163.5t107 -159zM439 326q-18 24 -33.5 53.5t-29.5 59t-27.5 57
t-27.5 49.5q-12 -22 -32.5 -53.5t-40 -68.5t-34.5 -76.5t-17 -77.5q40 -2 73 5.5l77 17.5q14 3 30 8.5t30 11.5q16 6 32 14z" />
    <glyph glyph-name="Atilde" unicode="&#xc3;" horiz-adv-x="753" 
d="M574 885q-3 -18 -21 -40.5t-44 -42.5t-55 -34.5t-53 -17.5q-26 -3 -48 8.5t-42 26t-38.5 26.5t-35.5 9q-23 -4 -38 -17t-27 -26.5t-23.5 -22t-26.5 -2.5q-11 4 -20.5 13.5t-15 21t-4.5 23.5t10 21q18 18 34.5 31.5t33.5 25.5t36.5 23.5t44.5 24.5q12 6 31.5 -2
t41.5 -21.5t44 -28.5t38 -23q15 -8 34 -0.5t38.5 20t36 27t25.5 22.5q5 4 13.5 3.5t16 -5.5t12.5 -16t2 -27zM746 59q8 -11 -7 -26.5t-38 -27.5t-46.5 -17t-30.5 5q-22 29 -36.5 55.5t-27.5 51t-28 47.5t-38 46q-31 -10 -77 -18.5t-94.5 -16.5t-93 -14.5t-73.5 -12.5
q-11 -15 -17 -30t-11 -30.5t-10 -32t-14 -34.5q-6 -14 -26.5 -17t-41.5 1.5t-36 14.5t-11 21q14 42 26 73.5t24.5 60.5t27 60t32.5 74q26 61 47.5 116t43 106t45 99t53.5 96q3 6 17.5 9.5t30.5 4t30 -1.5t17 -7q44 -83 84 -166.5t82 -166t90 -163.5t107 -159zM439 326
q-18 24 -33.5 53.5t-29.5 59t-27.5 57t-27.5 49.5q-12 -22 -32.5 -53.5t-40 -68.5t-34.5 -76.5t-17 -77.5q40 -2 73 5.5l77 17.5q14 3 30 8.5t30 11.5q16 6 32 14z" />
    <glyph glyph-name="Adieresis" unicode="&#xc4;" horiz-adv-x="753" 
d="M542 838q0 -31 -16.5 -55t-50.5 -24q-35 0 -59.5 18.5t-24.5 53.5q0 10 4 23.5t11 25.5t17.5 20.5t22.5 8.5q18 0 35 -4t30.5 -13t22 -22.5t8.5 -31.5zM280 833q0 -15 -4 -30t-12.5 -27t-21 -19.5t-29.5 -7.5q-37 0 -60.5 20.5t-23.5 57.5q0 32 21 55t56 23t54.5 -17.5
t19.5 -54.5zM746 59q8 -11 -7 -26.5t-38 -27.5t-46.5 -17t-30.5 5q-22 29 -36.5 55.5t-27.5 51t-28 47.5t-38 46q-31 -10 -77 -18.5t-94.5 -16.5t-93 -14.5t-73.5 -12.5q-11 -15 -17 -30t-11 -30.5t-10 -32t-14 -34.5q-6 -14 -26.5 -17t-41.5 1.5t-36 14.5t-11 21
q14 42 26 73.5t24.5 60.5t27 60t32.5 74q26 61 47.5 116t43 106t45 99t53.5 96q3 6 17.5 9.5t30.5 4t30 -1.5t17 -7q44 -83 84 -166.5t82 -166t90 -163.5t107 -159zM439 326q-18 24 -33.5 53.5t-29.5 59t-27.5 57t-27.5 49.5q-12 -22 -32.5 -53.5t-40 -68.5t-34.5 -76.5
t-17 -77.5q40 -2 73 5.5l77 17.5q14 3 30 8.5t30 11.5q16 6 32 14z" />
    <glyph glyph-name="Aring" unicode="&#xc5;" horiz-adv-x="753" 
d="M746 59q8 -11 -7 -26.5t-38 -27.5t-46.5 -17t-30.5 5q-22 29 -36.5 55.5t-27.5 51t-28 47.5t-38 46q-31 -10 -77 -18.5t-94.5 -16.5t-93 -14.5t-73.5 -12.5q-11 -15 -17 -30t-11 -30.5t-10 -32t-14 -34.5q-6 -14 -26.5 -17t-41.5 1.5t-36 14.5t-11 21q14 42 26 73.5
t24.5 60.5t27 60t32.5 74q22 51 40 97t35.5 89t36 84t39.5 81q-48 4 -88 32q-29 21 -37.5 50t-1.5 63q8 44 42.5 76.5t86.5 43.5q23 4 49 8t52.5 5t52 -1.5t46.5 -11.5q36 -14 52 -37t18 -45q7 -61 -23 -99t-91 -61q39 -77 76.5 -154.5t77 -154t84.5 -151.5t100 -147z
M417 821q-45 8 -92 7t-92 -21q-41 -20 -47.5 -42.5t13.5 -29.5q17 -6 38.5 -6.5t43.5 1.5t43 5.5t37 6.5q19 3 41.5 13.5t35.5 23.5t11 25t-32 17zM439 326q-18 24 -33.5 53.5t-29.5 59t-27.5 57t-27.5 49.5q-12 -22 -32.5 -53.5t-40 -68.5t-34.5 -76.5t-17 -77.5
q40 -2 73 5.5l77 17.5q14 3 30 8.5t30 11.5q16 6 32 14z" />
    <glyph glyph-name="AE" unicode="&#xc6;" horiz-adv-x="1055" 
d="M1012 808q1 -10 2 -27.5t-0.5 -35.5t-6 -32.5t-13.5 -17.5q-43 -14 -105.5 -24t-128 -20.5t-126.5 -23t-101 -30.5q-5 -21 -2.5 -37.5t4.5 -36.5q2 -25 8.5 -51t25.5 -33q43 8 97.5 23t112 30.5t113.5 27.5t102 15q11 1 15 -17t2.5 -41t-8 -44.5t-16.5 -28.5
q-19 -14 -46.5 -19t-54.5 -13q-39 -10 -81.5 -16.5t-83 -14.5t-75 -20t-56.5 -32q-6 -12 -6 -35q10 -33 20.5 -65.5t22.5 -64.5q43 8 85.5 22.5t86.5 30t91.5 28t102.5 15.5q13 1 17 -19t1 -45t-12.5 -46t-23.5 -22q-68 -5 -126.5 -24.5t-108 -40t-89.5 -34.5t-72 -7
q-7 -2 -19 8.5t-24 24t-21.5 26.5t-10.5 16q-14 32 -18.5 51.5t-8.5 34.5t-10.5 30.5t-22.5 40.5q-34 -11 -82.5 -20.5t-99 -18t-97.5 -16t-77 -13.5q-16 -17 -27.5 -33t-21 -33.5t-19.5 -36t-22 -39.5q-12 -14 -33.5 -17t-40.5 1.5t-30.5 15t-4.5 23.5q27 47 48 81.5
t42 66.5t44.5 67t54.5 82q45 68 82.5 126.5t73.5 112t73 105t80 105.5q3 1 9.5 3t14.5 4t16.5 3.5t15.5 1.5q11 0 22 -2.5t18 -4.5q3 -16 8 -24.5t8 -24.5q59 10 129.5 27.5t140.5 32t133.5 22t109.5 -2.5zM428 362q-11 27 -17.5 59.5t-11.5 65.5t-10.5 64t-12.5 55
q-19 -24 -48.5 -59.5t-60 -76.5t-57.5 -85t-40 -86q39 -3 74 5.5t82 19.5q15 3 32.5 9.5t33.5 12.5q18 7 36 16z" />
    <glyph glyph-name="Ccedilla" unicode="&#xc7;" horiz-adv-x="800" 
d="M750 683q8 -7 6 -19t-11 -25.5t-22.5 -27t-27.5 -22t-27 -11.5t-21 5q-12 12 -30 24.5t-41.5 22.5t-53.5 14.5t-67 0.5q-55 -6 -107.5 -22t-97.5 -44t-78 -69t-49 -97q-11 -40 -2.5 -86t51.5 -91q37 -39 97 -54t128 -9t135.5 31.5t120.5 69.5q12 9 22.5 10t20 -3.5
t18.5 -13t17 -16.5q7 -7 13 -18t7 -23t-3.5 -24t-17.5 -21q-26 -19 -60 -36.5t-73 -32.5t-81 -26.5t-84 -17.5q-5 -8 -10 -15t-7 -13q-3 -8 4 -14t16.5 -10t18.5 -6.5t12 -3.5q42 -17 54 -40.5t3 -47.5t-34 -43.5t-57 -26.5q-23 -5 -47.5 -10t-48 -8t-42.5 -2.5t-30 6.5
q-13 7 -19 17.5t-5.5 20.5t7.5 17.5t20 7.5q58 1 90 12.5t20 31.5q-7 11 -27.5 18.5t-43.5 15.5q-10 3 -21.5 15.5t-3.5 32.5q4 11 8 21t9 20q-8 1 -15 2t-14 3q-46 10 -80 27.5t-58.5 42t-42.5 56.5t-33 72q-18 48 -22.5 96.5t4.5 95t31 88.5t58 76q43 41 90 74.5t97.5 56
t104.5 32.5t113 5q42 -3 72 -10t54 -18t45.5 -27t47.5 -37z" />
    <glyph glyph-name="Egrave" unicode="&#xc8;" horiz-adv-x="650" 
d="M408 827q14 -9 11.5 -23.5t-14.5 -27t-29 -18.5t-32 3q-26 16 -56 28t-52 21t-48 14.5t-47 11.5t-32.5 16t-5.5 29q11 32 30.5 47t60.5 5q37 -8 68.5 -22t58 -29t48.5 -30t39 -25zM587 726q9 -3 12.5 -18t2 -32t-7.5 -32t-15 -18q-43 -13 -96 -23t-108 -20t-108.5 -22
t-96.5 -28q-3 -8 -5.5 -26.5t-3.5 -40.5t1 -42.5t7 -32.5q44 7 96.5 21t107 29t107.5 26.5t99 14.5q11 0 15 -16t2.5 -36.5t-8 -40t-16.5 -25.5q-19 -12 -46.5 -17.5t-54.5 -11.5q-39 -9 -80.5 -18t-81.5 -17.5t-76.5 -17t-64.5 -17.5q-8 -11 -12.5 -33t-5.5 -46.5t0 -47
t4 -34.5q48 5 98.5 19.5t103.5 30t108.5 28.5t113.5 16q13 1 17 -17t1 -40.5t-12.5 -41.5t-23.5 -20q-42 -4 -95 -18t-108.5 -30.5t-110.5 -31.5t-103 -22q-14 -2 -27 -3.5t-24 -1t-20 5t-15 15.5q-5 9 -5.5 20.5t0.5 23.5t3 24t3 23q4 56 3 109.5t-2 97.5q-1 78 -2 131
t-1 97q-9 7 -16 24.5t-5.5 36.5t13.5 36t40 24q56 14 126 33.5t139.5 35t131.5 22.5t102 -5z" />
    <glyph glyph-name="Eacute" unicode="&#xc9;" horiz-adv-x="650" 
d="M552 902q9 -17 3.5 -34.5t-18.5 -20.5q-24 -6 -45 -11t-40.5 -10.5t-39.5 -12t-43 -14.5q-21 -7 -39.5 -16.5t-35 -16.5t-31.5 -7.5t-28 10.5q-23 20 -20.5 43.5t28.5 43.5q34 26 65 42t60.5 26t58 16t57.5 11q26 5 40 -8t28 -41zM587 726q9 -3 12.5 -18t2 -32t-7.5 -32
t-15 -18q-43 -13 -96 -23t-108 -20t-108.5 -22t-96.5 -28q-3 -8 -5.5 -26.5t-3.5 -40.5t1 -42.5t7 -32.5q44 7 96.5 21t107 29t107.5 26.5t99 14.5q11 0 15 -16t2.5 -36.5t-8 -40t-16.5 -25.5q-19 -12 -46.5 -17.5t-54.5 -11.5q-39 -9 -80.5 -18t-81.5 -17.5t-76.5 -17
t-64.5 -17.5q-8 -11 -12.5 -33t-5.5 -46.5t0 -47t4 -34.5q48 5 98.5 19.5t103.5 30t108.5 28.5t113.5 16q13 1 17 -17t1 -40.5t-12.5 -41.5t-23.5 -20q-42 -4 -95 -18t-108.5 -30.5t-110.5 -31.5t-103 -22q-14 -2 -27 -3.5t-24 -1t-20 5t-15 15.5q-5 9 -5.5 20.5t0.5 23.5
t3 24t3 23q4 56 3 109.5t-2 97.5q-1 78 -2 131t-1 97q-9 7 -16 24.5t-5.5 36.5t13.5 36t40 24q56 14 126 33.5t139.5 35t131.5 22.5t102 -5z" />
    <glyph glyph-name="Ecircumflex" unicode="&#xca;" horiz-adv-x="650" 
d="M569 853q9 -8 4.5 -22.5t-16 -29t-26 -23.5t-25.5 -6q-17 5 -35.5 16t-40 24.5t-45 27.5t-50.5 26q-48 -27 -92 -60t-103 -67q-19 -11 -36.5 -5t-29 19.5t-14.5 29.5t6 25q5 4 36.5 19t71.5 41q23 15 44.5 27.5t44.5 27.5q16 11 29 21t24.5 16.5t23 8.5t25.5 -3
q17 -5 45 -21.5t60 -36.5q13 -8 28.5 -16t29.5 -15.5t25 -13.5t16 -10zM587 726q9 -3 12.5 -18t2 -32t-7.5 -32t-15 -18q-43 -13 -96 -23t-108 -20t-108.5 -22t-96.5 -28q-3 -8 -5.5 -26.5t-3.5 -40.5t1 -42.5t7 -32.5q44 7 96.5 21t107 29t107.5 26.5t99 14.5q11 0 15 -16
t2.5 -36.5t-8 -40t-16.5 -25.5q-19 -12 -46.5 -17.5t-54.5 -11.5q-39 -9 -80.5 -18t-81.5 -17.5t-76.5 -17t-64.5 -17.5q-8 -11 -12.5 -33t-5.5 -46.5t0 -47t4 -34.5q48 5 98.5 19.5t103.5 30t108.5 28.5t113.5 16q13 1 17 -17t1 -40.5t-12.5 -41.5t-23.5 -20
q-42 -4 -95 -18t-108.5 -30.5t-110.5 -31.5t-103 -22q-14 -2 -27 -3.5t-24 -1t-20 5t-15 15.5q-5 9 -5.5 20.5t0.5 23.5t3 24t3 23q4 56 3 109.5t-2 97.5q-1 78 -2 131t-1 97q-9 7 -16 24.5t-5.5 36.5t13.5 36t40 24q56 14 126 33.5t139.5 35t131.5 22.5t102 -5z" />
    <glyph glyph-name="Edieresis" unicode="&#xcb;" horiz-adv-x="650" 
d="M527 848q2 -31 -13.5 -55.5t-49.5 -26.5q-35 -2 -60 15.5t-27 52.5q0 10 3 23.5t10 26t16.5 21.5t21.5 10q18 1 35.5 -2.5t31.5 -12t22.5 -21.5t9.5 -31zM266 831q1 -15 -2.5 -30t-11 -27.5t-20 -20.5t-29.5 -9q-37 -2 -61.5 17.5t-26.5 56.5q-2 32 18 56t56 26
q35 2 55 -15t22 -54zM587 726q9 -3 12.5 -18t2 -32t-7.5 -32t-15 -18q-43 -13 -96 -23t-108 -20t-108.5 -22t-96.5 -28q-3 -8 -5.5 -26.5t-3.5 -40.5t1 -42.5t7 -32.5q44 7 96.5 21t107 29t107.5 26.5t99 14.5q11 0 15 -16t2.5 -36.5t-8 -40t-16.5 -25.5
q-19 -12 -46.5 -17.5t-54.5 -11.5q-39 -9 -80.5 -18t-81.5 -17.5t-76.5 -17t-64.5 -17.5q-8 -11 -12.5 -33t-5.5 -46.5t0 -47t4 -34.5q48 5 98.5 19.5t103.5 30t108.5 28.5t113.5 16q13 1 17 -17t1 -40.5t-12.5 -41.5t-23.5 -20q-42 -4 -95 -18t-108.5 -30.5t-110.5 -31.5
t-103 -22q-14 -2 -27 -3.5t-24 -1t-20 5t-15 15.5q-5 9 -5.5 20.5t0.5 23.5t3 24t3 23q4 56 3 109.5t-2 97.5q-1 78 -2 131t-1 97q-9 7 -16 24.5t-5.5 36.5t13.5 36t40 24q56 14 126 33.5t139.5 35t131.5 22.5t102 -5z" />
    <glyph glyph-name="Igrave" unicode="&#xcc;" horiz-adv-x="302" 
d="M207 840q10 -10 8.5 -26.5t-10 -30.5t-21.5 -21t-24 3q-19 18 -41 31.5t-38 24.5q-17 10 -36 16t-34.5 13t-24 18t-3.5 33q8 36 22.5 53t44.5 6q27 -9 50.5 -24.5t43 -33t35 -34t28.5 -28.5zM209 31q0 -17 -19.5 -24.5t-43 -7.5t-41.5 8t-15 24l2 172q1 74 2 158t2 156
q0 24 -1 50t-2 49t0 41t5 27t19.5 16.5t33 11.5t32.5 1t20 -15q9 -28 10.5 -58t-0.5 -62t-6 -67.5t-6 -73.5q-2 -32 -4 -57.5t-3.5 -50.5t-2.5 -51t0 -58q1 -30 3.5 -52t5.5 -42t5.5 -42t3.5 -53z" />
    <glyph glyph-name="Iacute" unicode="&#xcd;" horiz-adv-x="302" 
d="M348 921q7 -19 3 -37.5t-13 -21.5q-17 -6 -32 -11.5t-29 -11.5t-28 -12.5t-30 -15.5q-15 -8 -28 -18.5t-25 -17t-23 -7.5t-20 11q-17 21 -15 46t21 47q24 27 46 44.5t43 28t41 16.5t41 12q19 5 28.5 -8.5t19.5 -43.5zM209 31q0 -17 -19.5 -24.5t-43 -7.5t-41.5 8t-15 24
l2 172q1 74 2 158t2 156q0 24 -1 50t-2 49t0 41t5 27t19.5 16.5t33 11.5t32.5 1t20 -15q9 -28 10.5 -58t-0.5 -62t-6 -67.5t-6 -73.5q-2 -32 -4 -57.5t-3.5 -50.5t-2.5 -51t0 -58q1 -30 3.5 -52t5.5 -42t5.5 -42t3.5 -53z" />
    <glyph glyph-name="Icircumflex" unicode="&#xce;" horiz-adv-x="302" 
d="M315 826q6 -8 3 -23t-11 -29.5t-18 -24t-17 -6.5q-12 6 -25 17t-28 25t-32 28.5t-35 26.5q-33 -28 -64 -62t-72 -69q-13 -12 -25 -5.5t-20 20.5t-10.5 30.5t4.5 25.5q3 4 25 19.5t50 43.5q16 15 31 28t31 28q11 11 20 21.5t17 17.5t16 9t18 -3q12 -6 31.5 -23t42.5 -37
q18 -17 39.5 -33.5t28.5 -24.5zM209 31q0 -17 -19.5 -24.5t-43 -7.5t-41.5 8t-15 24l2 172q1 74 2 158t2 156q0 24 -1 50t-2 49t0 41t5 27t19.5 16.5t33 11.5t32.5 1t20 -15q9 -28 10.5 -58t-0.5 -62t-6 -67.5t-6 -73.5q-2 -32 -4 -57.5t-3.5 -50.5t-2.5 -51t0 -58
q1 -30 3.5 -52t5.5 -42t5.5 -42t3.5 -53z" />
    <glyph glyph-name="Idieresis" unicode="&#xcf;" horiz-adv-x="302" 
d="M315 854q0 -34 -12.5 -60.5t-38.5 -26.5t-44.5 20t-18.5 59q0 11 3 25.5t8.5 28t13.5 23t17 9.5q27 0 49.5 -18.5t22.5 -59.5zM118 848q0 -17 -3 -33t-9 -29.5t-15.5 -21.5t-22.5 -8q-28 0 -45.5 22.5t-17.5 63.5q0 35 15.5 60.5t42.5 25.5q26 0 40.5 -19t14.5 -61z
M209 31q0 -17 -19.5 -24.5t-43 -7.5t-41.5 8t-15 24l2 172q1 74 2 158t2 156q0 24 -1 50t-2 49t0 41t5 27t19.5 16.5t33 11.5t32.5 1t20 -15q9 -28 10.5 -58t-0.5 -62t-6 -67.5t-6 -73.5q-2 -32 -4 -57.5t-3.5 -50.5t-2.5 -51t0 -58q1 -30 3.5 -52t5.5 -42t5.5 -42t3.5 -53z
" />
    <glyph glyph-name="Eth" unicode="&#xd0;" horiz-adv-x="905" 
d="M865 444q-10 -37 -22.5 -65.5t-29.5 -53.5t-38.5 -49.5t-49.5 -54.5q-56 -60 -115 -101.5t-124.5 -69.5t-139.5 -44t-160 -26q-26 -3 -40.5 11.5t-12.5 46.5q1 27 2 51.5t1.5 49.5t1.5 51.5t1 57.5q-8 -1 -15.5 -4t-16.5 -6t-18.5 -5t-19.5 -1q-17 -1 -28 8t-16.5 25
t-4.5 39t8 51q2 7 7.5 13t10.5 10q6 4 14 8q26 2 43 7.5t37 6.5v116q-11 11 -12.5 35.5t0.5 50.5q3 30 10 65q46 33 97.5 52t108.5 30t120.5 17t134.5 13q33 3 63 5t57.5 -2t52 -15.5t47.5 -33.5q17 -17 30 -31t16 -35q4 -28 8 -54t5 -53t-1.5 -55.5t-11.5 -60.5zM724 640
q-123 10 -236 -8t-234 -64q-6 -16 -11 -36.5t-8 -41.5t-5 -41t-3 -35q14 3 29 10t32 12q13 2 27.5 0t28 -8.5t24.5 -17t17 -25.5q6 -17 4 -36t-10.5 -35t-22 -27t-29.5 -12q-30 -2 -53 -6.5t-43 -6.5q1 -15 2 -25.5t1 -21t-0.5 -22t-1.5 -28.5q38 -9 77.5 -6.5t80 14.5
t82 32.5t84.5 46.5q22 13 43.5 25t40.5 24.5t35 26.5t28 33q53 84 60 157.5t-39 121.5z" />
    <glyph glyph-name="Ntilde" unicode="&#xd1;" horiz-adv-x="847" 
d="M693 864q-3 -18 -23.5 -41t-49 -43.5t-60.5 -35t-59 -17.5q-29 -3 -53.5 9t-47 26.5t-42.5 26.5t-39 9q-25 -4 -42 -17t-30.5 -26.5t-26.5 -22.5t-29 -3q-12 4 -23 13.5t-16.5 21.5t-5 24t11.5 21q20 18 38 32.5t37 26.5t40.5 23.5t49.5 24.5q13 6 35 -2t47 -21.5t49 -29
t42 -23.5q16 -8 37.5 -0.5t42.5 20.5t39.5 27.5t29.5 22.5q6 4 15 4t17.5 -5.5t13.5 -16.5t2 -28zM789 694q-1 -48 -7.5 -99t-11.5 -113q-5 -66 -4.5 -123t4 -110.5t8.5 -104.5t8 -104q1 -18 -12 -28.5t-32 -14t-39 0t-33 14.5q-47 39 -87 74t-77 67.5t-73 64t-76 65.5
q-10 8 -31 24.5t-44.5 33t-45.5 29.5t-34 16q-6 -36 -9 -61.5t-4.5 -49.5t-1.5 -51t1 -66q1 -25 1.5 -42.5t2 -34t3 -35t4.5 -45.5q2 -20 -17 -29.5t-42 -10t-43 8.5t-21 27q-3 67 1 115.5t10 93.5t10.5 95.5t1.5 123.5q-1 28 -5 56t-8 53.5t-6.5 49t-0.5 44.5q1 13 19 22
t40.5 13.5t43 4.5t26.5 -4q25 -20 49 -56.5t53 -73.5q41 -51 77 -86t75 -63.5t84.5 -57.5t105.5 -68q3 37 5 67t3.5 58.5t1.5 60v72.5q-1 43 -6 87t-3 87q1 18 22.5 26t46.5 8t46 -8t21 -23z" />
    <glyph glyph-name="Ograve" unicode="&#xd2;" horiz-adv-x="888" 
d="M528 817q15 -10 12 -27t-15 -31.5t-30 -21.5t-33 3q-27 18 -57.5 32.5t-53.5 25.5t-49 17t-47.5 13t-33.5 18.5t-6 34.5q10 37 31 54t62 7q38 -10 70.5 -26t60 -34t49.5 -35t40 -30zM819 529q36 -74 26.5 -139t-54.5 -139q-39 -65 -83.5 -107.5t-95 -70t-106.5 -43
t-118 -25.5q-53 -9 -105 -1.5t-97 27t-80.5 50t-56.5 66.5q-45 78 -39.5 165.5t70.5 177.5q30 42 70 79.5t87.5 66t102.5 45t116 16.5q65 0 121 -8t102 -27t81 -51.5t59 -81.5zM742 453q-4 21 -25.5 38t-53.5 31t-71 23.5t-76 15.5q-48 7 -104.5 1.5t-110.5 -26.5t-100 -60
t-73 -100q-12 -26 -15.5 -56.5t2.5 -59t23 -52t48 -36.5q53 -23 111 -31.5t116 -1t113.5 31.5t103.5 68q27 25 49.5 49.5t38.5 51t23 54.5t1 59z" />
    <glyph glyph-name="Oacute" unicode="&#xd3;" horiz-adv-x="888" 
d="M660 875q8 -18 2.5 -36t-16.5 -21q-44 -12 -77.5 -23t-75.5 -27q-19 -8 -36 -18t-32 -17t-28.5 -7.5t-25.5 10.5q-21 20 -19 45t27 46q31 27 59 43.5t55 27t52.5 16.5t52.5 12q23 5 35.5 -8.5t26.5 -42.5zM819 529q36 -74 26.5 -139t-54.5 -139q-39 -65 -83.5 -107.5
t-95 -70t-106.5 -43t-118 -25.5q-53 -9 -105 -1.5t-97 27t-80.5 50t-56.5 66.5q-45 78 -39.5 165.5t70.5 177.5q30 42 70 79.5t87.5 66t102.5 45t116 16.5q65 0 121 -8t102 -27t81 -51.5t59 -81.5zM742 453q-4 21 -25.5 38t-53.5 31t-71 23.5t-76 15.5q-48 7 -104.5 1.5
t-110.5 -26.5t-100 -60t-73 -100q-12 -26 -15.5 -56.5t2.5 -59t23 -52t48 -36.5q53 -23 111 -31.5t116 -1t113.5 31.5t103.5 68q27 25 49.5 49.5t38.5 51t23 54.5t1 59z" />
    <glyph glyph-name="Ocircumflex" unicode="&#xd4;" horiz-adv-x="888" 
d="M673 825q9 -8 4.5 -22.5t-16 -29t-26 -23.5t-25.5 -6q-17 5 -35.5 16t-40 24.5t-45 27.5t-50.5 26q-48 -27 -92 -60t-103 -67q-19 -11 -36.5 -5t-29 19.5t-14.5 29.5t7 25q4 4 35.5 19t71.5 42q23 15 44.5 27t44.5 27q16 11 29 21t24.5 16.5t23 9t26.5 -2.5
q17 -6 45 -22.5t60 -36.5q13 -8 28 -16t29 -15.5t25 -13.5t16 -10zM819 529q36 -74 26.5 -139t-54.5 -139q-39 -65 -83.5 -107.5t-95 -70t-106.5 -43t-118 -25.5q-53 -9 -105 -1.5t-97 27t-80.5 50t-56.5 66.5q-45 78 -39.5 165.5t70.5 177.5q30 42 70 79.5t87.5 66
t102.5 45t116 16.5q65 0 121 -8t102 -27t81 -51.5t59 -81.5zM742 453q-4 21 -25.5 38t-53.5 31t-71 23.5t-76 15.5q-48 7 -104.5 1.5t-110.5 -26.5t-100 -60t-73 -100q-12 -26 -15.5 -56.5t2.5 -59t23 -52t48 -36.5q53 -23 111 -31.5t116 -1t113.5 31.5t103.5 68
q27 25 49.5 49.5t38.5 51t23 54.5t1 59z" />
    <glyph glyph-name="Otilde" unicode="&#xd5;" horiz-adv-x="888" 
d="M718 877q-3 -18 -21.5 -40t-44.5 -42.5t-54.5 -35t-52.5 -17.5q-26 -3 -48.5 9t-42.5 26.5t-38 26t-35 8.5q-23 -3 -38 -16t-27.5 -26.5t-23.5 -22t-26 -3.5q-11 4 -20.5 13.5t-15 21t-4.5 23.5t10 21q18 18 34.5 32t33.5 26t36.5 23.5t44.5 23.5q12 6 31.5 -1.5
t41.5 -21t44 -29t38 -23.5q15 -7 34 0t38 20t36 27t26 22q5 4 13.5 4t16 -5.5t12 -16.5t2.5 -27zM819 529q36 -74 26.5 -139t-54.5 -139q-39 -65 -83.5 -107.5t-95 -70t-106.5 -43t-118 -25.5q-53 -9 -105 -1.5t-97 27t-80.5 50t-56.5 66.5q-45 78 -39.5 165.5t70.5 177.5
q30 42 70 79.5t87.5 66t102.5 45t116 16.5q65 0 121 -8t102 -27t81 -51.5t59 -81.5zM742 453q-4 21 -25.5 38t-53.5 31t-71 23.5t-76 15.5q-48 7 -104.5 1.5t-110.5 -26.5t-100 -60t-73 -100q-12 -26 -15.5 -56.5t2.5 -59t23 -52t48 -36.5q53 -23 111 -31.5t116 -1
t113.5 31.5t103.5 68q27 25 49.5 49.5t38.5 51t23 54.5t1 59z" />
    <glyph glyph-name="Odieresis" unicode="&#xd6;" horiz-adv-x="888" 
d="M655 827q0 -31 -16.5 -55t-50.5 -24q-35 0 -59.5 18.5t-24.5 53.5q0 10 4 23.5t11 25.5t17.5 20.5t22.5 8.5q18 0 35 -4t30.5 -13t22 -22.5t8.5 -31.5zM393 822q0 -15 -4 -30t-12.5 -27t-21 -19.5t-29.5 -7.5q-37 0 -60.5 20.5t-23.5 57.5q0 32 20.5 55t56.5 23
q35 0 54.5 -17.5t19.5 -54.5zM819 529q36 -74 26.5 -139t-54.5 -139q-39 -65 -83.5 -107.5t-95 -70t-106.5 -43t-118 -25.5q-53 -9 -105 -1.5t-97 27t-80.5 50t-56.5 66.5q-45 78 -39.5 165.5t70.5 177.5q30 42 70 79.5t87.5 66t102.5 45t116 16.5q65 0 121 -8t102 -27
t81 -51.5t59 -81.5zM742 453q-4 21 -25.5 38t-53.5 31t-71 23.5t-76 15.5q-48 7 -104.5 1.5t-110.5 -26.5t-100 -60t-73 -100q-12 -26 -15.5 -56.5t2.5 -59t23 -52t48 -36.5q53 -23 111 -31.5t116 -1t113.5 31.5t103.5 68q27 25 49.5 49.5t38.5 51t23 54.5t1 59z" />
    <glyph glyph-name="multiply" unicode="&#xd7;" horiz-adv-x="653" 
d="M608 630q-5 -33 -22 -57.5t-37 -45.5q-21 -22 -41 -41.5t-39 -39t-38.5 -41.5t-38.5 -48q14 -27 40.5 -51t55 -46t55 -43t40.5 -42q7 -10 11.5 -19.5t3.5 -19t-8 -20t-23 -23.5q-6 -5 -12 -9.5t-13 -6.5t-16 1t-19 14q-19 21 -39 46.5t-42 51.5t-47 52t-54 47
q-29 -18 -50.5 -43t-39 -51.5t-31.5 -52t-27.5 -43.5t-27 -27t-30.5 -2q-28 15 -43.5 29t-15.5 42q0 24 14 37t31 29q40 40 73.5 78t66.5 83q-14 26 -37 51.5t-47.5 51t-48 51.5t-37.5 54q-14 26 -9.5 48.5t24.5 38.5q17 14 38 18t38 -19q15 -21 30.5 -52t32.5 -62.5
t37.5 -59.5t46.5 -42q17 19 35 38q15 17 31 36.5t29 37.5q17 25 29 50t24 45t26.5 33t36.5 14q13 0 26 -7t24 -18t20 -23t14 -22z" />
    <glyph glyph-name="Oslash" unicode="&#xd8;" horiz-adv-x="869" 
d="M819 588q18 -41 24.5 -79t2.5 -75.5t-18.5 -75.5t-36.5 -79q-39 -72 -84.5 -116.5t-96.5 -72.5t-108 -43t-119 -27q-40 -7 -81 -4q-11 -26 -23.5 -53.5t-29.5 -60.5q-27 -3 -57 5.5t-51.5 24t-30 35.5t7.5 41l9 15q9 15 27 42q-62 39 -105 98q-15 46 -24 93t-7.5 94.5
t16 95.5t46.5 98q30 47 70 90.5t87.5 75.5t102.5 50t116 14q32 -2 63 -5.5t60 -9.5q13 21 22.5 41t14.5 40q7 13 22 17.5t33 1.5t36.5 -11.5t32.5 -20.5t20 -26.5t0 -29.5q-5 -20 -18.5 -36.5t-24.5 -32.5q29 -20 57 -48t45 -66zM742 503q-13 42 -40.5 63t-59.5 32
q-21 -24 -48.5 -56t-50.5 -68q-27 -43 -46.5 -77t-37.5 -66t-36.5 -66.5t-41.5 -78.5l-9.5 -19t-9.5 -17q72 1 141 29t127 87q53 55 78.5 111t33.5 126zM494 626q-47 4 -99.5 -2.5t-102.5 -28.5t-94.5 -62t-74.5 -102q-6 -31 -8.5 -67t3 -70t21.5 -61.5t47 -41.5l18 -8
l18 -8q19 31 32.5 53t24.5 40t21.5 34.5t22 36.5t26.5 45t36 61q0 1 8.5 14.5t20.5 33.5l25.5 42.5l25.5 42.5t20 33.5t9 14.5z" />
    <glyph glyph-name="Ugrave" unicode="&#xd9;" horiz-adv-x="825" 
d="M515 780q15 -10 12 -27t-15 -31.5t-29.5 -21.5t-32.5 3q-27 18 -57.5 32.5t-53.5 25.5t-49.5 16.5t-48 13t-33.5 19t-6 34.5q10 37 31 54t62 7q39 -10 71.5 -26t59.5 -34t49 -35.5t40 -29.5zM766 309q-1 -41 2 -73t4.5 -56t-2 -40.5t-18.5 -26.5q-21 -14 -44 -26t-48 -23
q-64 -29 -134 -52t-140.5 -30.5t-138 5t-126.5 54.5q-30 21 -42 50.5t-15 61.5t-2 65.5t-3 63.5q-2 15 -3 44.5t-0.5 65t1.5 75t4 75.5t7.5 65.5t10.5 45.5q7 20 26.5 25t39.5 1t35.5 -15t16.5 -24q1 -21 -5 -48.5t-11 -61.5q-8 -54 -15.5 -115t-4.5 -116t21 -97.5t60 -58.5
q30 -11 68 -15.5t78.5 -2.5t80 10t73.5 22t58.5 34t34.5 45q11 29 15 53t4 47t-1.5 47.5t-1.5 54.5q0 34 -6 72t-10.5 72t-4 59t12.5 33q15 10 33.5 13t35.5 1t30 -8t18 -15q12 -23 15 -63.5t1.5 -90t-5.5 -102.5t-5 -100z" />
    <glyph glyph-name="Uacute" unicode="&#xda;" horiz-adv-x="825" 
d="M687 847q9 -18 3.5 -36t-18.5 -21q-50 -11 -88 -22t-85 -27q-21 -8 -40.5 -18t-37 -16.5t-32.5 -7t-28 10.5q-24 20 -22 44.5t30 45.5q36 27 68 43.5t62 27t59 16.5t59 11q27 5 41.5 -8.5t28.5 -42.5zM766 309q-1 -41 2 -73t4.5 -56t-2 -40.5t-18.5 -26.5
q-21 -14 -44 -26t-48 -23q-64 -29 -134 -52t-140.5 -30.5t-138 5t-126.5 54.5q-30 21 -42 50.5t-15 61.5t-2 65.5t-3 63.5q-2 15 -3 44.5t-0.5 65t1.5 75t4 75.5t7.5 65.5t10.5 45.5q7 20 26.5 25t39.5 1t35.5 -15t16.5 -24q1 -21 -5 -48.5t-11 -61.5q-8 -54 -15.5 -115
t-4.5 -116t21 -97.5t60 -58.5q30 -11 68 -15.5t78.5 -2.5t80 10t73.5 22t58.5 34t34.5 45q11 29 15 53t4 47t-1.5 47.5t-1.5 54.5q0 34 -6 72t-10.5 72t-4 59t12.5 33q15 10 33.5 13t35.5 1t30 -8t18 -15q12 -23 15 -63.5t1.5 -90t-5.5 -102.5t-5 -100z" />
    <glyph glyph-name="Ucircumflex" unicode="&#xdb;" horiz-adv-x="825" 
d="M673 825q9 -8 4.5 -22.5t-16 -29t-26 -23.5t-25.5 -6q-17 5 -35.5 16t-40 24.5t-45 27.5t-50.5 26q-48 -27 -92 -60t-103 -67q-19 -11 -36.5 -5t-29 19.5t-14.5 29.5t7 25q4 4 35.5 19t71.5 42q23 15 44.5 27t44.5 27q16 11 29 21t24.5 16.5t23 9t26.5 -2.5
q17 -6 45 -22.5t60 -36.5q13 -8 28 -16t29 -15.5t25 -13.5t16 -10zM766 309q-1 -41 2 -73t4.5 -56t-2 -40.5t-18.5 -26.5q-21 -14 -44 -26t-48 -23q-64 -29 -134 -52t-140.5 -30.5t-138 5t-126.5 54.5q-30 21 -42 50.5t-15 61.5t-2 65.5t-3 63.5q-2 15 -3 44.5t-0.5 65
t1.5 75t4 75.5t7.5 65.5t10.5 45.5q7 20 26.5 25t39.5 1t35.5 -15t16.5 -24q1 -21 -5 -48.5t-11 -61.5q-8 -54 -15.5 -115t-4.5 -116t21 -97.5t60 -58.5q30 -11 68 -15.5t78.5 -2.5t80 10t73.5 22t58.5 34t34.5 45q11 29 15 53t4 47t-1.5 47.5t-1.5 54.5q0 34 -6 72
t-10.5 72t-4 59t12.5 33q15 10 33.5 13t35.5 1t30 -8t18 -15q12 -23 15 -63.5t1.5 -90t-5.5 -102.5t-5 -100z" />
    <glyph glyph-name="Udieresis" unicode="&#xdc;" horiz-adv-x="825" 
d="M623 813q0 -31 -16.5 -55t-50.5 -24q-35 0 -59.5 18.5t-24.5 53.5q0 10 4 23.5t11 25.5t17.5 20.5t22.5 8.5q18 0 35 -4t30.5 -13t22 -22.5t8.5 -31.5zM361 808q0 -15 -4 -30t-12.5 -27t-21 -19.5t-29.5 -7.5q-37 0 -60.5 20.5t-23.5 57.5q0 32 20.5 55t56.5 23
q35 0 54.5 -17.5t19.5 -54.5zM766 309q-1 -41 2 -73t4.5 -56t-2 -40.5t-18.5 -26.5q-21 -14 -44 -26t-48 -23q-64 -29 -134 -52t-140.5 -30.5t-138 5t-126.5 54.5q-30 21 -42 50.5t-15 61.5t-2 65.5t-3 63.5q-2 15 -3 44.5t-0.5 65t1.5 75t4 75.5t7.5 65.5t10.5 45.5
q7 20 26.5 25t39.5 1t35.5 -15t16.5 -24q1 -21 -5 -48.5t-11 -61.5q-8 -54 -15.5 -115t-4.5 -116t21 -97.5t60 -58.5q30 -11 68 -15.5t78.5 -2.5t80 10t73.5 22t58.5 34t34.5 45q11 29 15 53t4 47t-1.5 47.5t-1.5 54.5q0 34 -6 72t-10.5 72t-4 59t12.5 33q15 10 33.5 13
t35.5 1t30 -8t18 -15q12 -23 15 -63.5t1.5 -90t-5.5 -102.5t-5 -100z" />
    <glyph glyph-name="Yacute" unicode="&#xdd;" horiz-adv-x="671" 
d="M589 856q8 -19 3 -37.5t-16 -21.5q-21 -6 -39.5 -11.5t-35.5 -11t-34.5 -12.5t-38.5 -16q-18 -8 -34.5 -18t-31 -17t-27.5 -7.5t-24 10.5q-20 21 -18 46t25 47q30 27 57 44.5t53 28t50.5 16.5t50.5 12q23 5 35 -9t25 -43zM697 674q-8 -18 -15.5 -32t-17.5 -30t-24 -35.5
t-35 -47.5q-26 -34 -51 -72.5t-46.5 -74.5t-38.5 -66.5t-26 -48.5q-20 -37 -34 -68.5t-25.5 -62.5t-21 -63t-19.5 -71q-4 -17 -25 -22.5t-44.5 -1.5t-42 14.5t-17.5 24.5q2 31 12.5 63.5t24.5 65t30.5 63.5t31.5 60q-32 44 -74 80.5t-83.5 72t-76.5 74t-52 86.5
q-4 11 7.5 29.5t29.5 34t37 24t30 0.5q25 -19 40.5 -38.5t29.5 -41t32 -46t47 -52.5l29 -29t26.5 -25t29.5 -23.5t39 -24.5q20 39 39.5 75.5t39.5 73.5t43 76.5t51 84.5q9 14 31.5 17.5t44.5 -1t36.5 -16t7.5 -26.5z" />
    <glyph glyph-name="Thorn" unicode="&#xde;" horiz-adv-x="700" 
d="M702 539q28 -51 23 -96t-36 -94q-16 -26 -34 -43t-39 -30t-45.5 -25t-52.5 -27q-45 -23 -98 -41t-104 -31t-94 -21t-68 -11q0 -19 1.5 -35t2.5 -32t1.5 -34t-0.5 -41q-1 -12 -12.5 -12.5t-32.5 -4.5q-12 -2 -27 -3t-27.5 0.5t-20 6.5t-4.5 15q4 34 6.5 61t3.5 51t1 49
t-1 57q-1 22 -0.5 39t1 33t0.5 32.5t-1 38.5q-2 28 -1.5 57.5t-1.5 52.5q-1 12 -1.5 33.5t-0.5 45.5v47t-1 40q-2 30 -4 58t-3 54t1.5 49.5t11.5 44.5q4 10 9.5 14.5t14 6.5t21 1.5t30.5 -1.5q11 -10 26.5 -15t20.5 -17q6 -44 -4 -87.5t-18 -93.5q67 14 141 16.5t152 4.5
q93 2 160.5 -22.5t103.5 -90.5zM580 409q10 10 22.5 26t16.5 32.5t-5.5 31.5t-43.5 25q-46 13 -103.5 16t-115 -0.5t-110 -13.5t-88.5 -22q-3 -24 -5.5 -60.5t-4 -73.5t-2.5 -67.5t0 -42.5q13 -5 32.5 -4.5t43 4.5t47.5 10.5t46 14.5q91 30 160.5 57t109.5 67z" />
    <glyph glyph-name="germandbls" unicode="&#xdf;" horiz-adv-x="741" 
d="M702 322q13 -38 10.5 -70t-18 -60.5t-41 -53.5t-56.5 -48q-35 -26 -80.5 -43.5t-93 -29t-91.5 -16.5t-75 -5q-19 0 -27 20t-6 44.5t13.5 45t31.5 20.5q23 0 42.5 2.5t40 7t43.5 10t53 13.5q49 12 85 26.5t53.5 32t15.5 37.5t-29 43q-24 21 -72.5 25.5t-107 -2.5
t-121 -21.5t-114.5 -30.5q4 -9 5.5 -35t1 -60.5t-2 -72.5t-2 -72t0 -58.5t4.5 -32.5q16 -33 2 -57t-71 -35q-19 -3 -28.5 3.5t-13 17.5t-3.5 23.5t1 20.5q2 18 3 47t1 63.5v71v70t-0.5 61t-0.5 43.5q0 36 -1.5 67t-3 64.5t-2.5 73.5t-1 96q0 33 18 65t50 58t76 45t97 27
q50 7 95 10.5t86.5 -1t80.5 -19t77 -42.5q13 -9 21 -26t11.5 -37t2 -41t-8.5 -38q-9 -23 -24 -42.5t-32 -35.5t-35 -29t-34 -23q27 -11 54 -21t50.5 -23t42 -30.5t27.5 -42.5zM522 618q-9 8 -29.5 16t-47.5 13.5t-58.5 6.5t-63.5 -5t-62.5 -20t-54.5 -38q-20 -20 -30.5 -45
t-13.5 -49t-0.5 -43t7.5 -28q33 6 65.5 10.5t64 9.5t62.5 11.5t61 18.5q17 6 39.5 25t40.5 41t25.5 43t-5.5 33z" />
    <glyph glyph-name="agrave" unicode="&#xe0;" 
d="M442 736q15 -10 12 -27t-15 -31.5t-30 -21.5t-33 3q-27 18 -57.5 32.5t-53.5 25.5t-49.5 17t-48 13t-33.5 18.5t-5 34.5q11 37 31 54.5t62 6.5q38 -10 70.5 -26t59.5 -34t49.5 -35t40.5 -30zM583 55q13 -26 -3.5 -50t-53.5 -34q-18 -5 -29 -3t-17.5 10.5t-9 22t-4.5 32.5
q-1 12 -2.5 18.5t-4 11.5t-5.5 9.5t-8 12.5q-37 -30 -85 -59.5t-98 -45t-98.5 -9t-85.5 49.5q-15 17 -28 43.5t-19.5 56.5t-4.5 61.5t18 58.5q26 45 53.5 75t57.5 47.5t62 24.5t68 7q45 -1 82.5 -11t79.5 -26q9 10 8.5 23t-0.5 28q0 13 3 24t2.5 20.5t-7.5 17t-27 14.5
q-41 6 -78 1t-71 -13t-66 -16.5t-63 -11.5l-22.5 -2.5t-25.5 -1t-21 4t-10 14.5q-7 35 -9.5 54.5t9.5 39.5q19 13 54.5 18t78 8.5t88.5 9.5t85 22q26 5 55.5 6t56 -5t47.5 -21.5t30 -43.5q-13 -31 -18 -67t-6 -77.5t0.5 -88t2.5 -98.5q1 -50 11.5 -88.5t27.5 -73.5zM422 224
q-5 18 -19 29.5t-32.5 17.5t-40.5 7t-42 -2q-34 -5 -59 -12.5t-45.5 -19t-39.5 -28.5t-40 -42q-14 -29 7.5 -44.5t60.5 -17.5q40 -2 76 5t67 22t58 37t49 48z" />
    <glyph glyph-name="aacute" unicode="&#xe1;" 
d="M527 799q8 -18 3 -36t-16 -21q-45 -11 -78 -22t-75 -28q-19 -8 -36 -18t-32 -16.5t-28.5 -7t-25.5 10.5q-21 20 -19 45t26 46q31 27 59.5 43.5t55 27t52 16.5t52.5 11q24 5 36.5 -8.5t25.5 -42.5zM583 55q13 -26 -3.5 -50t-53.5 -34q-18 -5 -29 -3t-17.5 10.5t-9 22
t-4.5 32.5q-1 12 -2.5 18.5t-4 11.5t-5.5 9.5t-8 12.5q-37 -30 -85 -59.5t-98 -45t-98.5 -9t-85.5 49.5q-15 17 -28 43.5t-19.5 56.5t-4.5 61.5t18 58.5q26 45 53.5 75t57.5 47.5t62 24.5t68 7q45 -1 82.5 -11t79.5 -26q9 10 8.5 23t-0.5 28q0 13 3 24t2.5 20.5t-7.5 17
t-27 14.5q-41 6 -78 1t-71 -13t-66 -16.5t-63 -11.5l-22.5 -2.5t-25.5 -1t-21 4t-10 14.5q-7 35 -9.5 54.5t9.5 39.5q19 13 54.5 18t78 8.5t88.5 9.5t85 22q26 5 55.5 6t56 -5t47.5 -21.5t30 -43.5q-13 -31 -18 -67t-6 -77.5t0.5 -88t2.5 -98.5q1 -50 11.5 -88.5t27.5 -73.5
zM422 224q-5 18 -19 29.5t-32.5 17.5t-40.5 7t-42 -2q-34 -5 -59 -12.5t-45.5 -19t-39.5 -28.5t-40 -42q-14 -29 7.5 -44.5t60.5 -17.5q40 -2 76 5t67 22t58 37t49 48z" />
    <glyph glyph-name="acircumflex" unicode="&#xe2;" 
d="M528 778q8 -9 4 -26t-14 -33t-23 -27t-23 -7q-15 6 -32 18.5t-36.5 28t-40.5 31.5t-45 29q-22 -15 -42 -32.5t-40.5 -36t-43 -38t-49.5 -38.5q-17 -13 -33 -6t-26 23t-13 34t6 28q4 5 32.5 22t63.5 48q20 17 40 31t40 31q15 12 26 23.5t21.5 19.5t21 10.5t23.5 -3.5
q16 -7 41 -26t54 -41q12 -9 25.5 -18.5t26 -18t22 -15.5t14.5 -11zM583 55q13 -26 -3.5 -50t-53.5 -34q-18 -5 -29 -3t-17.5 10.5t-9 22t-4.5 32.5q-1 12 -2.5 18.5t-4 11.5t-5.5 9.5t-8 12.5q-37 -30 -85 -59.5t-98 -45t-98.5 -9t-85.5 49.5q-15 17 -28 43.5t-19.5 56.5
t-4.5 61.5t18 58.5q26 45 53.5 75t57.5 47.5t62 24.5t68 7q45 -1 82.5 -11t79.5 -26q9 10 8.5 23t-0.5 28q0 13 3 24t2.5 20.5t-7.5 17t-27 14.5q-41 6 -78 1t-71 -13t-66 -16.5t-63 -11.5l-22.5 -2.5t-25.5 -1t-21 4t-10 14.5q-7 35 -9.5 54.5t9.5 39.5q19 13 54.5 18
t78 8.5t88.5 9.5t85 22q26 5 55.5 6t56 -5t47.5 -21.5t30 -43.5q-13 -31 -18 -67t-6 -77.5t0.5 -88t2.5 -98.5q1 -50 11.5 -88.5t27.5 -73.5zM422 224q-5 18 -19 29.5t-32.5 17.5t-40.5 7t-42 -2q-34 -5 -59 -12.5t-45.5 -19t-39.5 -28.5t-40 -42q-14 -29 7.5 -44.5
t60.5 -17.5q40 -2 76 5t67 22t58 37t49 48z" />
    <glyph glyph-name="atilde" unicode="&#xe3;" 
d="M567 803q-3 -18 -21.5 -40.5t-44 -42.5t-54.5 -34.5t-53 -17.5q-26 -3 -48.5 8.5t-42.5 26t-38 26.5t-35 9q-23 -4 -38 -17t-27 -26.5t-23.5 -22t-26.5 -2.5q-11 4 -20.5 13.5t-15 21t-4.5 23.5t10 21q18 18 34.5 31.5t33.5 25.5t36.5 23.5t44.5 24.5q12 6 31.5 -2
t41.5 -21.5t44 -28.5t38 -23q15 -8 34 -0.5t38 20t36 27t26 22.5q5 4 13.5 3.5t16 -5.5t12.5 -16t2 -27zM583 55q13 -26 -3.5 -50t-53.5 -34q-18 -5 -29 -3t-17.5 10.5t-9 22t-4.5 32.5q-1 12 -2.5 18.5t-4 11.5t-5.5 9.5t-8 12.5q-37 -30 -85 -59.5t-98 -45t-98.5 -9
t-85.5 49.5q-15 17 -28 43.5t-19.5 56.5t-4.5 61.5t18 58.5q26 45 53.5 75t57.5 47.5t62 24.5t68 7q45 -1 82.5 -11t79.5 -26q9 10 8.5 23t-0.5 28q0 13 3 24t2.5 20.5t-7.5 17t-27 14.5q-41 6 -78 1t-71 -13t-66 -16.5t-63 -11.5l-22.5 -2.5t-25.5 -1t-21 4t-10 14.5
q-7 35 -9.5 54.5t9.5 39.5q19 13 54.5 18t78 8.5t88.5 9.5t85 22q26 5 55.5 6t56 -5t47.5 -21.5t30 -43.5q-13 -31 -18 -67t-6 -77.5t0.5 -88t2.5 -98.5q1 -50 11.5 -88.5t27.5 -73.5zM422 224q-5 18 -19 29.5t-32.5 17.5t-40.5 7t-42 -2q-34 -5 -59 -12.5t-45.5 -19
t-39.5 -28.5t-40 -42q-14 -29 7.5 -44.5t60.5 -17.5q40 -2 76 5t67 22t58 37t49 48z" />
    <glyph glyph-name="adieresis" unicode="&#xe4;" 
d="M529 760q0 -31 -16.5 -55t-50.5 -24q-35 0 -59.5 18.5t-24.5 53.5q0 10 4 23.5t11 25.5t17.5 20.5t22.5 8.5q18 0 35 -4t30.5 -13t22 -22.5t8.5 -31.5zM267 755q0 -15 -4 -30t-12.5 -27t-21 -19.5t-29.5 -7.5q-37 0 -60.5 20.5t-23.5 57.5q0 32 21 55t56 23t54.5 -17.5
t19.5 -54.5zM583 55q13 -26 -3.5 -50t-53.5 -34q-18 -5 -29 -3t-17.5 10.5t-9 22t-4.5 32.5q-1 12 -2.5 18.5t-4 11.5t-5.5 9.5t-8 12.5q-37 -30 -85 -59.5t-98 -45t-98.5 -9t-85.5 49.5q-15 17 -28 43.5t-19.5 56.5t-4.5 61.5t18 58.5q26 45 53.5 75t57.5 47.5t62 24.5
t68 7q45 -1 82.5 -11t79.5 -26q9 10 8.5 23t-0.5 28q0 13 3 24t2.5 20.5t-7.5 17t-27 14.5q-41 6 -78 1t-71 -13t-66 -16.5t-63 -11.5l-22.5 -2.5t-25.5 -1t-21 4t-10 14.5q-7 35 -9.5 54.5t9.5 39.5q19 13 54.5 18t78 8.5t88.5 9.5t85 22q26 5 55.5 6t56 -5t47.5 -21.5
t30 -43.5q-13 -31 -18 -67t-6 -77.5t0.5 -88t2.5 -98.5q1 -50 11.5 -88.5t27.5 -73.5zM422 224q-5 18 -19 29.5t-32.5 17.5t-40.5 7t-42 -2q-34 -5 -59 -12.5t-45.5 -19t-39.5 -28.5t-40 -42q-14 -29 7.5 -44.5t60.5 -17.5q40 -2 76 5t67 22t58 37t49 48z" />
    <glyph glyph-name="aring" unicode="&#xe5;" 
d="M522 826q7 -68 -31 -108t-114 -62q-60 -17 -116 -14.5t-99 33.5q-29 21 -37.5 50t-1.5 63q8 44 42.5 76.5t86.5 43.5q23 4 49 8t52.5 5t52 -1.5t46.5 -11.5q36 -14 52 -37t18 -45zM583 55q13 -26 -3.5 -50t-53.5 -34q-18 -5 -29 -3t-17.5 10.5t-9 22t-4.5 32.5
q-1 12 -2.5 18.5t-4 11.5t-5.5 9.5t-8 12.5q-37 -30 -85 -59.5t-98 -45t-98.5 -9t-85.5 49.5q-15 17 -28 43.5t-19.5 56.5t-4.5 61.5t18 58.5q26 45 53.5 75t57.5 47.5t62 24.5t68 7q45 -1 82.5 -11t79.5 -26q9 10 8.5 23t-0.5 28q0 13 3 24t2.5 20.5t-7.5 17t-27 14.5
q-41 6 -78 1t-71 -13t-66 -16.5t-63 -11.5l-22.5 -2.5t-25.5 -1t-21 4t-10 14.5q-7 35 -9.5 54.5t9.5 39.5q19 13 54.5 18t78 8.5t88.5 9.5t85 22q26 5 55.5 6t56 -5t47.5 -21.5t30 -43.5q-13 -31 -18 -67t-6 -77.5t0.5 -88t2.5 -98.5q1 -50 11.5 -88.5t27.5 -73.5zM417 821
q-45 8 -92 7t-92 -21q-41 -20 -47.5 -42.5t13.5 -29.5q17 -6 38.5 -6.5t43.5 1.5t43 5.5t37 6.5q19 3 41.5 13.5t35.5 23.5t11 25t-32 17zM422 224q-5 18 -19 29.5t-32.5 17.5t-40.5 7t-42 -2q-34 -5 -59 -12.5t-45.5 -19t-39.5 -28.5t-40 -42q-14 -29 7.5 -44.5t60.5 -17.5
q40 -2 76 5t67 22t58 37t49 48z" />
    <glyph glyph-name="ae" unicode="&#xe6;" horiz-adv-x="1030" 
d="M989 41q-53 -22 -113 -39t-120.5 -22t-118.5 5.5t-107 43.5q-37 25 -60 65q-25 -20 -56.5 -41t-66.5 -38.5t-72 -29.5t-72.5 -13.5t-67 9.5t-56.5 40q-15 17 -28 43.5t-19.5 56.5t-4.5 61.5t18 58.5q26 45 53.5 75t57.5 47.5t62 24.5t68 7q45 -1 82.5 -11t79.5 -26
q9 10 8.5 23t-0.5 28q0 13 3 24t2.5 20.5t-7.5 17t-27 14.5q-41 6 -78 1t-71 -13t-66 -16.5t-63 -11.5l-22.5 -2.5t-25.5 -1t-21 4t-10 14.5q-7 35 -9.5 54.5t9.5 39.5q19 13 54.5 18t78 8.5t88.5 9.5t85 22q27 5 60.5 7.5t62 -3.5t47.5 -23.5t16 -53.5q33 26 77 39
t90.5 14.5t90.5 -7t78 -24.5q25 -12 41 -41t23 -62t6 -65t-8 -51q-24 -60 -65.5 -89t-93.5 -41t-109.5 -14t-113.5 -7q-11 -13 -15.5 -22.5t6.5 -20.5q23 -30 53.5 -42.5t65 -13t72.5 8t77 19.5q20 6 39 15.5t36.5 18t33.5 13t30 0.5q11 -4 18.5 -21.5t10 -38.5t-1 -40
t-14.5 -26zM880 417q-18 19 -42.5 32t-52 17.5t-56 0t-54.5 -18.5q-10 -6 -27.5 -14t-35.5 -18.5t-34 -23.5t-23 -27q0 -9 0.5 -18t0.5 -18q5 -9 15.5 -11t23 -2t25.5 0.5t22 -2.5q28 5 64.5 9t71.5 14t63 28t39 52zM422 224q-5 18 -19 29.5t-32.5 17.5t-40.5 7t-42 -2
q-34 -5 -59 -12.5t-45.5 -19t-39.5 -28.5t-40 -42q-14 -29 7.5 -44.5t60.5 -17.5q40 -2 76 5t67 22t58 37t49 48z" />
    <glyph glyph-name="ccedilla" unicode="&#xe7;" horiz-adv-x="648" 
d="M613 491q7 -9 -1.5 -25.5t-24 -31t-34 -22.5t-30.5 0q-17 12 -31 21.5t-26.5 17.5t-26 14.5t-30.5 12.5q-80 25 -139 9t-99 -57q-15 -16 -31 -34.5t-26.5 -38t-13.5 -39t6 -38.5q23 -45 60 -68.5t80 -31t88 -3t84 15.5q15 4 33.5 14t37.5 20.5t38 19.5t37 12
q12 2 23.5 -10t19 -28.5t9 -33t-5.5 -23.5q-28 -24 -52.5 -40t-50 -27t-54.5 -19t-65 -16q-10 -2 -19.5 -4t-18.5 -3q-12 -15 -16 -25q-3 -8 4 -14t16.5 -10t18.5 -6.5t12 -3.5q42 -17 54 -40.5t3 -47.5t-34 -43.5t-57 -26.5q-22 -6 -47 -11t-48 -7.5t-42.5 -2t-30.5 6.5
q-13 7 -18.5 17.5t-5 20.5t7.5 17.5t19 7.5q29 0 52.5 3.5t38.5 9t20 13.5t-1 18q-7 11 -27.5 18t-43.5 16q-5 1 -10.5 5t-10 10t-6.5 14.5t2 18.5q5 14 11 27t14 26q-18 6 -35.5 15t-36.5 20q-71 43 -108.5 100.5t-26.5 137.5q27 191 201 264q56 17 112.5 16t108 -17
t96 -44.5t77.5 -66.5z" />
    <glyph glyph-name="egrave" unicode="&#xe8;" horiz-adv-x="576" 
d="M418 736q14 -10 11.5 -27t-14.5 -31.5t-30 -21.5t-33 3q-27 18 -57.5 32.5t-53.5 25.5t-49.5 16.5t-48 13t-33.5 19t-6 34.5q11 37 31.5 54.5t62.5 6.5q38 -10 70.5 -26t59.5 -34t49.5 -35.5t40.5 -29.5zM554 41q-53 -22 -108 -38t-110 -20.5t-108.5 7t-102.5 44.5
q-37 26 -66.5 61.5t-33.5 89.5q-8 107 16.5 194t80.5 143q33 33 76.5 49.5t90 20t92.5 -4.5t82 -26q25 -12 41 -41t23 -62t6 -65t-8 -51q-24 -60 -65.5 -89t-93.5 -41t-109.5 -14t-113.5 -7q-12 -13 -17 -20t8 -23q23 -30 53.5 -42.5t65 -13t72.5 8t77 19.5q20 6 39 15.5
t36.5 18t33.5 13t30 0.5q11 -4 18.5 -21.5t10 -38.5t-1 -40t-14.5 -26zM445 417q-18 19 -42.5 32t-52 17.5t-56 0t-54.5 -18.5q-13 -7 -35.5 -18t-43.5 -25.5t-35 -32t-8 -36.5q4 -12 14.5 -16t23.5 -4t27 1t24 -3q28 5 64.5 9t71.5 14t63 28t39 52z" />
    <glyph glyph-name="eacute" unicode="&#xe9;" horiz-adv-x="576" 
d="M527 799q8 -18 3 -36t-16 -21q-45 -11 -78 -22t-75 -28q-19 -8 -36 -18t-32 -16.5t-28.5 -7t-25.5 10.5q-21 20 -19 45t26 46q31 27 59.5 43.5t55 27t52 16.5t52.5 11q24 5 36.5 -8.5t25.5 -42.5zM554 41q-53 -22 -108 -38t-110 -20.5t-108.5 7t-102.5 44.5
q-37 26 -66.5 61.5t-33.5 89.5q-8 107 16.5 194t80.5 143q33 33 76.5 49.5t90 20t92.5 -4.5t82 -26q25 -12 41 -41t23 -62t6 -65t-8 -51q-24 -60 -65.5 -89t-93.5 -41t-109.5 -14t-113.5 -7q-12 -13 -17 -20t8 -23q23 -30 53.5 -42.5t65 -13t72.5 8t77 19.5q20 6 39 15.5
t36.5 18t33.5 13t30 0.5q11 -4 18.5 -21.5t10 -38.5t-1 -40t-14.5 -26zM445 417q-18 19 -42.5 32t-52 17.5t-56 0t-54.5 -18.5q-13 -7 -35.5 -18t-43.5 -25.5t-35 -32t-8 -36.5q4 -12 14.5 -16t23.5 -4t27 1t24 -3q28 5 64.5 9t71.5 14t63 28t39 52z" />
    <glyph glyph-name="ecircumflex" unicode="&#xea;" horiz-adv-x="576" 
d="M525 759q8 -8 4 -25t-14.5 -33.5t-23.5 -27t-22 -6.5q-15 6 -32 18.5t-36.5 28t-41 31.5t-45.5 29q-43 -31 -82 -68.5t-92 -76.5q-17 -13 -33 -6t-26.5 23t-13 34t6.5 28q4 5 32.5 22t63.5 47q20 17 40 31.5t40 31.5q15 12 26 23.5t21.5 19t21 10t23.5 -3.5
q16 -6 40.5 -25t53.5 -41q12 -9 26 -19t26.5 -18.5t22 -15.5t14.5 -11zM554 41q-53 -22 -108 -38t-110 -20.5t-108.5 7t-102.5 44.5q-37 26 -66.5 61.5t-33.5 89.5q-8 107 16.5 194t80.5 143q33 33 76.5 49.5t90 20t92.5 -4.5t82 -26q25 -12 41 -41t23 -62t6 -65t-8 -51
q-24 -60 -65.5 -89t-93.5 -41t-109.5 -14t-113.5 -7q-12 -13 -17 -20t8 -23q23 -30 53.5 -42.5t65 -13t72.5 8t77 19.5q20 6 39 15.5t36.5 18t33.5 13t30 0.5q11 -4 18.5 -21.5t10 -38.5t-1 -40t-14.5 -26zM445 417q-18 19 -42.5 32t-52 17.5t-56 0t-54.5 -18.5
q-13 -7 -35.5 -18t-43.5 -25.5t-35 -32t-8 -36.5q4 -12 14.5 -16t23.5 -4t27 1t24 -3q28 5 64.5 9t71.5 14t63 28t39 52z" />
    <glyph glyph-name="edieresis" unicode="&#xeb;" horiz-adv-x="576" 
d="M517 745q0 -31 -16.5 -55t-50.5 -24q-35 0 -59.5 18.5t-24.5 53.5q0 10 4 23.5t11 25.5t17.5 20.5t22.5 8.5q18 0 35 -4t30.5 -13t22 -22.5t8.5 -31.5zM255 740q0 -15 -4 -30t-12.5 -27t-21 -19.5t-29.5 -7.5q-37 0 -60.5 20.5t-23.5 57.5q0 32 20.5 55t56.5 23
q35 0 54.5 -17.5t19.5 -54.5zM554 41q-53 -22 -108 -38t-110 -20.5t-108.5 7t-102.5 44.5q-37 26 -66.5 61.5t-33.5 89.5q-8 107 16.5 194t80.5 143q33 33 76.5 49.5t90 20t92.5 -4.5t82 -26q25 -12 41 -41t23 -62t6 -65t-8 -51q-24 -60 -65.5 -89t-93.5 -41t-109.5 -14
t-113.5 -7q-12 -13 -17 -20t8 -23q23 -30 53.5 -42.5t65 -13t72.5 8t77 19.5q20 6 39 15.5t36.5 18t33.5 13t30 0.5q11 -4 18.5 -21.5t10 -38.5t-1 -40t-14.5 -26zM445 417q-18 19 -42.5 32t-52 17.5t-56 0t-54.5 -18.5q-13 -7 -35.5 -18t-43.5 -25.5t-35 -32t-8 -36.5
q4 -12 14.5 -16t23.5 -4t27 1t24 -3q28 5 64.5 9t71.5 14t63 28t39 52z" />
    <glyph glyph-name="igrave" unicode="&#xec;" horiz-adv-x="342" 
d="M213 661q7 -13 0 -28t-19.5 -26t-27 -13.5t-21.5 10.5q-13 23 -29.5 42.5t-29.5 34.5q-12 15 -28.5 26t-29.5 22.5t-17.5 24.5t6.5 33q18 32 37 44t44 -7q24 -18 41.5 -39.5t31 -44t23.5 -43.5t19 -36zM225 49q5 -15 2.5 -24.5t-10 -15.5t-18.5 -9l-22 -6
q-23 -6 -42.5 2.5t-21.5 38.5q-2 32 -3 59t-1 52.5t0.5 51.5t1.5 57q2 60 2.5 114.5t2.5 117.5q0 17 17.5 28.5t38 13t36.5 -8.5t14 -34q-6 -57 -13 -109.5t-11 -112.5q-2 -31 -2 -57.5t3 -52t9.5 -51t16.5 -54.5z" />
    <glyph glyph-name="iacute" unicode="&#xed;" horiz-adv-x="342" 
d="M349 755q-29 -22 -50.5 -40t-46.5 -45q-12 -12 -21.5 -26t-18.5 -24.5t-19 -14t-22 4.5q-22 14 -28 39t5 51q15 34 30.5 57t32 39.5t33.5 28.5t35 24q16 11 29.5 1t32.5 -35q12 -16 14 -35t-6 -25zM225 49q5 -15 2.5 -24.5t-10 -15.5t-18.5 -9l-22 -6q-23 -6 -42.5 2.5
t-21.5 38.5q-2 32 -3 59t-1 52.5t0.5 51.5t1.5 57q2 60 2.5 114.5t2.5 117.5q0 17 17.5 28.5t38 13t36.5 -8.5t14 -34q-6 -57 -13 -109.5t-11 -112.5q-2 -31 -2 -57.5t3 -52t9.5 -51t16.5 -54.5z" />
    <glyph glyph-name="icircumflex" unicode="&#xee;" horiz-adv-x="342" 
d="M327 672q7 -8 4 -23t-11 -29.5t-18.5 -24.5t-17.5 -6q-12 5 -25 16.5t-28 25.5t-32 28.5t-35 26.5q-33 -29 -63.5 -62.5t-72.5 -69.5q-13 -11 -25 -4.5t-20 20.5t-10.5 30.5t4.5 25.5q3 4 25 19.5t50 43.5q16 15 31 28t31 28q11 11 20 21.5t17 17t16 9t18 -2.5
q12 -6 31.5 -23t42.5 -37q19 -17 40 -33.5t28 -24.5zM225 49q5 -15 2.5 -24.5t-10 -15.5t-18.5 -9l-22 -6q-23 -6 -42.5 2.5t-21.5 38.5q-2 32 -3 59t-1 52.5t0.5 51.5t1.5 57q2 60 2.5 114.5t2.5 117.5q0 17 17.5 28.5t38 13t36.5 -8.5t14 -34q-6 -57 -13 -109.5
t-11 -112.5q-2 -31 -2 -57.5t3 -52t9.5 -51t16.5 -54.5z" />
    <glyph glyph-name="idieresis" unicode="&#xef;" horiz-adv-x="342" 
d="M324 693q0 -31 -12 -55t-36 -24q-25 0 -42 18.5t-17 53.5q0 10 3 23.5t8 25.5t12 20.5t16 8.5q26 0 47 -17t21 -54zM138 688q0 -15 -3 -30t-9 -27t-15 -19.5t-21 -7.5q-26 0 -43 20.5t-17 57.5q0 32 14.5 55t40.5 23q25 0 39 -17.5t14 -54.5zM225 49q5 -15 2.5 -24.5
t-10 -15.5t-18.5 -9l-22 -6q-23 -6 -42.5 2.5t-21.5 38.5q-2 32 -3 59t-1 52.5t0.5 51.5t1.5 57q2 60 2.5 114.5t2.5 117.5q0 17 17.5 28.5t38 13t36.5 -8.5t14 -34q-6 -57 -13 -109.5t-11 -112.5q-2 -31 -2 -57.5t3 -52t9.5 -51t16.5 -54.5z" />
    <glyph glyph-name="eth" unicode="&#xf0;" horiz-adv-x="704" 
d="M726 686q6 -14 4.5 -30.5t-8 -31.5t-17.5 -25t-23 -11q-48 10 -98 7q-6 -77 -6 -149q0 -75 1 -151t-3 -160q3 -15 13 -29.5t17.5 -29t7.5 -29t-17 -30.5q-19 -17 -41 -25.5t-50 -0.5q-10 10 -12.5 23t-3 25.5t-3 24t-12.5 17.5q-34 -31 -80 -55t-94 -36t-93.5 -9.5
t-78.5 25.5q-47 32 -70.5 82t-25.5 131q-2 54 4 101t18 86t29 67.5t38 45.5q33 26 70.5 34t76.5 4t77 -17.5t71 -30.5q20 -10 35.5 -13.5t37.5 0.5q3 18 4.5 41.5t1.5 48.5q-33 -5 -62 -9t-52 -2q-26 -2 -34 24t3 68q3 12 15 20q5 4 13 8q34 3 61 4t52 2q-1 18 -1.5 34
t-0.5 27q0 23 15 34t35 13q10 1 20.5 -0.5t19.5 -5t14.5 -9.5t4.5 -15q-2 -17 -3 -33.5t-3 -33.5q27 4 60 12q20 5 41 -5t32 -33zM475 226q9 14 11 26.5t0 24.5t-5.5 25.5t-5.5 29.5q-7 8 -18 17t-23.5 17.5t-25.5 14.5t-23 9q-33 9 -65 19t-61 13.5t-55 -3.5t-47 -32
q-37 -44 -49 -83.5t-8 -86.5q2 -31 23.5 -52.5t50.5 -35.5q42 -20 84 -18t81.5 18t74 42t61.5 55z" />
    <glyph glyph-name="ntilde" unicode="&#xf1;" horiz-adv-x="590" 
d="M564 809q-3 -18 -21.5 -40.5t-44.5 -42.5t-54.5 -34.5t-52.5 -17.5q-26 -3 -48.5 8.5t-42.5 26t-38 26.5t-35 9q-23 -4 -38 -17t-27 -26t-23.5 -21.5t-26.5 -3.5q-11 4 -20.5 13.5t-15 21t-4.5 23.5t10 21q18 18 34.5 32t33.5 26t36.5 23t44.5 24q12 6 31.5 -2
t41.5 -21.5t44 -28.5t38 -23q15 -8 34 -0.5t38 20t36 27t26 22.5q5 4 13.5 3.5t16 -5.5t12.5 -16t2 -27zM562 53q-2 -25 -12.5 -38.5t-36.5 -17.5q-29 -11 -48 -3t-24 42t-5 62t2 54t5 53t4.5 60t0 73.5t-8.5 93.5q-12 7 -31 6t-39.5 -6t-40 -13t-31.5 -15
q-23 -13 -47 -26.5t-45 -26.5t-36.5 -25t-19.5 -22q-8 -18 -10.5 -32.5t-2.5 -28t1 -27.5t0 -32q-1 -24 4 -46.5t9.5 -43.5t5 -39.5t-9.5 -33.5l-16 -14t-17 -11.5t-19 -5t-22 5.5q-13 4 -16 22.5t-1.5 44t5 53t3.5 48.5q0 65 -2 112.5t-4 87.5t-3.5 76.5t-1.5 79.5
q-3 29 1.5 43t13.5 19.5t21.5 6.5t26.5 4q18 4 23 -8t5 -31.5t-2 -41t1 -36.5q0 -9 16.5 -2t38 19.5t43 27t31.5 20.5q24 15 53 30.5t59 27.5t59.5 17.5t53.5 -0.5q23 -5 37 -24t9 -52q-8 -55 -11.5 -117.5t-6.5 -128.5q-3 -62 7.5 -125t30.5 -116z" />
    <glyph glyph-name="ograve" unicode="&#xf2;" horiz-adv-x="640" 
d="M387 708q14 -10 11.5 -26.5t-14 -30.5t-28 -21t-30.5 3q-26 18 -54.5 32t-49.5 25q-21 10 -46.5 16t-45.5 13t-31 18.5t-5 33.5q10 36 29 53.5t58 6.5q36 -10 66.5 -25.5t56 -33t46 -35t37.5 -29.5zM578 432q25 -36 32 -83.5t-2 -98t-35 -97.5t-67 -81
q-139 -113 -302 -41q-29 13 -59 36.5t-56 53.5t-44 63.5t-22 65.5q-11 88 21 157t105 121q60 43 125 48.5t136 -11.5q26 -6 51 -21t47 -34t40 -39.5t30 -38.5zM515 334q-8 23 -20.5 39t-29 27.5t-35.5 20t-40 15.5q-67 23 -130 11t-107 -68q-15 -18 -27 -35t-18.5 -34.5
t-7 -36.5t8.5 -41q15 -38 47 -60.5t71 -36.5q34 -12 70.5 -13.5t70 7t63.5 27.5t52 48q13 18 22.5 32.5t14 29.5t3.5 31t-8 37z" />
    <glyph glyph-name="oacute" unicode="&#xf3;" horiz-adv-x="640" 
d="M580 767q9 -18 4 -35.5t-19 -19.5q-24 -6 -45 -11t-40.5 -10.5t-39.5 -12t-43 -14.5q-20 -8 -38.5 -17.5t-35.5 -16t-32 -7t-28 10.5q-23 20 -20.5 43.5t28.5 43.5q34 26 65 42t60.5 26t58 16t57.5 11q26 5 40 -8t28 -41zM578 432q25 -36 32 -83.5t-2 -98t-35 -97.5
t-67 -81q-139 -113 -302 -41q-29 13 -59 36.5t-56 53.5t-44 63.5t-22 65.5q-11 88 21 157t105 121q60 43 125 48.5t136 -11.5q26 -6 51 -21t47 -34t40 -39.5t30 -38.5zM515 334q-8 23 -20.5 39t-29 27.5t-35.5 20t-40 15.5q-67 23 -130 11t-107 -68q-15 -18 -27 -35
t-18.5 -34.5t-7 -36.5t8.5 -41q15 -38 47 -60.5t71 -36.5q34 -12 70.5 -13.5t70 7t63.5 27.5t52 48q13 18 22.5 32.5t14 29.5t3.5 31t-8 37z" />
    <glyph glyph-name="ocircumflex" unicode="&#xf4;" horiz-adv-x="640" 
d="M531 747q9 -9 5 -26t-14.5 -33t-23.5 -27t-23 -7q-15 6 -32 18.5t-36 28t-40.5 31.5t-45.5 29q-43 -31 -82.5 -68.5t-92.5 -76.5q-17 -13 -33 -6t-26 23t-13 34t6 28q4 5 32.5 22t64.5 48q20 17 39.5 31t39.5 31q15 12 26.5 23.5t22 19.5t20.5 10.5t23 -3.5q16 -7 41 -26
t54 -41q12 -9 25.5 -18.5t26 -18t22.5 -15.5t14 -11zM578 432q25 -36 32 -83.5t-2 -98t-35 -97.5t-67 -81q-139 -113 -302 -41q-29 13 -59 36.5t-56 53.5t-44 63.5t-22 65.5q-11 88 21 157t105 121q60 43 125 48.5t136 -11.5q26 -6 51 -21t47 -34t40 -39.5t30 -38.5z
M515 334q-8 23 -20.5 39t-29 27.5t-35.5 20t-40 15.5q-67 23 -130 11t-107 -68q-15 -18 -27 -35t-18.5 -34.5t-7 -36.5t8.5 -41q15 -38 47 -60.5t71 -36.5q34 -12 70.5 -13.5t70 7t63.5 27.5t52 48q13 18 22.5 32.5t14 29.5t3.5 31t-8 37z" />
    <glyph glyph-name="otilde" unicode="&#xf5;" horiz-adv-x="640" 
d="M564 769q-3 -18 -21.5 -40.5t-44 -42.5t-54.5 -34.5t-53 -17.5q-26 -3 -48 8.5t-42 26t-38.5 26.5t-35.5 9q-23 -4 -38 -17t-27 -26t-23.5 -21.5t-26.5 -3.5q-11 4 -20.5 13.5t-15 21t-4.5 23.5t10 21q18 18 34.5 32t33.5 26t36.5 23.5t44.5 23.5q12 6 31.5 -2
t41.5 -21.5t44 -28.5t38 -23q15 -8 34 -0.5t38 20t36 27t26 22.5q5 4 13.5 3.5t16 -5.5t12.5 -16t2 -27zM578 432q25 -36 32 -83.5t-2 -98t-35 -97.5t-67 -81q-139 -113 -302 -41q-29 13 -59 36.5t-56 53.5t-44 63.5t-22 65.5q-11 88 21 157t105 121q60 43 125 48.5
t136 -11.5q26 -6 51 -21t47 -34t40 -39.5t30 -38.5zM515 334q-8 23 -20.5 39t-29 27.5t-35.5 20t-40 15.5q-67 23 -130 11t-107 -68q-15 -18 -27 -35t-18.5 -34.5t-7 -36.5t8.5 -41q15 -38 47 -60.5t71 -36.5q34 -12 70.5 -13.5t70 7t63.5 27.5t52 48q13 18 22.5 32.5
t14 29.5t3.5 31t-8 37z" />
    <glyph glyph-name="odieresis" unicode="&#xf6;" horiz-adv-x="640" 
d="M525 736q0 -31 -16.5 -55t-50.5 -24q-35 0 -59.5 18.5t-24.5 53.5q0 10 4 23.5t11.5 25.5t17.5 20.5t22 8.5q18 0 35 -4t30.5 -13t22 -22.5t8.5 -31.5zM263 731q0 -15 -4 -30t-12.5 -27t-21 -19.5t-29.5 -7.5q-37 0 -60.5 20.5t-23.5 57.5q0 32 21 55t56 23t54.5 -17.5
t19.5 -54.5zM578 432q25 -36 32 -83.5t-2 -98t-35 -97.5t-67 -81q-139 -113 -302 -41q-29 13 -59 36.5t-56 53.5t-44 63.5t-22 65.5q-11 88 21 157t105 121q60 43 125 48.5t136 -11.5q26 -6 51 -21t47 -34t40 -39.5t30 -38.5zM515 334q-8 23 -20.5 39t-29 27.5t-35.5 20
t-40 15.5q-67 23 -130 11t-107 -68q-15 -18 -27 -35t-18.5 -34.5t-7 -36.5t8.5 -41q15 -38 47 -60.5t71 -36.5q34 -12 70.5 -13.5t70 7t63.5 27.5t52 48q13 18 22.5 32.5t14 29.5t3.5 31t-8 37z" />
    <glyph glyph-name="divide" unicode="&#xf7;" horiz-adv-x="561" 
d="M358 639q0 -34 -18 -60.5t-55 -26.5q-40 0 -67 20t-27 60q0 22 4.5 42t18.5 20q5 0 10 4t9.5 8.5t9.5 8.5t10 4q20 0 39 -5t33.5 -14.5t23.5 -24.5t9 -36zM496 469q2 -32 0 -62t-11 -54q-1 -20 -19 -26.5t-43.5 -6.5t-54 2t-50.5 -1q-30 -4 -61 -2.5t-63 4.5t-64.5 6
t-63.5 2q-13 28 -13.5 63t11.5 65q28 15 54 18.5t53 2.5t55 -4t61 -2q30 0 63.5 6t63 9.5t51.5 0.5t31 -21zM353 159q0 -34 -18 -60.5t-55 -26.5q-40 0 -67 20t-27 60q0 22 4.5 42t18.5 20q5 0 10 4t9.5 8.5t9.5 8.5t10 4q20 0 39 -5t33.5 -14.5t23.5 -24.5t9 -36z" />
    <glyph glyph-name="oslash" unicode="&#xf8;" horiz-adv-x="640" 
d="M578 432q39 -37 48 -85t-4 -98t-44 -96.5t-72 -80.5q-119 -98 -258 -57q-8 -19 -17.5 -39t-21.5 -43q-23 -2 -47 5t-41.5 19.5t-24.5 29t5 34.5q4 6 9 14q5 7 11 16t14 22q-17 14 -31.5 31t-30.5 40q-10 13 -18 24.5t-14.5 23t-11 25.5t-6.5 33q-11 88 21 157t105 121
q30 21 58 35t57.5 20t60.5 5t66 -10q11 -2 20.5 -5.5t17.5 -7.5q8 17 14.5 31.5t9.5 27.5q11 20 33 20t43 -11.5t34.5 -30.5t8.5 -36q-6 -22 -16 -43t-24 -42q10 -11 21 -23.5t25 -25.5zM523 340q-5 23 -17.5 37t-29.5 25q-23 -29 -45 -60t-44 -66q-15 -23 -22 -33.5
t-10 -14.5t-4.5 -4.5t-4.5 -5t-9 -15.5t-19 -35q-7 -13 -13 -24.5t-11 -22.5q55 -3 105 17.5t84 65.5q13 18 24.5 34t18 32t6.5 33t-9 37zM359 444q-59 13 -113.5 -1.5t-92.5 -63.5q-15 -18 -27.5 -36.5t-20.5 -37t-9.5 -38.5t7.5 -42q11 -27 32.5 -44t48.5 -30
q29 47 65 106.5t77 128.5q8 14 16 28.5t17 29.5z" />
    <glyph glyph-name="ugrave" unicode="&#xf9;" horiz-adv-x="540" 
d="M381 739q15 -11 12 -28t-15 -31t-30 -21t-33 3q-27 18 -57.5 32.5t-53.5 25.5t-49.5 16.5t-48 13t-33.5 19t-5 34.5q10 37 31 54t62 7q38 -10 70.5 -26t59.5 -34t49.5 -35.5t40.5 -29.5zM509 598q2 -26 0 -56t-6 -63.5t-7.5 -70.5t-4.5 -76q-2 -69 1 -124.5t2 -111.5
q0 -15 4.5 -32.5t5.5 -33t-6 -28t-32 -16.5q-23 -4 -35 3t-17 21t-6.5 34.5t-3.5 43.5q-28 -13 -66 -33t-80.5 -37t-87 -25.5t-86.5 0.5q-6 1 -11.5 8.5t-10 18.5t-8 24.5t-4.5 26.5q-7 74 -10.5 133.5t-5 114.5t-1 111.5t2.5 125.5q1 18 15 33t37 17q26 2 40.5 -11.5
t8.5 -42.5q-11 -48 -16 -99.5t-5.5 -102t2.5 -98t9 -87.5q2 -15 19.5 -17.5t42 3t53 16t52.5 21.5q32 14 62.5 36t38.5 53q13 46 16.5 122.5t-4.5 185.5q-2 21 13.5 30.5t35 10.5t36 -7t17.5 -21z" />
    <glyph glyph-name="uacute" unicode="&#xfa;" horiz-adv-x="540" 
d="M527 799q8 -18 3 -36t-16 -21q-45 -11 -78 -22t-75 -28q-19 -8 -36 -18t-32 -16.5t-28.5 -7t-25.5 10.5q-21 20 -19 45t26 46q31 27 59.5 43.5t55 27t52 16.5t52.5 11q24 5 36.5 -8.5t25.5 -42.5zM509 598q2 -26 0 -56t-6 -63.5t-7.5 -70.5t-4.5 -76q-2 -69 1 -124.5
t2 -111.5q0 -15 4.5 -32.5t5.5 -33t-6 -28t-32 -16.5q-23 -4 -35 3t-17 21t-6.5 34.5t-3.5 43.5q-28 -13 -66 -33t-80.5 -37t-87 -25.5t-86.5 0.5q-6 1 -11.5 8.5t-10 18.5t-8 24.5t-4.5 26.5q-7 74 -10.5 133.5t-5 114.5t-1 111.5t2.5 125.5q1 18 15 33t37 17
q26 2 40.5 -11.5t8.5 -42.5q-11 -48 -16 -99.5t-5.5 -102t2.5 -98t9 -87.5q2 -15 19.5 -17.5t42 3t53 16t52.5 21.5q32 14 62.5 36t38.5 53q13 46 16.5 122.5t-4.5 185.5q-2 21 13.5 30.5t35 10.5t36 -7t17.5 -21z" />
    <glyph glyph-name="ucircumflex" unicode="&#xfb;" horiz-adv-x="540" 
d="M483 780q8 -8 4.5 -23.5t-13 -30t-21.5 -24t-21 -6.5q-14 6 -29 17.5t-32.5 25t-37 28t-41.5 26.5q-39 -28 -75 -62t-84 -69q-16 -12 -30 -5.5t-23.5 20.5t-12 30.5t5.5 25.5q3 5 29 20.5t59 42.5q18 16 35.5 28.5t36.5 28.5q13 11 23.5 21.5t20 17t19 9t21.5 -2.5
q14 -6 37 -23.5t49 -37.5q22 -17 47 -33t33 -24zM509 598q2 -26 0 -56t-6 -63.5t-7.5 -70.5t-4.5 -76q-2 -69 1 -124.5t2 -111.5q0 -15 4.5 -32.5t5.5 -33t-6 -28t-32 -16.5q-23 -4 -35 3t-17 21t-6.5 34.5t-3.5 43.5q-28 -13 -66 -33t-80.5 -37t-87 -25.5t-86.5 0.5
q-6 1 -11.5 8.5t-10 18.5t-8 24.5t-4.5 26.5q-7 74 -10.5 133.5t-5 114.5t-1 111.5t2.5 125.5q1 18 15 33t37 17q26 2 40.5 -11.5t8.5 -42.5q-11 -48 -16 -99.5t-5.5 -102t2.5 -98t9 -87.5q2 -15 19.5 -17.5t42 3t53 16t52.5 21.5q32 14 62.5 36t38.5 53q13 46 16.5 122.5
t-4.5 185.5q-2 21 13.5 30.5t35 10.5t36 -7t17.5 -21z" />
    <glyph glyph-name="udieresis" unicode="&#xfc;" horiz-adv-x="540" 
d="M458 749q0 -29 -13.5 -52t-41.5 -23q-29 0 -49.5 17.5t-20.5 50.5q0 9 3.5 22t9.5 24t14 19t18 8q30 0 55 -15.5t25 -50.5zM241 744q0 -14 -3.5 -28.5t-10 -25.5t-17 -18t-25.5 -7q-30 0 -49.5 19t-19.5 54q0 30 17 52t47 22q29 0 45 -16.5t16 -51.5zM509 598
q2 -26 0 -56t-6 -63.5t-7.5 -70.5t-4.5 -76q-2 -69 1 -124.5t2 -111.5q0 -15 4.5 -32.5t5.5 -33t-6 -28t-32 -16.5q-23 -4 -35 3t-17 21t-6.5 34.5t-3.5 43.5q-28 -13 -66 -33t-80.5 -37t-87 -25.5t-86.5 0.5q-6 1 -11.5 8.5t-10 18.5t-8 24.5t-4.5 26.5q-7 74 -10.5 133.5
t-5 114.5t-1 111.5t2.5 125.5q1 18 15 33t37 17q26 2 40.5 -11.5t8.5 -42.5q-11 -48 -16 -99.5t-5.5 -102t2.5 -98t9 -87.5q2 -15 19.5 -17.5t42 3t53 16t52.5 21.5q32 14 62.5 36t38.5 53q13 46 16.5 122.5t-4.5 185.5q-2 21 13.5 30.5t35 10.5t36 -7t17.5 -21z" />
    <glyph glyph-name="yacute" unicode="&#xfd;" horiz-adv-x="545" 
d="M493 812q8 -18 3 -36.5t-16 -21.5q-21 -6 -39 -11.5t-35.5 -11.5t-35 -12.5t-37.5 -15.5q-18 -8 -34.5 -18t-31.5 -17t-28 -7.5t-24 10.5q-20 21 -18 46t25 46q30 28 57.5 45t53 27.5t50.5 16.5t51 12q23 5 35 -8.5t24 -43.5zM574 555q-13 -36 -24 -69t-23 -66
t-25.5 -67.5t-31.5 -73.5q-27 -60 -53.5 -108t-54.5 -92.5t-58 -89t-65 -95.5q-11 -16 -22.5 -31.5t-25 -26t-29 -15t-33.5 1.5q-41 14 -52 49q-2 19 8.5 35t28 32.5t39 34t40.5 40.5q6 7 18.5 24t26 38t25 43.5t16.5 42.5q-1 8 -12 23.5t-27.5 35.5t-35.5 42.5t-34 44.5
q-21 31 -40 56.5t-36.5 49.5t-34 49.5t-33.5 56.5q-6 10 -5.5 22t5 23t13 19.5t20.5 13.5q18 8 37.5 10t27.5 -14q17 -35 38.5 -75t47.5 -80.5t56 -79t65 -71.5q24 31 41.5 69t31 79t24.5 83t21 82q4 16 13 23t20 7.5t23.5 -3.5t23.5 -8q22 -8 37 -26.5t8 -38.5z" />
    <glyph glyph-name="thorn" unicode="&#xfe;" horiz-adv-x="573" 
d="M540 462q23 -61 16 -114t-34.5 -99t-71 -83.5t-93.5 -66.5q-28 -17 -58.5 -27.5t-59 -18.5t-53 -14.5t-40.5 -14.5q-9 -20 -9 -44v-52q0 -16 4 -31t8 -29t4.5 -26.5t-8.5 -21.5q-41 -44 -91 -18q-16 8 -19.5 22t-2 30.5t6 34t4.5 34.5q2 67 2.5 127.5t-0.5 118t-3.5 114
t-6.5 116.5q-18 33 -13.5 65.5t13.5 62.5q1 18 1.5 36.5t-1.5 35.5q-7 60 -9 112t15 94q8 19 24 20.5t51 0.5q11 -10 27 -15t21 -17q4 -26 1 -52.5t-9 -53.5t-12 -56t-9 -60q33 5 67.5 10.5t69.5 8t70.5 -0.5t70.5 -15q49 -17 79.5 -43t47.5 -70zM468 419q-12 17 -38 28.5
t-59.5 16.5t-71.5 4t-73 -8q-14 -3 -28.5 -5t-27.5 -5t-22 -8t-11 -14q-6 -30 -8.5 -63t-2.5 -66.5t2.5 -65.5t7.5 -59q13 -8 25.5 -8t25 2.5t25 6t26.5 3.5q37 16 76.5 38.5t73 52t55.5 66.5t25 84z" />
    <glyph glyph-name="ydieresis" unicode="&#xff;" horiz-adv-x="540" 
d="M487 733q0 -27 -16.5 -49t-50.5 -22q-35 0 -59.5 16.5t-24.5 48.5q0 18 4 34t16 16q9 0 17.5 10t17.5 10q18 0 35 -3.5t30.5 -11.5t22 -20t8.5 -29zM185 718q0 -27 -16 -51t-51 -24q-37 0 -60.5 18.5t-23.5 51.5q0 17 3.5 33t16.5 16q4 0 12 3.5t16.5 7t16 7t12.5 3.5
q35 0 54.5 -16t19.5 -49zM534 499q-12 -32 -24 -60t-25 -55.5t-27.5 -56.5t-32.5 -62q-29 -55 -56.5 -101t-56 -88t-58.5 -83.5t-65 -87.5q-11 -15 -21.5 -28.5t-22 -23t-25.5 -13.5t-31 1q-41 11 -52 44q-2 17 8.5 31.5t28 29.5t39 31t40.5 36q6 6 18.5 21t26 34t25 39.5
t16.5 38.5q-1 7 -10.5 22.5t-24 35t-32 41t-32.5 41.5q-21 28 -41.5 49.5t-40 41.5t-37.5 41.5t-35 49.5q-6 9 -5.5 19.5t5 20.5t13 18t20.5 12q18 7 37.5 4.5t27.5 -16.5q17 -32 38.5 -68t47.5 -72.5t56 -71t65 -64.5q24 28 41.5 63.5t31 74t24.5 78t21 75.5q4 15 13 21
t20 6.5t23.5 -3t23.5 -7.5q22 -8 37 -24t8 -35z" />
    <glyph glyph-name="Amacron" unicode="&#x100;" horiz-adv-x="740" 
d="M561 907q11 -23 5.5 -50t-21.5 -47q-11 -13 -36 -17.5t-57.5 -6t-67.5 -1t-66 -2.5q-41 -3 -76 -4t-61.5 0t-42.5 4t-19 8q-15 25 -17.5 54.5t14.5 52.5q7 9 24.5 14t41 6.5t50 1t52 -2t47 -3t35.5 -1.5q28 0 59 5.5t58.5 9t48 0.5t29.5 -21zM746 59q8 -11 -7 -26.5
t-38 -27.5t-46.5 -17t-30.5 5q-22 29 -36.5 55.5t-27.5 51t-28 47.5t-38 46q-31 -10 -77 -18.5t-94.5 -16.5t-93 -14.5t-73.5 -12.5q-11 -15 -17 -30t-11 -30.5t-10 -32t-14 -34.5q-6 -14 -26.5 -17t-41.5 1.5t-36 14.5t-11 21q14 42 26 73.5t24.5 60.5t27 60t32.5 74
q26 61 47.5 116t43 106t45 99t53.5 96q3 6 17.5 9.5t30.5 4t30 -1.5t17 -7q44 -83 84 -166.5t82 -166t90 -163.5t107 -159zM439 326q-18 24 -33.5 53.5t-29.5 59t-27.5 57t-27.5 49.5q-12 -22 -32.5 -53.5t-40 -68.5t-34.5 -76.5t-17 -77.5q40 -2 73 5.5l77 17.5
q14 3 30 8.5t30 11.5q16 6 32 14z" />
    <glyph glyph-name="amacron" unicode="&#x101;" 
d="M558 829q11 -23 5.5 -50t-21.5 -47q-11 -13 -36 -18t-57.5 -6t-67.5 -0.5t-66 -2.5q-41 -4 -76 -5t-61 0.5t-42.5 4.5t-19.5 8q-15 25 -17.5 54.5t14.5 52.5q7 9 24.5 14t41 6.5t50 1t52 -2t47 -3t35.5 -1.5q28 -1 59 5t58.5 9.5t48 0.5t29.5 -21zM583 55
q13 -26 -3.5 -50t-53.5 -34q-18 -5 -29 -3t-17.5 10.5t-9 22t-4.5 32.5q-1 12 -2.5 18.5t-4 11.5t-5.5 9.5t-8 12.5q-37 -30 -85 -59.5t-98 -45t-98.5 -9t-85.5 49.5q-15 17 -28 43.5t-19.5 56.5t-4.5 61.5t18 58.5q26 45 53.5 75t57.5 47.5t62 24.5t68 7q45 -1 82.5 -11
t79.5 -26q9 10 8.5 23t-0.5 28q0 13 3 24t2.5 20.5t-7.5 17t-27 14.5q-41 6 -78 1t-71 -13t-66 -16.5t-63 -11.5l-22.5 -2.5t-25.5 -1t-21 4t-10 14.5q-7 35 -9.5 54.5t9.5 39.5q19 13 54.5 18t78 8.5t88.5 9.5t85 22q26 5 55.5 6t56 -5t47.5 -21.5t30 -43.5
q-13 -31 -18 -67t-6 -77.5t0.5 -88t2.5 -98.5q1 -50 11.5 -88.5t27.5 -73.5zM422 224q-5 18 -19 29.5t-32.5 17.5t-40.5 7t-42 -2q-34 -5 -59 -12.5t-45.5 -19t-39.5 -28.5t-40 -42q-14 -29 7.5 -44.5t60.5 -17.5q40 -2 76 5t67 22t58 37t49 48z" />
    <glyph glyph-name="Abreve" unicode="&#x102;" horiz-adv-x="753" 
d="M746 59q8 -11 -7 -26.5t-38 -27.5t-46.5 -17t-30.5 5q-22 29 -36.5 55.5t-27.5 51t-28 47.5t-38 46q-31 -10 -77 -18.5t-94.5 -16.5t-93 -14.5t-73.5 -12.5q-11 -15 -17 -30t-11 -30.5t-10 -32t-14 -34.5q-6 -14 -26.5 -17t-41.5 1.5t-36 14.5t-11 21q14 42 26 73.5
t24.5 60.5t27 60t32.5 74q22 52 41 99.5t37 92t37 86.5t41 83q-25 7 -50.5 23.5t-47 34.5t-36.5 33.5t-19 19.5q-14 15 -12 33t12.5 32t26 20.5t29.5 0.5q15 -7 27 -20t26.5 -26t33 -22.5t46.5 -7.5q27 2 48.5 11.5t41 25t40.5 35.5t47 42q12 10 30 4t32.5 -19.5t21.5 -30.5
t-3 -29q-13 -14 -28 -32t-33.5 -36.5t-39.5 -36.5t-46 -31q40 -78 78 -157t78.5 -157t86 -154.5t101.5 -149.5zM439 326q-18 24 -33.5 53.5t-29.5 59t-27.5 57t-27.5 49.5q-12 -22 -32.5 -53.5t-40 -68.5t-34.5 -76.5t-17 -77.5q40 -2 73 5.5l77 17.5q14 3 30 8.5t30 11.5
q16 6 32 14z" />
    <glyph glyph-name="abreve" unicode="&#x103;" 
d="M526 795q-17 -19 -39.5 -44.5t-51.5 -48t-65 -37t-80 -10.5q-23 2 -47.5 16t-46 31t-36.5 32l-19 19q-11 13 -9 28t11 27t22 18t25 1q13 -6 23.5 -17.5t22.5 -22.5t28 -19t40 -6q24 1 42 9.5t35 21.5t34.5 30t40.5 36q10 9 26 3.5t28.5 -17t18.5 -26t-3 -24.5zM583 55
q13 -26 -3.5 -50t-53.5 -34q-18 -5 -29 -3t-17.5 10.5t-9 22t-4.5 32.5q-1 12 -2.5 18.5t-4 11.5t-5.5 9.5t-8 12.5q-37 -30 -85 -59.5t-98 -45t-98.5 -9t-85.5 49.5q-15 17 -28 43.5t-19.5 56.5t-4.5 61.5t18 58.5q26 45 53.5 75t57.5 47.5t62 24.5t68 7q45 -1 82.5 -11
t79.5 -26q9 10 8.5 23t-0.5 28q0 13 3 24t2.5 20.5t-7.5 17t-27 14.5q-41 6 -78 1t-71 -13t-66 -16.5t-63 -11.5l-22.5 -2.5t-25.5 -1t-21 4t-10 14.5q-7 35 -9.5 54.5t9.5 39.5q19 13 54.5 18t78 8.5t88.5 9.5t85 22q26 5 55.5 6t56 -5t47.5 -21.5t30 -43.5
q-13 -31 -18 -67t-6 -77.5t0.5 -88t2.5 -98.5q1 -50 11.5 -88.5t27.5 -73.5zM422 224q-5 18 -19 29.5t-32.5 17.5t-40.5 7t-42 -2q-34 -5 -59 -12.5t-45.5 -19t-39.5 -28.5t-40 -42q-14 -29 7.5 -44.5t60.5 -17.5q40 -2 76 5t67 22t58 37t49 48z" />
    <glyph glyph-name="Aogonek" unicode="&#x104;" horiz-adv-x="740" 
d="M749 -150q-10 -8 -27.5 -15.5t-39 -13t-45 -8t-46.5 0.5q-33 3 -56.5 26.5t-32 54t2 62.5t46.5 52q17 10 46 27q-14 25 -24.5 48.5t-21.5 45.5t-24.5 43t-32.5 41q-31 -11 -77 -20.5t-94.5 -18t-93 -16t-73.5 -13.5q-11 -17 -17 -33.5t-11 -34t-10 -35.5t-14 -39
q-6 -15 -26.5 -18t-41.5 2t-36 15.5t-11 23.5q14 47 26 81.5t24.5 66.5t27 67t32.5 82q26 68 47.5 129t43 117.5t45 110t53.5 107.5q3 6 17.5 10t30.5 4.5t30 -1.5t17 -8q44 -92 84 -184.5t82 -184.5t90 -182t107 -177q6 -9 -1.5 -21t-21.5 -23.5t-32 -20.5t-34 -13
q-14 -10 -24 -20t-8 -19q1 -8 7.5 -14.5t19.5 -10.5t33.5 -5t49.5 3q12 1 20.5 -6.5t10.5 -18.5t-1.5 -24t-15.5 -22zM439 362q-18 27 -33.5 59.5t-29.5 65.5t-27.5 64t-27.5 55q-12 -24 -32.5 -59.5t-40 -76.5t-34.5 -85t-17 -86q40 -3 73 5.5t77 19.5q14 3 30 9.5t30 12.5
q16 7 32 16z" />
    <glyph glyph-name="aogonek" unicode="&#x105;" 
d="M605 -173q-10 -8 -27.5 -15.5t-39 -13t-45 -8t-46.5 0.5q-33 3 -56.5 26.5t-32 54t2 62t46.5 52.5l60 35q0 3 -0.5 6t-0.5 6q-1 12 -2.5 18.5t-4 11.5t-5.5 9.5t-8 12.5q-37 -30 -85 -59.5t-98 -45t-98.5 -9t-85.5 49.5q-15 17 -28 43.5t-19.5 56.5t-4.5 61.5t18 58.5
q26 45 53.5 75t57.5 47.5t62 24.5t68 7q45 -1 82.5 -11t79.5 -26q9 10 8.5 23t-0.5 28q0 13 3 24t2.5 20.5t-7.5 17t-27 14.5q-41 6 -78 1t-71 -13t-66 -16.5t-63 -11.5l-22.5 -2.5t-25.5 -1t-21 4t-10 14.5q-7 35 -9.5 54.5t9.5 39.5q19 13 54.5 18t78 8.5t88.5 9.5t85 22
q26 5 55.5 6t56 -5t47.5 -21.5t30 -43.5q-13 -31 -18 -67t-6 -77.5t0.5 -88t2.5 -98.5q1 -50 11.5 -88.5t27.5 -73.5q13 -26 -3.5 -50.5t-53.5 -33.5l-3 -1q-17 -11 -30.5 -22.5t-11.5 -22.5q1 -8 7.5 -14.5t19.5 -10.5t33.5 -5t49.5 3q12 1 20.5 -6.5t10.5 -18.5t-1.5 -24
t-15.5 -22zM422 224q-5 18 -19 29.5t-32.5 17.5t-40.5 7t-42 -2q-34 -5 -59 -12.5t-45.5 -19t-39.5 -28.5t-40 -42q-14 -29 7.5 -44.5t60.5 -17.5q40 -2 76 5t67 22t58 37t49 48z" />
    <glyph glyph-name="Cacute" unicode="&#x106;" horiz-adv-x="800" 
d="M652 886q9 -17 3.5 -34.5t-18.5 -20.5q-24 -6 -45 -11t-40.5 -10.5t-39.5 -12t-43 -14.5q-21 -8 -39.5 -17.5t-35.5 -16t-31.5 -7t-27.5 10.5q-23 20 -21 43.5t29 43.5q34 26 65 42t60.5 26t58 16t57.5 11q26 5 40 -8t28 -41zM750 622q8 -7 6 -19.5t-11 -26t-22.5 -26.5
t-27.5 -22t-27 -12t-21 5q-12 12 -30 24.5t-41.5 22.5t-53.5 14.5t-67 0.5q-55 -6 -107.5 -22t-97.5 -44t-78 -69t-49 -97q-11 -40 -2.5 -85.5t51.5 -90.5q37 -39 97 -54t128 -9.5t135.5 31t120.5 69.5q12 10 22.5 10.5t20 -4t18.5 -12.5t17 -16q7 -8 13 -19t7 -23
t-3.5 -23.5t-17.5 -20.5q-40 -29 -98 -54.5t-121.5 -42.5t-127 -22t-114.5 6q-46 10 -80 27.5t-58.5 42.5t-42.5 57t-33 72q-18 47 -22.5 96t4.5 95t31 88t58 76q43 41 90 74.5t97.5 56t104.5 33t113 5.5q42 -4 72 -11t54 -18t45.5 -26.5t47.5 -36.5z" />
    <glyph glyph-name="cacute" unicode="&#x107;" horiz-adv-x="636" 
d="M579 800q9 -18 3.5 -35t-18.5 -20q-24 -6 -45 -11t-40.5 -10.5t-39.5 -12t-43 -14.5q-21 -8 -39.5 -17.5t-35.5 -16t-31.5 -7t-27.5 10.5q-23 20 -21 43.5t29 43.5q34 26 65 42t60.5 26t58 16t57.5 11q26 5 40 -8t28 -41zM614 454q8 -10 -0.5 -27.5t-24.5 -33t-34.5 -24
t-30.5 0.5q-17 12 -31 22.5t-26.5 19t-26 15.5t-30.5 13q-80 28 -139.5 10.5t-99.5 -61.5q-15 -17 -31 -36.5t-26.5 -40.5t-13.5 -42.5t6 -41.5q23 -49 60 -73.5t80.5 -33t88.5 -3t84 16.5q15 4 33.5 14.5t37.5 22t38 21.5t37 13q12 2 23.5 -11t19 -31t9 -35.5t-5.5 -24.5
q-28 -26 -52.5 -43t-50 -29t-54.5 -20.5t-65 -17.5q-68 -17 -122.5 -6.5t-113.5 48.5q-71 47 -108.5 108t-26.5 147q27 205 201 284q57 18 113.5 17t108 -18t96 -48t77.5 -72z" />
    <glyph glyph-name="Ccircumflex" unicode="&#x108;" horiz-adv-x="800" 
d="M673 825q9 -8 4.5 -22.5t-16 -29t-26 -23.5t-25.5 -6q-17 5 -35.5 16t-40 24.5t-45 27.5t-50.5 26q-48 -27 -92 -60t-103 -67q-19 -11 -36.5 -5t-29 19.5t-14.5 29.5t7 25q4 4 35.5 19t71.5 42q23 15 44.5 27t44.5 27q16 11 29 21t24.5 16.5t23 9t26.5 -2.5
q17 -6 45 -22.5t60 -36.5q13 -8 28 -16t29 -15.5t25 -13.5t16 -10zM750 622q8 -7 6 -19.5t-11 -26t-22.5 -26.5t-27.5 -22t-27 -12t-21 5q-12 12 -30 24.5t-41.5 22.5t-53.5 14.5t-67 0.5q-55 -6 -107.5 -22t-97.5 -44t-78 -69t-49 -97q-11 -40 -2.5 -85.5t51.5 -90.5
q37 -39 97 -54t128 -9.5t135.5 31t120.5 69.5q12 10 22.5 10.5t20 -4t18.5 -12.5t17 -16q7 -8 13 -19t7 -23t-3.5 -23.5t-17.5 -20.5q-40 -29 -98 -54.5t-121.5 -42.5t-127 -22t-114.5 6q-46 10 -80 27.5t-58.5 42.5t-42.5 57t-33 72q-18 47 -22.5 96t4.5 95t31 88t58 76
q43 41 90 74.5t97.5 56t104.5 33t113 5.5q42 -4 72 -11t54 -18t45.5 -26.5t47.5 -36.5z" />
    <glyph glyph-name="ccircumflex" unicode="&#x109;" horiz-adv-x="636" 
d="M533 741q8 -7 4 -21.5t-14 -28.5t-23 -23t-22 -6q-15 5 -32 16t-35.5 24t-39.5 27t-45 25q-43 -26 -81.5 -58.5t-91.5 -66.5q-17 -11 -32.5 -5t-25.5 19.5t-12.5 29.5t5.5 24q4 4 32.5 19t63.5 41q20 15 39 27t39 27q15 10 26 20t21.5 16.5t20.5 8.5t23 -2
q15 -6 39.5 -22.5t53.5 -35.5q12 -8 25.5 -16t26 -15.5t22 -13.5t13.5 -10zM614 454q8 -10 -0.5 -27.5t-24.5 -33t-34.5 -24t-30.5 0.5q-17 12 -31 22.5t-26.5 19t-26 15.5t-30.5 13q-80 28 -139.5 10.5t-99.5 -61.5q-15 -17 -31 -36.5t-26.5 -40.5t-13.5 -42.5t6 -41.5
q23 -49 60 -73.5t80.5 -33t88.5 -3t84 16.5q15 4 33.5 14.5t37.5 22t38 21.5t37 13q12 2 23.5 -11t19 -31t9 -35.5t-5.5 -24.5q-28 -26 -52.5 -43t-50 -29t-54.5 -20.5t-65 -17.5q-68 -17 -122.5 -6.5t-113.5 48.5q-71 47 -108.5 108t-26.5 147q27 205 201 284
q57 18 113.5 17t108 -18t96 -48t77.5 -72z" />
    <glyph glyph-name="Cdotaccent" unicode="&#x10a;" horiz-adv-x="800" 
d="M543 871q0 -34 -18 -60.5t-55 -26.5q-40 0 -67 20t-27 60q0 16 4 31.5t12 28t19.5 20t26.5 7.5q20 0 39 -5t33.5 -14.5t23.5 -24.5t9 -36zM745 632q8 -7 6 -19.5t-11 -26.5t-22.5 -27.5t-27.5 -22.5t-27 -12t-21 5q-12 12 -30 25.5t-41 23t-53 14t-66 0.5
q-54 -6 -106.5 -22.5t-97 -44.5t-77.5 -70t-49 -99q-11 -41 -2.5 -87t51.5 -93q36 -39 95.5 -54.5t127 -9.5t135 32.5t119.5 70.5q12 10 22.5 10.5t20 -4t18.5 -13t17 -16.5q7 -8 13 -19t7 -23t-3.5 -24.5t-17.5 -21.5q-40 -30 -97.5 -55.5t-121 -42.5t-126.5 -22.5
t-113 5.5q-46 10 -79 28t-58 43.5t-42.5 58t-32.5 73.5q-18 48 -22.5 97.5t4 96.5t30.5 90t58 78q43 42 89.5 75.5t96.5 56.5t104 33.5t112 5.5q42 -4 71.5 -11t53.5 -18t45.5 -27t47.5 -37z" />
    <glyph glyph-name="cdotaccent" unicode="&#x10b;" horiz-adv-x="636" 
d="M407 751q0 -34 -18 -60.5t-55 -26.5q-40 0 -67 20t-27 60q0 16 4 31.5t12 28t19.5 20t26.5 7.5q20 0 39 -5t33.5 -14.5t23.5 -24.5t9 -36zM614 454q8 -10 -0.5 -27.5t-24.5 -33t-34.5 -24t-30.5 0.5q-17 12 -31 22.5t-26.5 19t-26 15.5t-30.5 13q-80 28 -139.5 10.5
t-99.5 -61.5q-15 -17 -31 -36.5t-26.5 -40.5t-13.5 -42.5t6 -41.5q23 -49 60 -73.5t80.5 -33t88.5 -3t84 16.5q15 4 33.5 14.5t37.5 22t38 21.5t37 13q12 2 23.5 -11t19 -31t9 -35.5t-5.5 -24.5q-28 -26 -52.5 -43t-50 -29t-54.5 -20.5t-65 -17.5q-68 -17 -122.5 -6.5
t-113.5 48.5q-71 47 -108.5 108t-26.5 147q27 205 201 284q57 18 113.5 17t108 -18t96 -48t77.5 -72z" />
    <glyph glyph-name="Ccaron" unicode="&#x10c;" horiz-adv-x="800" 
d="M750 622q8 -7 6 -19.5t-11 -26t-22.5 -26.5t-27.5 -22t-27 -12t-21 5q-12 12 -30 24.5t-41.5 22.5t-53.5 14.5t-67 0.5q-55 -6 -107.5 -22t-97.5 -44t-78 -69t-49 -97q-11 -40 -2.5 -85.5t51.5 -90.5q37 -39 97 -54t128 -9.5t135.5 31t120.5 69.5q12 10 22.5 10.5t20 -4
t18.5 -12.5t17 -16q7 -8 13 -19t7 -23t-3.5 -23.5t-17.5 -20.5q-40 -29 -98 -54.5t-121.5 -42.5t-127 -22t-114.5 6q-46 10 -80 27.5t-58.5 42.5t-42.5 57t-33 72q-18 47 -22.5 96t4.5 95t31 88t58 76q50 47 103 83t111 59q-9 8 -18 15.5t-18 15.5q-12 10 -25.5 21t-26 20.5
t-22 17.5t-13.5 13q-5 6 1 21t16.5 30t22 26t16.5 9q15 -7 32 -21t36 -31t40 -35t45 -33q21 17 41 36.5t40.5 40l42.5 42.5t49 44q13 10 25 5.5t15 -7.5q5 -5 14 -13t15.5 -17.5t7.5 -19.5t-11 -19q-5 -4 -33 -24t-63 -55q-16 -15 -31 -27.5t-30 -26.5q5 0 11 -0.5t12 -0.5
q42 -4 72 -11t54 -18t45.5 -26.5t47.5 -36.5z" />
    <glyph glyph-name="ccaron" unicode="&#x10d;" horiz-adv-x="636" 
d="M562 838q-5 -4 -33 -24.5t-63 -54.5q-20 -20 -39.5 -35.5t-39.5 -34.5q-15 -14 -26 -27t-21.5 -22t-20.5 -11.5t-23 3.5q-15 8 -40.5 29.5t-54.5 46.5q-12 10 -25.5 20.5t-26 20.5t-22 18t-13.5 13q-5 6 1 21t16.5 30t22 26t16.5 9q15 -7 32 -21t36 -31.5t40 -35
t45 -32.5q43 35 81.5 76.5t91.5 86.5q13 10 25 5.5t15 -7.5q5 -5 14 -13t15.5 -17.5t7.5 -19.5t-11 -19zM614 454q8 -10 -0.5 -27.5t-24.5 -33t-34.5 -24t-30.5 0.5q-17 12 -31 22.5t-26.5 19t-26 15.5t-30.5 13q-80 28 -139.5 10.5t-99.5 -61.5q-15 -17 -31 -36.5
t-26.5 -40.5t-13.5 -42.5t6 -41.5q23 -49 60 -73.5t80.5 -33t88.5 -3t84 16.5q15 4 33.5 14.5t37.5 22t38 21.5t37 13q12 2 23.5 -11t19 -31t9 -35.5t-5.5 -24.5q-28 -26 -52.5 -43t-50 -29t-54.5 -20.5t-65 -17.5q-68 -17 -122.5 -6.5t-113.5 48.5q-71 47 -108.5 108
t-26.5 147q27 205 201 284q57 18 113.5 17t108 -18t96 -48t77.5 -72z" />
    <glyph glyph-name="Dcaron" unicode="&#x10e;" horiz-adv-x="810" 
d="M775 400q-10 -33 -22.5 -59t-29.5 -48.5t-38.5 -44.5t-49.5 -49q-56 -54 -115 -91.5t-124.5 -62.5t-139.5 -39.5t-160 -23.5q-26 -3 -40.5 10t-12.5 42q3 50 4.5 106.5t2 113.5t0.5 111v99q-21 20 -27.5 41.5t-3.5 40.5t11.5 33.5t17.5 20.5q52 32 107.5 50.5t118.5 29.5
l-17 15q-12 10 -25.5 21t-26 20.5t-22 17.5t-13.5 13q-5 6 1 21t16.5 30t22 26t16.5 9q15 -7 32 -21t36 -31t40 -35t45 -33q43 35 81.5 76.5t91.5 86.5q13 10 25 5.5t15 -7.5q5 -5 14 -13t15.5 -17.5t7.5 -19.5t-11 -19q-5 -4 -33 -24t-63 -55q-13 -12 -25 -22t-24 -21l31 3
q33 3 63.5 3.5t59 -3.5t54 -15t48.5 -31q27 -25 41 -56.5t18.5 -66t0.5 -70t-14 -67.5zM634 567q-27 11 -81.5 11.5t-120.5 -7.5t-136.5 -23.5t-131.5 -36.5q-20 -47 -24.5 -91t-2.5 -87.5t5.5 -89t-0.5 -94.5q76 -17 157 7t167 71q28 15 61 37.5t63.5 49.5t54 58t33 63.5
t0.5 66t-44 65.5z" />
    <glyph glyph-name="dcaron" unicode="&#x10f;" horiz-adv-x="825" 
d="M760 726q-6 -5 -17 -13t-23.5 -16t-25 -15.5t-22.5 -10.5q-5 -2 -10.5 5t-9 17.5t-3 21.5t8.5 17t16.5 12t15 13t10.5 14t3 13q-2 14 -21 23.5t-64 1.5q-9 -2 -15.5 5.5t-8 18t1.5 22.5t12 21q7 7 20.5 14.5t30 12.5t34.5 7t36 0q25 -3 43.5 -25t25 -51t-2 -59t-35.5 -49
zM604 745q-4 -45 -8.5 -82.5t-8.5 -73t-6.5 -70t-2.5 -73.5q0 -75 1 -151t-3 -160q3 -15 13 -29.5t17.5 -29t7.5 -29t-17 -30.5q-19 -17 -41 -25.5t-50 -0.5q-10 10 -12.5 23t-3 25.5t-3 24t-12.5 17.5q-34 -31 -80 -55t-94 -36t-93.5 -9.5t-78.5 25.5q-47 32 -70.5 82
t-25.5 131q-2 54 4 101t18 86t29 67.5t38 45.5q33 26 70.5 34t76.5 4t77 -17.5t71 -30.5q20 -10 35.5 -13.5t37.5 0.5q5 27 6.5 59t1 63.5t-1.5 60t-1 49.5q0 23 15 34t35 13q10 1 20.5 -0.5t19.5 -5t14.5 -9.5t4.5 -15zM475 226q9 14 11 26.5t0 24.5t-5.5 25.5t-5.5 29.5
q-7 8 -18 17t-23.5 17.5t-25.5 14.5t-23 9q-33 9 -65 19t-61 13.5t-55 -3.5t-47 -32q-37 -44 -49 -83.5t-8 -86.5q2 -31 23.5 -52.5t50.5 -35.5q42 -20 84 -18t81.5 18t74 42t61.5 55z" />
    <glyph glyph-name="Dcroat" unicode="&#x110;" horiz-adv-x="905" 
d="M865 444q-10 -37 -22.5 -65.5t-29.5 -53.5t-38.5 -49.5t-49.5 -54.5q-56 -60 -115 -101.5t-124.5 -69.5t-139.5 -44t-160 -26q-26 -3 -40.5 11.5t-12.5 46.5q1 27 2 51.5t1.5 49.5t1.5 51.5t1 57.5q-8 -1 -15.5 -4t-16.5 -6t-18.5 -5t-19.5 -1q-17 -1 -28 8t-16.5 25
t-4.5 39t8 51q2 7 7.5 13t10.5 10q6 4 14 8q26 2 43 7.5t37 6.5v116q-11 11 -12.5 35.5t0.5 50.5q3 30 10 65q46 33 97.5 52t108.5 30t120.5 17t134.5 13q33 3 63 5t57.5 -2t52 -15.5t47.5 -33.5q17 -17 30 -31t16 -35q4 -28 8 -54t5 -53t-1.5 -55.5t-11.5 -60.5zM724 640
q-123 10 -236 -8t-234 -64q-6 -16 -11 -36.5t-8 -41.5t-5 -41t-3 -35q14 3 29 10t32 12q13 2 27.5 0t28 -8.5t24.5 -17t17 -25.5q6 -17 4 -36t-10.5 -35t-22 -27t-29.5 -12q-30 -2 -53 -6.5t-43 -6.5q1 -15 2 -25.5t1 -21t-0.5 -22t-1.5 -28.5q38 -9 77.5 -6.5t80 14.5
t82 32.5t84.5 46.5q22 13 43.5 25t40.5 24.5t35 26.5t28 33q53 84 60 157.5t-39 121.5z" />
    <glyph glyph-name="dcroat" unicode="&#x111;" horiz-adv-x="704" 
d="M726 686q6 -14 4.5 -30.5t-8 -31.5t-17.5 -25t-23 -11q-48 10 -98 7q-6 -77 -6 -149q0 -75 1 -151t-3 -160q3 -15 13 -29.5t17.5 -29t7.5 -29t-17 -30.5q-19 -17 -41 -25.5t-50 -0.5q-10 10 -12.5 23t-3 25.5t-3 24t-12.5 17.5q-34 -31 -80 -55t-94 -36t-93.5 -9.5
t-78.5 25.5q-47 32 -70.5 82t-25.5 131q-2 54 4 101t18 86t29 67.5t38 45.5q33 26 70.5 34t76.5 4t77 -17.5t71 -30.5q20 -10 35.5 -13.5t37.5 0.5q3 18 4.5 41.5t1.5 48.5q-33 -5 -62 -9t-52 -2q-26 -2 -34 24t3 68q3 12 15 20q5 4 13 8q34 3 61 4t52 2q-1 18 -1.5 34
t-0.5 27q0 23 15 34t35 13q10 1 20.5 -0.5t19.5 -5t14.5 -9.5t4.5 -15q-2 -17 -3 -33.5t-3 -33.5q27 4 60 12q20 5 41 -5t32 -33zM475 226q9 14 11 26.5t0 24.5t-5.5 25.5t-5.5 29.5q-7 8 -18 17t-23.5 17.5t-25.5 14.5t-23 9q-33 9 -65 19t-61 13.5t-55 -3.5t-47 -32
q-37 -44 -49 -83.5t-8 -86.5q2 -31 23.5 -52.5t50.5 -35.5q42 -20 84 -18t81.5 18t74 42t61.5 55z" />
    <glyph glyph-name="Emacron" unicode="&#x112;" horiz-adv-x="650" 
d="M564 906q11 -23 5.5 -50t-21.5 -47q-11 -13 -36 -17.5t-57 -6t-67.5 -1t-66.5 -2.5q-41 -3 -76 -4t-61 0t-42.5 4t-19.5 8q-15 25 -17.5 54.5t14.5 52.5q7 9 24.5 14t41 6.5t50 1t52 -2t47.5 -3t35 -1.5q28 0 59 5.5t58.5 9.5t48.5 0.5t29 -21.5zM587 726q9 -3 12.5 -18
t2 -32t-7.5 -32t-15 -18q-43 -13 -96 -23t-108 -20t-108.5 -22t-96.5 -28q-3 -8 -5.5 -26.5t-3.5 -40.5t1 -42.5t7 -32.5q44 7 96.5 21t107 29t107.5 26.5t99 14.5q11 0 15 -16t2.5 -36.5t-8 -40t-16.5 -25.5q-19 -12 -46.5 -17.5t-54.5 -11.5q-39 -9 -80.5 -18t-81.5 -17.5
t-76.5 -17t-64.5 -17.5q-8 -11 -12.5 -33t-5.5 -46.5t0 -47t4 -34.5q48 5 98.5 19.5t103.5 30t108.5 28.5t113.5 16q13 1 17 -17t1 -40.5t-12.5 -41.5t-23.5 -20q-42 -4 -95 -18t-108.5 -30.5t-110.5 -31.5t-103 -22q-14 -2 -27 -3.5t-24 -1t-20 5t-15 15.5q-5 9 -5.5 20.5
t0.5 23.5t3 24t3 23q4 56 3 109.5t-2 97.5q-1 78 -2 131t-1 97q-9 7 -16 24.5t-5.5 36.5t13.5 36t40 24q56 14 126 33.5t139.5 35t131.5 22.5t102 -5z" />
    <glyph glyph-name="emacron" unicode="&#x113;" horiz-adv-x="576" 
d="M536 801q11 -23 5.5 -50t-21.5 -47q-11 -13 -36 -18t-57.5 -6t-67.5 -0.5t-66 -2.5q-41 -4 -76 -5t-61 0.5t-42.5 4.5t-19.5 8q-15 25 -17.5 54.5t14.5 52.5q7 9 24.5 14t41 6.5t50 1t52 -2t47.5 -3t35 -1.5q28 -1 59 5t58.5 9.5t48 0.5t29.5 -21zM554 41
q-53 -22 -108 -38t-110 -20.5t-108.5 7t-102.5 44.5q-37 26 -66.5 61.5t-33.5 89.5q-8 107 16.5 194t80.5 143q33 33 76.5 49.5t90 20t92.5 -4.5t82 -26q25 -12 41 -41t23 -62t6 -65t-8 -51q-24 -60 -65.5 -89t-93.5 -41t-109.5 -14t-113.5 -7q-12 -13 -17 -20t8 -23
q23 -30 53.5 -42.5t65 -13t72.5 8t77 19.5q20 6 39 15.5t36.5 18t33.5 13t30 0.5q11 -4 18.5 -21.5t10 -38.5t-1 -40t-14.5 -26zM445 417q-18 19 -42.5 32t-52 17.5t-56 0t-54.5 -18.5q-13 -7 -35.5 -18t-43.5 -25.5t-35 -32t-8 -36.5q4 -12 14.5 -16t23.5 -4t27 1t24 -3
q28 5 64.5 9t71.5 14t63 28t39 52z" />
    <glyph glyph-name="Ebreve" unicode="&#x114;" horiz-adv-x="650" 
d="M552 915q-20 -22 -45.5 -52t-59 -56.5t-75.5 -43.5t-94 -12q-27 3 -55.5 19.5t-53 36t-42.5 37t-22 22.5q-13 15 -11 32.5t12.5 31.5t25.5 21t29 1q15 -7 27 -20t26.5 -26t33 -22.5t46.5 -7.5t49 11.5t41 25t40.5 35.5t46.5 42q12 10 30 4t33 -19.5t21.5 -30.5t-3.5 -29z
M587 726q9 -3 12.5 -18t2 -32t-7.5 -32t-15 -18q-43 -13 -96 -23t-108 -20t-108.5 -22t-96.5 -28q-3 -8 -5.5 -26.5t-3.5 -40.5t1 -42.5t7 -32.5q44 7 96.5 21t107 29t107.5 26.5t99 14.5q11 0 15 -16t2.5 -36.5t-8 -40t-16.5 -25.5q-19 -12 -46.5 -17.5t-54.5 -11.5
q-39 -9 -80.5 -18t-81.5 -17.5t-76.5 -17t-64.5 -17.5q-8 -11 -12.5 -33t-5.5 -46.5t0 -47t4 -34.5q48 5 98.5 19.5t103.5 30t108.5 28.5t113.5 16q13 1 17 -17t1 -40.5t-12.5 -41.5t-23.5 -20q-42 -4 -95 -18t-108.5 -30.5t-110.5 -31.5t-103 -22q-14 -2 -27 -3.5t-24 -1
t-20 5t-15 15.5q-5 9 -5.5 20.5t0.5 23.5t3 24t3 23q4 56 3 109.5t-2 97.5q-1 78 -2 131t-1 97q-9 7 -16 24.5t-5.5 36.5t13.5 36t40 24q56 14 126 33.5t139.5 35t131.5 22.5t102 -5z" />
    <glyph glyph-name="ebreve" unicode="&#x115;" horiz-adv-x="576" 
d="M503 793q-17 -20 -40 -46t-52.5 -49.5t-66.5 -38t-82 -10.5q-24 2 -49 16.5t-47 31.5t-37 32.5t-19 20.5q-12 13 -10 28.5t11 27.5t22.5 18.5t25.5 0.5q13 -6 24 -17.5t23.5 -23t29 -19.5t40.5 -7t43 10t36 22.5t35.5 31t41.5 37.5q10 9 26 3.5t29 -17.5t19 -27t-3 -25z
M554 41q-53 -22 -108 -38t-110 -20.5t-108.5 7t-102.5 44.5q-37 26 -66.5 61.5t-33.5 89.5q-8 107 16.5 194t80.5 143q33 33 76.5 49.5t90 20t92.5 -4.5t82 -26q25 -12 41 -41t23 -62t6 -65t-8 -51q-24 -60 -65.5 -89t-93.5 -41t-109.5 -14t-113.5 -7q-12 -13 -17 -20t8 -23
q23 -30 53.5 -42.5t65 -13t72.5 8t77 19.5q20 6 39 15.5t36.5 18t33.5 13t30 0.5q11 -4 18.5 -21.5t10 -38.5t-1 -40t-14.5 -26zM445 417q-18 19 -42.5 32t-52 17.5t-56 0t-54.5 -18.5q-13 -7 -35.5 -18t-43.5 -25.5t-35 -32t-8 -36.5q4 -12 14.5 -16t23.5 -4t27 1t24 -3
q28 5 64.5 9t71.5 14t63 28t39 52z" />
    <glyph glyph-name="Edotaccent" unicode="&#x116;" horiz-adv-x="650" 
d="M395 847q0 -34 -18 -60.5t-55 -26.5q-40 0 -67 20t-27 60q0 16 4 31.5t12 28t19.5 20t26.5 7.5q20 0 39 -5t33.5 -14.5t23.5 -24.5t9 -36zM587 726q9 -3 12.5 -18t2 -32t-7.5 -32t-15 -18q-43 -13 -96 -23t-108 -20t-108.5 -22t-96.5 -28q-3 -8 -5.5 -26.5t-3.5 -40.5
t1 -42.5t7 -32.5q44 7 96.5 21t107 29t107.5 26.5t99 14.5q11 0 15 -16t2.5 -36.5t-8 -40t-16.5 -25.5q-19 -12 -46.5 -17.5t-54.5 -11.5q-39 -9 -80.5 -18t-81.5 -17.5t-76.5 -17t-64.5 -17.5q-8 -11 -12.5 -33t-5.5 -46.5t0 -47t4 -34.5q48 5 98.5 19.5t103.5 30
t108.5 28.5t113.5 16q13 1 17 -17t1 -40.5t-12.5 -41.5t-23.5 -20q-42 -4 -95 -18t-108.5 -30.5t-110.5 -31.5t-103 -22q-14 -2 -27 -3.5t-24 -1t-20 5t-15 15.5q-5 9 -5.5 20.5t0.5 23.5t3 24t3 23q4 56 3 109.5t-2 97.5q-1 78 -2 131t-1 97q-9 7 -16 24.5t-5.5 36.5
t13.5 36t40 24q56 14 126 33.5t139.5 35t131.5 22.5t102 -5z" />
    <glyph glyph-name="edotaccent" unicode="&#x117;" horiz-adv-x="576" 
d="M404 754q0 -34 -18 -60.5t-55 -26.5q-40 0 -67 20t-27 60q0 16 4 31.5t12 28t19.5 20t26.5 7.5q20 0 39 -5t33.5 -14.5t23.5 -24.5t9 -36zM554 41q-53 -22 -108 -38t-110 -20.5t-108.5 7t-102.5 44.5q-37 26 -66.5 61.5t-33.5 89.5q-8 107 16.5 194t80.5 143
q33 33 76.5 49.5t90 20t92.5 -4.5t82 -26q25 -12 41 -41t23 -62t6 -65t-8 -51q-24 -60 -65.5 -89t-93.5 -41t-109.5 -14t-113.5 -7q-12 -13 -17 -20t8 -23q23 -30 53.5 -42.5t65 -13t72.5 8t77 19.5q20 6 39 15.5t36.5 18t33.5 13t30 0.5q11 -4 18.5 -21.5t10 -38.5t-1 -40
t-14.5 -26zM445 417q-18 19 -42.5 32t-52 17.5t-56 0t-54.5 -18.5q-13 -7 -35.5 -18t-43.5 -25.5t-35 -32t-8 -36.5q4 -12 14.5 -16t23.5 -4t27 1t24 -3q28 5 64.5 9t71.5 14t63 28t39 52z" />
    <glyph glyph-name="Eogonek" unicode="&#x118;" horiz-adv-x="650" 
d="M587 807q9 -3 12.5 -20t2 -36.5t-7.5 -36t-15 -19.5q-43 -14 -96 -25t-108 -22t-108.5 -24.5t-96.5 -31.5q-3 -8 -5.5 -29t-3.5 -45t1 -47.5t7 -36.5q44 8 96.5 24t107 32t107.5 29t99 16q11 1 15 -17t2.5 -41t-8 -44.5t-16.5 -28.5q-19 -14 -46.5 -19t-54.5 -13
q-39 -10 -80.5 -20t-81.5 -19.5t-76.5 -19t-64.5 -19.5q-8 -12 -12.5 -36.5t-5.5 -51.5t0 -52t4 -38q48 6 98.5 21.5t103.5 32.5t108.5 32t113.5 18q13 1 17 -19t1 -44.5t-12.5 -46t-23.5 -22.5q-31 -3 -67 -12t-75 -22q-20 -14 -37 -30t-13 -30t29.5 -21t82.5 7
q12 3 21 -3.5t12.5 -18t1 -24.5t-12.5 -23q-9 -9 -25.5 -18.5t-37 -17t-44 -13t-46.5 -5.5q-26 0 -48 13.5t-36.5 34.5t-18.5 46.5t5 49.5q-59 -19 -108 -26q-14 -2 -27 -4t-24 -1.5t-20 5.5t-15 17q-5 10 -5.5 22.5t0.5 26t3 27t3 25.5q4 62 3 122t-2 108q-1 86 -2 145.5
t-1 108.5q-9 8 -16 27t-5.5 40t13.5 40t40 27q56 16 126 37.5t139.5 39t131.5 25t102 -5.5z" />
    <glyph glyph-name="eogonek" unicode="&#x119;" horiz-adv-x="576" 
d="M554 41q-38 -16 -77 -29t-79 -21q-2 -2 -4 -3q-22 -13 -41 -27t-17 -28q1 -8 7.5 -14.5t19.5 -10.5t33.5 -5t49.5 3q12 1 20.5 -6.5t10.5 -18.5t-1.5 -24t-15.5 -22q-10 -8 -27.5 -15.5t-39 -13t-45 -8t-46.5 0.5q-32 3 -55 24.5t-32 50t-2 59t36 52.5q-32 5 -63.5 17
t-60.5 32q-37 26 -66.5 61.5t-33.5 89.5q-8 107 16.5 194t80.5 143q33 33 76.5 49.5t90 20t92.5 -4.5t82 -26q25 -12 41 -41t23 -62t6 -65t-8 -51q-24 -60 -65.5 -89t-93.5 -41t-109.5 -14t-113.5 -7q-12 -13 -17 -20t8 -23q23 -30 53.5 -42.5t65 -13t72.5 8t77 19.5
q20 6 39 15.5t36.5 18t33.5 13t30 0.5q11 -4 18.5 -21.5t10 -38.5t-1 -40t-14.5 -26zM445 417q-18 19 -42.5 32t-52 17.5t-56 0t-54.5 -18.5q-13 -7 -35.5 -18t-43.5 -25.5t-35 -32t-8 -36.5q4 -12 14.5 -16t23.5 -4t27 1t24 -3q28 5 64.5 9t71.5 14t63 28t39 52z" />
    <glyph glyph-name="Ecaron" unicode="&#x11a;" horiz-adv-x="650" 
d="M587 726q9 -3 12.5 -18t2 -32t-7.5 -32t-15 -18q-43 -13 -96 -23t-108 -20t-108.5 -22t-96.5 -28q-3 -8 -5.5 -26.5t-3.5 -40.5t1 -42.5t7 -32.5q44 7 96.5 21t107 29t107.5 26.5t99 14.5q11 0 15 -16t2.5 -36.5t-8 -40t-16.5 -25.5q-19 -12 -46.5 -17.5t-54.5 -11.5
q-39 -9 -80.5 -18t-81.5 -17.5t-76.5 -17t-64.5 -17.5q-8 -11 -12.5 -33t-5.5 -46.5t0 -47t4 -34.5q48 5 98.5 19.5t103.5 30t108.5 28.5t113.5 16q13 1 17 -17t1 -40.5t-12.5 -41.5t-23.5 -20q-42 -4 -95 -18t-108.5 -30.5t-110.5 -31.5t-103 -22q-14 -2 -27 -3.5t-24 -1
t-20 5t-15 15.5q-5 9 -5.5 20.5t0.5 23.5t3 24t3 23q4 56 3 109.5t-2 97.5q-1 78 -2 131t-1 97q-9 7 -16 24.5t-5.5 36.5t13.5 36t40 24q35 9 75 20t84 22q-24 21 -51 45q-12 10 -25.5 20.5t-26 20.5t-22 18t-13.5 13q-5 6 1 21t16.5 30t22 26t16.5 9q15 -7 31.5 -21
t35.5 -31.5t40.5 -35t45.5 -32.5q21 17 41 36.5t40.5 40l42.5 42.5t49 44q13 10 24.5 5.5t15.5 -7.5q5 -5 14 -13t15.5 -17.5t7 -19.5t-10.5 -19q-5 -4 -33 -24.5t-63 -54.5q-18 -17 -35 -31t-34 -30q59 11 109.5 15t85.5 -6z" />
    <glyph glyph-name="ecaron" unicode="&#x11b;" horiz-adv-x="576" 
d="M541 840q-5 -4 -32.5 -24t-63.5 -55q-20 -20 -39 -35t-40 -35q-15 -14 -26 -27t-21.5 -22t-20.5 -11.5t-23 3.5q-15 8 -40.5 29.5t-54.5 46.5q-12 10 -25 21t-25.5 20.5t-22.5 17.5t-14 13q-5 6 1.5 21t17 30t21.5 26t16 9q15 -7 32 -21t36 -31t40 -35t45 -33
q43 35 81.5 76.5t91.5 86.5q13 10 25 5.5t15 -7.5q5 -5 14 -13t15.5 -17.5t7.5 -19.5t-11 -19zM554 41q-53 -22 -108 -38t-110 -20.5t-108.5 7t-102.5 44.5q-37 26 -66.5 61.5t-33.5 89.5q-8 107 16.5 194t80.5 143q33 33 76.5 49.5t90 20t92.5 -4.5t82 -26q25 -12 41 -41
t23 -62t6 -65t-8 -51q-24 -60 -65.5 -89t-93.5 -41t-109.5 -14t-113.5 -7q-12 -13 -17 -20t8 -23q23 -30 53.5 -42.5t65 -13t72.5 8t77 19.5q20 6 39 15.5t36.5 18t33.5 13t30 0.5q11 -4 18.5 -21.5t10 -38.5t-1 -40t-14.5 -26zM445 417q-18 19 -42.5 32t-52 17.5t-56 0
t-54.5 -18.5q-13 -7 -35.5 -18t-43.5 -25.5t-35 -32t-8 -36.5q4 -12 14.5 -16t23.5 -4t27 1t24 -3q28 5 64.5 9t71.5 14t63 28t39 52z" />
    <glyph glyph-name="Gcircumflex" unicode="&#x11c;" horiz-adv-x="995" 
d="M763 825q9 -8 4.5 -22.5t-16 -29t-26 -23.5t-25.5 -6q-17 5 -35.5 16t-40 24.5t-45 27.5t-50.5 26q-48 -27 -92 -60t-103 -67q-19 -11 -36.5 -5t-29 19.5t-14.5 29.5t7 25q4 4 35.5 19t71.5 42q23 15 44.5 27t44.5 27q16 11 29 21t24.5 16.5t23 9t26.5 -2.5
q17 -6 45 -22.5t60 -36.5q13 -8 28 -16t29 -15.5t25 -13.5t16 -10zM935 311q-27 -99 -113 -185q-51 -51 -116 -82.5t-132.5 -46t-132 -13.5t-113.5 15q-42 12 -76.5 22.5t-63.5 25t-53.5 36t-46.5 54.5q-51 77 -53.5 155t42.5 166q21 42 47 74t58 57.5t70.5 45t85.5 36.5
q67 25 131.5 36.5t125 11.5t116 -11.5t103.5 -33.5q22 -10 41 -21t26 -30q4 -12 -8 -29.5t-30 -32.5t-39 -24.5t-35 -4.5q-15 5 -28 11.5t-25 13t-24.5 11.5t-26.5 8q-54 10 -114 8.5t-118.5 -14t-111 -37t-91.5 -60.5q-37 -35 -63 -71t-33 -88q-6 -45 20 -90t91 -76
q56 -27 119 -38t125 -5.5t120 28t104 62.5q13 11 24 29.5t19 35.5q9 20 16 42q-51 0 -100 -12t-96.5 -26.5t-93 -25.5t-87.5 -8q-10 1 -17 16t-8.5 34t3.5 36.5t19 22.5q35 13 81 24.5t94 21t94.5 17t82.5 12.5q23 3 50.5 8.5t53.5 9t48 2.5t34 -11q14 -11 18 -24t2.5 -27.5
t-6.5 -30t-9 -30.5z" />
    <glyph glyph-name="gcircumflex" unicode="&#x11d;" horiz-adv-x="594" 
d="M527 745q8 -8 4 -22.5t-14.5 -29t-23.5 -23.5t-22 -6q-15 5 -32 16t-36.5 24.5t-41 27.5t-45.5 26q-43 -27 -82.5 -60t-92.5 -67q-17 -11 -33 -5t-26 19.5t-13 29.5t6 25q4 4 32.5 19t64.5 42q20 15 40 27t40 27q15 11 26 21t21.5 16.5t21 9t23.5 -2.5q15 -6 40 -22.5
t54 -36.5q12 -8 25.5 -16t26.5 -15.5t22.5 -13.5t14.5 -10zM561 120q-1 -38 -4.5 -68.5t-12.5 -58.5t-25.5 -53.5t-44.5 -52.5q-61 -58 -129 -75t-143 -4q-45 8 -76.5 20t-60.5 32q-15 11 -15.5 36t8.5 48.5t25 36.5t34 0q15 -11 34 -19.5t41 -14.5t45 -9.5t44 -4.5
q28 -2 52 -3t44.5 2.5t38 14t31.5 33.5q13 20 18.5 37t5.5 34t-3 35.5t-7 41.5q-35 -37 -80 -59t-92.5 -30t-93.5 -1.5t-84 26.5q-37 19 -58.5 55t-29 79t-2.5 88.5t21 83.5q19 45 34.5 76.5t36.5 55t51.5 41.5t79.5 36q27 10 54.5 5t54.5 -14.5t52 -18.5t46 -9
q-8 29 -5.5 43t10.5 18.5t19.5 4t23.5 -0.5q11 0 21.5 -1.5t18 -7t12 -16t3.5 -28.5q-2 -38 -2 -68t1 -58l2 -56t2 -62q2 -50 4 -95t0 -95zM457 377q-11 24 -29 38t-41.5 20.5t-50.5 8t-56 1.5q-24 0 -50 -5t-50.5 -16t-44.5 -30t-30 -46q-9 -24 -11 -50t3 -50t17.5 -42.5
t32.5 -26.5q16 -6 41 -8t54 1.5t59 11.5t55 21q56 29 84 72.5t17 99.5z" />
    <glyph glyph-name="Gbreve" unicode="&#x11e;" horiz-adv-x="995" 
d="M727 909q-20 -22 -45.5 -52t-59.5 -56.5t-76 -43.5t-93 -12q-27 2 -56 18.5t-53.5 36.5t-42 37.5t-21.5 22.5q-14 15 -12 32.5t12.5 31.5t26 21t29.5 1q15 -7 27 -20.5t26 -26.5t33 -22t47 -7q27 1 48.5 11t41 25.5t40 35.5t47.5 42q12 10 30 4t32.5 -19.5t21.5 -30.5
t-3 -29zM935 311q-27 -99 -113 -185q-51 -51 -116 -82.5t-132.5 -46t-132 -13.5t-113.5 15q-42 12 -76.5 22.5t-63.5 25t-53.5 36t-46.5 54.5q-51 77 -53.5 155t42.5 166q21 42 47 74t58 57.5t70.5 45t85.5 36.5q67 25 131.5 36.5t125 11.5t116 -11.5t103.5 -33.5
q22 -10 41 -21t26 -30q4 -12 -8 -29.5t-30 -32.5t-39 -24.5t-35 -4.5q-15 5 -28 11.5t-25 13t-24.5 11.5t-26.5 8q-54 10 -114 8.5t-118.5 -14t-111 -37t-91.5 -60.5q-37 -35 -63 -71t-33 -88q-6 -45 20 -90t91 -76q56 -27 119 -38t125 -5.5t120 28t104 62.5q13 11 24 29.5
t19 35.5q9 20 16 42q-51 0 -100 -12t-96.5 -26.5t-93 -25.5t-87.5 -8q-10 1 -17 16t-8.5 34t3.5 36.5t19 22.5q35 13 81 24.5t94 21t94.5 17t82.5 12.5q23 3 50.5 8.5t53.5 9t48 2.5t34 -11q14 -11 18 -24t2.5 -27.5t-6.5 -30t-9 -30.5z" />
    <glyph glyph-name="gbreve" unicode="&#x11f;" horiz-adv-x="594" 
d="M526 807q-18 -21 -43 -49.5t-57.5 -53t-72.5 -40.5t-89 -11q-26 2 -53.5 17.5t-51 34t-40.5 35t-21 21.5q-13 14 -11 30.5t12 29.5t25 20t28 1q14 -6 26 -19t25.5 -25t31 -21t44.5 -7q26 1 46.5 10.5t39.5 24t38.5 33t45.5 39.5q11 10 28.5 4t31.5 -18.5t20.5 -28.5
t-3.5 -27zM561 120q-1 -38 -4.5 -68.5t-12.5 -58.5t-25.5 -53.5t-44.5 -52.5q-61 -58 -129 -75t-143 -4q-45 8 -76.5 20t-60.5 32q-15 11 -15.5 36t8.5 48.5t25 36.5t34 0q15 -11 34 -19.5t41 -14.5t45 -9.5t44 -4.5q28 -2 52 -3t44.5 2.5t38 14t31.5 33.5q13 20 18.5 37
t5.5 34t-3 35.5t-7 41.5q-35 -37 -80 -59t-92.5 -30t-93.5 -1.5t-84 26.5q-37 19 -58.5 55t-29 79t-2.5 88.5t21 83.5q19 45 34.5 76.5t36.5 55t51.5 41.5t79.5 36q27 10 54.5 5t54.5 -14.5t52 -18.5t46 -9q-8 29 -5.5 43t10.5 18.5t19.5 4t23.5 -0.5q11 0 21.5 -1.5t18 -7
t12 -16t3.5 -28.5q-2 -38 -2 -68t1 -58l2 -56t2 -62q2 -50 4 -95t0 -95zM457 377q-11 24 -29 38t-41.5 20.5t-50.5 8t-56 1.5q-24 0 -50 -5t-50.5 -16t-44.5 -30t-30 -46q-9 -24 -11 -50t3 -50t17.5 -42.5t32.5 -26.5q16 -6 41 -8t54 1.5t59 11.5t55 21q56 29 84 72.5
t17 99.5z" />
    <glyph glyph-name="Gdotaccent" unicode="&#x120;" horiz-adv-x="995" 
d="M575 868q0 -34 -18 -60.5t-55 -26.5q-40 0 -67 20t-27 60q0 16 4 31.5t12 28t19.5 20t26.5 7.5q20 0 39 -5t33.5 -14.5t23.5 -24.5t9 -36zM935 311q-27 -99 -113 -185q-51 -51 -116 -82.5t-132.5 -46t-132 -13.5t-113.5 15q-42 12 -76.5 22.5t-63.5 25t-53.5 36
t-46.5 54.5q-51 77 -53.5 155t42.5 166q21 42 47 74t58 57.5t70.5 45t85.5 36.5q67 25 131.5 36.5t125 11.5t116 -11.5t103.5 -33.5q22 -10 41 -21t26 -30q4 -12 -8 -29.5t-30 -32.5t-39 -24.5t-35 -4.5q-15 5 -28 11.5t-25 13t-24.5 11.5t-26.5 8q-54 10 -114 8.5
t-118.5 -14t-111 -37t-91.5 -60.5q-37 -35 -63 -71t-33 -88q-6 -45 20 -90t91 -76q56 -27 119 -38t125 -5.5t120 28t104 62.5q13 11 24 29.5t19 35.5q9 20 16 42q-51 0 -100 -12t-96.5 -26.5t-93 -25.5t-87.5 -8q-10 1 -17 16t-8.5 34t3.5 36.5t19 22.5q35 13 81 24.5t94 21
t94.5 17t82.5 12.5q23 3 50.5 8.5t53.5 9t48 2.5t34 -11q14 -11 18 -24t2.5 -27.5t-6.5 -30t-9 -30.5z" />
    <glyph glyph-name="gdotaccent" unicode="&#x121;" horiz-adv-x="594" 
d="M372 775q0 -34 -18 -60.5t-55 -26.5q-40 0 -67 20t-27 60q0 16 4 31.5t12 28t19.5 20t26.5 7.5q20 0 39 -5t33.5 -14.5t23.5 -24.5t9 -36zM561 120q-1 -38 -4.5 -68.5t-12.5 -58.5t-25.5 -53.5t-44.5 -52.5q-61 -58 -129 -75t-143 -4q-45 8 -76.5 20t-60.5 32
q-15 11 -15.5 36t8.5 48.5t25 36.5t34 0q15 -11 34 -19.5t41 -14.5t45 -9.5t44 -4.5q28 -2 52 -3t44.5 2.5t38 14t31.5 33.5q13 20 18.5 37t5.5 34t-3 35.5t-7 41.5q-35 -37 -80 -59t-92.5 -30t-93.5 -1.5t-84 26.5q-37 19 -58.5 55t-29 79t-2.5 88.5t21 83.5
q19 45 34.5 76.5t36.5 55t51.5 41.5t79.5 36q27 10 54.5 5t54.5 -14.5t52 -18.5t46 -9q-8 29 -5.5 43t10.5 18.5t19.5 4t23.5 -0.5q11 0 21.5 -1.5t18 -7t12 -16t3.5 -28.5q-2 -38 -2 -68t1 -58l2 -56t2 -62q2 -50 4 -95t0 -95zM457 377q-11 24 -29 38t-41.5 20.5t-50.5 8
t-56 1.5q-24 0 -50 -5t-50.5 -16t-44.5 -30t-30 -46q-9 -24 -11 -50t3 -50t17.5 -42.5t32.5 -26.5q16 -6 41 -8t54 1.5t59 11.5t55 21q56 29 84 72.5t17 99.5z" />
    <glyph glyph-name="uni0122" unicode="&#x122;" horiz-adv-x="995" 
d="M935 346q-27 -111 -113 -206q-51 -57 -116 -92t-132.5 -51t-132 -14.5t-113.5 16.5q-42 13 -76.5 25t-63.5 28t-53.5 39.5t-46.5 60.5q-51 85 -53.5 172.5t42.5 184.5q21 46 47 81.5t58 64t70.5 50.5t85.5 41q134 55 256.5 53t219.5 -50q22 -11 41 -23.5t26 -33.5
q4 -13 -8 -32.5t-30 -36.5t-39 -27.5t-35 -4.5q-15 6 -28 13t-25 14t-24.5 13t-26.5 9q-54 11 -114 9.5t-118.5 -15.5t-111 -41t-91.5 -68q-37 -38 -63 -78t-33 -98q-6 -51 20 -100.5t91 -84.5q56 -30 119 -42t125 -6t120 31t104 70q13 13 24 33t19 39q9 22 16 46
q-51 1 -100 -12.5t-96.5 -29.5t-93 -28t-87.5 -9q-10 1 -17 17.5t-8.5 37.5t3.5 40.5t19 25.5q35 14 81 27t94 23.5t94.5 18.5t82.5 14q23 3 50.5 9t53.5 10t48 3t34 -12q14 -12 18 -26.5t2.5 -31t-6.5 -33.5t-9 -33zM540 -262q-8 -5 -22 -13.5t-30.5 -17.5t-32.5 -17
t-29 -11q-7 -2 -14.5 5.5t-12 19t-3.5 23t12 17.5q21 12 40 26.5t18 28.5q-2 15 -27 24.5t-83 2.5q-12 -2 -20.5 6t-10.5 19t1.5 24t15.5 22q10 8 27.5 15.5t39 12.5t45 7.5t46.5 0.5q33 -3 56.5 -26.5t32 -54t-2 -62.5t-46.5 -52z" />
    <glyph glyph-name="uni0123" unicode="&#x123;" horiz-adv-x="594" 
d="M413 685q-10 -8 -27.5 -16t-38.5 -13t-45 -7.5t-47 0.5q-33 3 -56.5 26.5t-31.5 54t2.5 62t45.5 52.5q8 4 22 12.5t30.5 17.5t32.5 17t29 12q7 1 14.5 -6.5t12 -19t3 -22.5t-11.5 -17q-11 -6 -21.5 -13t-19 -14t-13.5 -14t-4 -14q2 -16 27 -25.5t83 -1.5q12 1 20.5 -6.5
t10.5 -18.5t-1.5 -24t-15.5 -22zM561 120q-1 -38 -4.5 -68.5t-12.5 -58.5t-25.5 -53.5t-44.5 -52.5q-61 -58 -129 -75t-143 -4q-45 8 -76.5 20t-60.5 32q-15 11 -15.5 36t8.5 48.5t25 36.5t34 0q15 -11 34 -19.5t41 -14.5t45 -9.5t44 -4.5q28 -2 52 -3t44.5 2.5t38 14
t31.5 33.5q13 20 18.5 37t5.5 34t-3 35.5t-7 41.5q-35 -37 -80 -59t-92.5 -30t-93.5 -1.5t-84 26.5q-37 19 -58.5 55t-29 79t-2.5 88.5t21 83.5q19 45 34.5 76.5t36.5 55t51.5 41.5t79.5 36q27 10 54.5 5t54.5 -14.5t52 -18.5t46 -9q-8 29 -5.5 43t10.5 18.5t19.5 4
t23.5 -0.5q11 0 21.5 -1.5t18 -7t12 -16t3.5 -28.5q-2 -38 -2 -68t1 -58l2 -56t2 -62q2 -50 4 -95t0 -95zM457 377q-11 24 -29 38t-41.5 20.5t-50.5 8t-56 1.5q-24 0 -50 -5t-50.5 -16t-44.5 -30t-30 -46q-9 -24 -11 -50t3 -50t17.5 -42.5t32.5 -26.5q16 -6 41 -8t54 1.5
t59 11.5t55 21q56 29 84 72.5t17 99.5z" />
    <glyph glyph-name="Hcircumflex" unicode="&#x124;" horiz-adv-x="770" 
d="M640 871q9 -8 4.5 -22.5t-15.5 -29t-26 -23.5t-25 -6q-17 5 -36 16t-40.5 24.5t-45 27.5t-50.5 26q-48 -27 -92 -60t-103 -67q-19 -11 -36.5 -5t-29 19.5t-14.5 29.5t7 25q5 4 36.5 19t71.5 42q22 15 43.5 27t44.5 27q16 11 29 21t24.5 16.5t23.5 8.5t26 -2
q17 -6 45 -22.5t60 -36.5q13 -8 28.5 -16t29 -15.5t24.5 -13.5t16 -10zM724 13q4 -15 -14.5 -24.5t-42.5 -11.5t-45 4.5t-24 23.5q-5 27 -5 64t0.5 73.5t-0.5 68.5t-7 49q-66 -4 -112.5 -10t-89 -13.5t-90 -16t-115.5 -18.5q-6 -36 -7 -64t1 -53t5 -48.5t5 -50.5
q1 -15 -14 -23.5t-34.5 -9.5t-37.5 6t-23 24q-7 21 -8.5 46t-1 52t3 57t3.5 62q1 37 4.5 93t4.5 119.5t-4.5 127.5t-22.5 117q-4 11 12.5 22t39.5 16.5t45 3.5t30 -17q15 -30 15 -68t-4.5 -80.5t-10 -87.5t-0.5 -88q50 3 108.5 9.5t115 15.5t104.5 20.5t76 24.5
q0 43 -3.5 75t-7.5 59.5t-6 53.5t3 59q2 15 20.5 22.5t40 8t39 -5.5t17.5 -17q1 -36 1 -66v-58.5v-58.5t2 -66q3 -62 4 -117t3 -106t7.5 -100t19.5 -98z" />
    <glyph glyph-name="hcircumflex" unicode="&#x125;" horiz-adv-x="552" 
d="M522 67q8 -26 -1 -50.5t-39 -30.5q-35 -7 -55 11.5t-17 45.5q6 61 8.5 120t2.5 108t-2.5 84.5t-5.5 49.5q-4 14 -16 18.5t-27.5 2t-31.5 -10t-27 -16.5q-24 -19 -49.5 -38t-48 -38t-40 -39t-24.5 -42q-9 -29 -11 -55t-0.5 -51.5t5 -52.5t3.5 -59q0 -12 -8 -21t-20 -14
t-26 -6t-26 4q-15 5 -20 17.5t-4.5 28.5t4 32.5t4.5 30.5q3 33 4 64t0.5 62.5t-1.5 65.5t-2 73q0 27 -1 58t-2 63t-2 63.5t-2 60.5l-6 134q-6 22 7.5 40t33.5 27q15 8 32 6q11 7 23 15.5t25 19.5q20 17 39.5 30t39.5 29q15 12 26 22.5t21.5 18t20.5 9.5t23 -3
q15 -6 39.5 -24t53.5 -39q12 -9 25.5 -17.5t26 -17t22 -15t13.5 -10.5q9 -8 5 -24t-14.5 -31t-23.5 -25.5t-22 -6.5q-15 6 -31.5 17.5t-35.5 26t-40 30t-45 27.5q-42 -29 -80.5 -64t-89.5 -71q-3 -25 -4.5 -47t-1.5 -45.5t0.5 -49t0.5 -58.5q0 -26 -0.5 -47t15.5 -28
q27 34 69.5 68.5t87 59t86 32.5t67.5 -12q33 -26 44.5 -63.5t12.5 -80t-4 -87.5t-4 -86q1 -44 3 -93t18 -106z" />
    <glyph glyph-name="Hbar" unicode="&#x126;" horiz-adv-x="770" 
d="M724 14q4 -16 -14.5 -26.5t-42.5 -12.5t-45 4.5t-24 25.5q-5 31 -5 72t0.5 81.5t-0.5 76t-7 54.5q-66 -4 -112.5 -10.5t-89 -15t-90 -18.5t-115.5 -21q-6 -40 -7 -71t1 -58.5t5 -54t5 -56.5q1 -17 -14 -26.5t-34.5 -10.5t-37.5 7t-23 27q-7 24 -8.5 51t-1 57.5t3 64
t3.5 68.5q1 24 2.5 56t3.5 68.5t3 77t0 82.5q-15 2 -17 4q-21 20 -24.5 46t22.5 49q2 2 5.5 4t7.5 4q-6 64 -21 117q-4 12 12.5 24.5t39.5 18.5t45 3.5t30 -18.5q11 -26 13.5 -56.5t0.5 -65.5q33 3 67 5.5t65.5 4t58.5 2.5t44 3q34 2 69.5 8.5t69.5 13.5q-2 18 -1.5 36.5
t3.5 40.5q2 17 20.5 25t40 8.5t39 -6t17.5 -18.5q1 -20 1 -38.5v-35.5q20 -5 28 -14q16 -20 6.5 -44.5t-32.5 -44.5q-1 0 -1 -0.5t-1 -0.5v-47t2 -52q3 -69 4 -129.5t3 -117.5t7.5 -111.5t19.5 -109.5zM584 475q0 44 -3 77q-52 -7 -112.5 -11t-113.5 -12q-50 -8 -93.5 -12.5
t-79.5 -7.5q-3 -28 -3.5 -56t1.5 -55q50 3 108.5 10t115 17t104.5 23t76 27z" />
    <glyph glyph-name="hbar" unicode="&#x127;" horiz-adv-x="552" 
d="M522 67q8 -26 -1 -50.5t-39 -30.5q-35 -7 -55 11.5t-17 45.5q6 61 8.5 120t2.5 108t-2.5 84.5t-5.5 49.5q-4 14 -16 18.5t-27.5 2t-31.5 -10t-27 -16.5q-24 -19 -49.5 -38t-48 -38t-40 -39t-24.5 -42q-9 -29 -11 -55t-0.5 -51.5t5 -52.5t3.5 -59q0 -12 -8 -21t-20 -14
t-26 -6t-26 4q-15 5 -20 17.5t-4.5 28.5t4 32.5t4.5 30.5q3 33 4 64t0.5 62.5t-1.5 65.5t-2 73q-1 54 -3 116.5t-4 119.5q-31 3 -34 10q-10 21 -11.5 46t9.5 45q7 11 31 16l-1 26q-6 22 7.5 40t33.5 27q12 6 24 6.5t21.5 -4t15 -14t2.5 -22.5q-3 -17 -5.5 -31.5t-4.5 -28.5
q25 -2 38 -3q18 0 38 4.5t37.5 7.5t31 0.5t19.5 -17.5q7 -20 3.5 -42.5t-13.5 -39.5q-7 -11 -23.5 -15t-37.5 -5t-43.5 -0.5t-42.5 -2.5q-4 0 -7 -0.5t-6 -0.5q0 -20 0.5 -41.5t0.5 -47.5t-0.5 -47t15.5 -28q27 34 69.5 68.5t87 59t86 32.5t67.5 -12q33 -26 44.5 -63.5
t12.5 -80t-4 -87.5t-4 -86q1 -44 3 -93t18 -106z" />
    <glyph glyph-name="Itilde" unicode="&#x128;" horiz-adv-x="302" 
d="M310 878q-2 -16 -14 -36t-29 -38t-36 -31t-35 -15q-17 -3 -31.5 7.5t-28 23t-25.5 23t-23 8.5q-15 -3 -25 -15t-18 -23.5t-15.5 -19.5t-17.5 -3q-8 4 -14 12.5t-9.5 18.5t-3 21t6.5 19q12 16 22.5 28t22 23t24 21t29.5 21q8 5 21 -2t27.5 -19t29 -25.5t25.5 -20.5
q9 -6 22 0t25.5 17.5t23.5 24.5t17 20q3 4 9 3.5t11 -5t8 -14t1 -24.5zM209 31q0 -17 -19.5 -24.5t-43 -7.5t-41.5 8t-15 24l2 172q1 74 2 158t2 156q0 24 -1 50t-2 49t0 41t5 27t19.5 16.5t33 11.5t32.5 1t20 -15q9 -28 10.5 -58t-0.5 -62t-6 -67.5t-6 -73.5
q-2 -32 -4 -57.5t-3.5 -50.5t-2.5 -51t0 -58q1 -30 3.5 -52t5.5 -42t5.5 -42t3.5 -53z" />
    <glyph glyph-name="itilde" unicode="&#x129;" horiz-adv-x="245" 
d="M264 767q-2 -15 -12 -34t-24.5 -36t-30.5 -29.5t-29 -14.5q-14 -3 -26.5 7t-23.5 22.5t-21 22.5t-19 7q-12 -3 -20.5 -14t-15.5 -22t-13.5 -18.5t-14.5 -2.5q-6 3 -11 11t-8 18t-2.5 20t5.5 18q10 15 19 26.5t18.5 22t20 20t24.5 20.5q7 5 18 -2t23 -18t23.5 -24
t20.5 -20q8 -6 19 0t21.5 17t19.5 23t14 18q6 8 16.5 -0.5t8.5 -37.5zM190 55q5 -17 2.5 -27.5t-10 -16.5t-18.5 -10t-22 -7q-23 -7 -43 2.5t-22 43.5q-2 36 -3 65.5t-1 58t0.5 57.5t1.5 64q2 66 2.5 127t2.5 131q0 19 18 31.5t38.5 14t36.5 -9t14 -37.5q-6 -64 -13 -122.5
t-11 -125.5q-2 -35 -2 -64.5t3 -57.5t9.5 -56.5t16.5 -60.5z" />
    <glyph glyph-name="Imacron" unicode="&#x12a;" horiz-adv-x="302" 
d="M319 901q8 -23 4 -49.5t-15 -45.5q-7 -13 -23.5 -17.5t-37.5 -5.5t-44.5 -1t-44.5 -3q-54 -7 -90.5 -4t-40.5 12q-10 24 -11.5 53.5t9.5 51.5q7 14 29 18t47.5 3.5t50.5 -3.5t38 -3q19 -1 39.5 4.5t38.5 9t31.5 1t19.5 -20.5zM209 31q0 -17 -19.5 -24.5t-43 -7.5t-41.5 8
t-15 24l2 172q1 74 2 158t2 156q0 24 -1 50t-2 49t0 41t5 27t19.5 16.5t33 11.5t32.5 1t20 -15q9 -28 10.5 -58t-0.5 -62t-6 -67.5t-6 -73.5q-2 -32 -4 -57.5t-3.5 -50.5t-2.5 -51t0 -58q1 -30 3.5 -52t5.5 -42t5.5 -42t3.5 -53z" />
    <glyph glyph-name="imacron" unicode="&#x12b;" horiz-adv-x="245" 
d="M256 777q6 -22 3 -46.5t-11 -41.5q-5 -12 -18 -16t-29 -5t-34 -1t-34 -2q-42 -7 -70 -4t-31 11q-8 22 -9 49t8 48q5 12 21.5 16t36.5 3.5t39 -3.5t29 -3q15 0 30.5 5t29.5 8t24.5 0.5t14.5 -18.5zM190 55q5 -17 2.5 -27.5t-10 -16.5t-18.5 -10t-22 -7q-23 -7 -43 2.5
t-22 43.5q-2 36 -3 65.5t-1 58t0.5 57.5t1.5 64q2 66 2.5 127t2.5 131q0 19 18 31.5t38.5 14t36.5 -9t14 -37.5q-6 -64 -13 -122.5t-11 -125.5q-2 -35 -2 -64.5t3 -57.5t9.5 -56.5t16.5 -60.5z" />
    <glyph glyph-name="Ibreve" unicode="&#x12c;" horiz-adv-x="302" 
d="M325 901q-13 -17 -30.5 -40t-39.5 -43.5t-50 -33t-62 -9.5q-18 2 -37 14.5t-35.5 27.5t-28 29t-14.5 18q-9 11 -7.5 24.5t8.5 24.5t17 16.5t19 0.5q10 -5 18 -15.5t17.5 -20.5t22 -17t31.5 -6q18 1 32 9t27 20t26.5 27t31.5 32q8 8 20 3t21.5 -15.5t14.5 -23.5t-2 -22z
M209 31q0 -17 -19.5 -24.5t-43 -7.5t-41.5 8t-15 24l2 172q1 74 2 158t2 156q0 24 -1 50t-2 49t0 41t5 27t19.5 16.5t33 11.5t32.5 1t20 -15q9 -28 10.5 -58t-0.5 -62t-6 -67.5t-6 -73.5q-2 -32 -4 -57.5t-3.5 -50.5t-2.5 -51t0 -58q1 -30 3.5 -52t5.5 -42t5.5 -42t3.5 -53z
" />
    <glyph glyph-name="ibreve" unicode="&#x12d;" horiz-adv-x="245" 
d="M285 791q-13 -17 -30.5 -40.5t-39.5 -43.5t-50 -33t-62 -10q-18 2 -37 14.5t-35.5 28t-28 29t-14.5 17.5q-9 12 -7.5 25.5t8 24t17 16t19.5 0.5q10 -5 18 -15.5t17.5 -20.5t22 -17t31.5 -5q18 1 32 8.5t27 19.5t26.5 27.5t31.5 32.5q8 7 20 2.5t21.5 -15t14.5 -23.5
t-2 -22zM190 55q5 -17 2.5 -27.5t-10 -16.5t-18.5 -10t-22 -7q-23 -7 -43 2.5t-22 43.5q-2 36 -3 65.5t-1 58t0.5 57.5t1.5 64q2 66 2.5 127t2.5 131q0 19 18 31.5t38.5 14t36.5 -9t14 -37.5q-6 -64 -13 -122.5t-11 -125.5q-2 -35 -2 -64.5t3 -57.5t9.5 -56.5t16.5 -60.5z
" />
    <glyph glyph-name="Iogonek" unicode="&#x12e;" horiz-adv-x="302" 
d="M288 -120q-9 -9 -25.5 -18t-37 -17t-44 -13t-46.5 -5q-33 0 -59 20.5t-37.5 50t-4.5 62t40 56.5q3 2 7 5.5t9 6.5q-1 2 -0.5 3t0.5 3q1 95 2 191q0 41 0.5 86t1.5 90t1.5 89.5t0.5 83.5q0 27 -1 56t-2 54.5t0 46t5 29.5q4 10 19.5 19t33 12.5t32.5 0.5t20 -17
q9 -31 10.5 -64t-0.5 -69t-6 -75t-6 -81q-2 -35 -4 -64t-3.5 -56.5t-2.5 -56.5t0 -65q1 -29 3 -50.5t4.5 -41t4.5 -39.5t4 -45q6 -10 7.5 -21t-6.5 -19q-2 -10 -10.5 -16.5t-21.5 -9.5q-11 -11 -17.5 -20.5t-4.5 -17.5q4 -15 30 -22t82 7q12 3 21 -3.5t12.5 -17.5t1 -24.5
t-12.5 -23.5z" />
    <glyph glyph-name="iogonek" unicode="&#x12f;" horiz-adv-x="245" 
d="M216 719q0 -27 -17.5 -50t-52.5 -26q-38 -3 -64 11t-26 46q0 11 5 23.5t13 23.5t18.5 18.5t22.5 8.5q19 2 37 0t32.5 -9t23 -18.5t8.5 -27.5zM265 -129q-9 -9 -25.5 -18.5t-37 -17t-44 -12.5t-46.5 -5q-33 0 -59 20.5t-37.5 50t-4.5 62t40 56.5q5 4 12 9.5t15 11.5
q0 3 -0.5 6t-0.5 6q-2 36 -3 65.5t-1 58t0.5 57.5t1.5 64q2 66 2.5 127t2.5 131q0 19 18 31.5t38.5 14t36.5 -9t14 -37.5q-6 -64 -13 -122.5t-11 -125.5q-2 -35 -2 -64.5t3 -57.5t9.5 -56.5t16.5 -60.5q8 -26 -1.5 -37.5t-26.5 -17.5q-14 -11 -24 -23t-7 -22q4 -15 30 -22
t82 7q12 3 21 -3.5t12.5 -17.5t1 -24.5t-12.5 -23.5z" />
    <glyph glyph-name="Idotaccent" unicode="&#x130;" horiz-adv-x="302" 
d="M255 876q0 -34 -18 -60.5t-55 -26.5q-40 0 -67 20t-27 60q0 16 4 31.5t12 28t19.5 20t26.5 7.5q20 0 39 -5t33.5 -14.5t23.5 -24.5t9 -36zM209 31q0 -17 -19.5 -24.5t-43 -7.5t-41.5 8t-15 24l2 172q1 74 2 158t2 156q0 24 -1 50t-2 49t0 41t5 27t19.5 16.5t33 11.5
t32.5 1t20 -15q9 -28 10.5 -58t-0.5 -62t-6 -67.5t-6 -73.5q-2 -32 -4 -57.5t-3.5 -50.5t-2.5 -51t0 -58q1 -30 3.5 -52t5.5 -42t5.5 -42t3.5 -53z" />
    <glyph glyph-name="dotlessi" unicode="&#x131;" horiz-adv-x="245" 
d="M190 55q5 -17 2.5 -27.5t-10 -16.5t-18.5 -10t-22 -7q-23 -7 -43 2.5t-22 43.5q-2 36 -3 65.5t-1 58t0.5 57.5t1.5 64q2 66 2.5 127t2.5 131q0 19 18 31.5t38.5 14t36.5 -9t14 -37.5q-6 -64 -13 -122.5t-11 -125.5q-2 -35 -2 -64.5t3 -57.5t9.5 -56.5t16.5 -60.5z" />
    <glyph glyph-name="IJ" unicode="&#x132;" horiz-adv-x="992" 
d="M904 748q7 -60 7.5 -138t-2 -158t-6 -154t-4.5 -126q-2 -64 -28.5 -104t-70 -61.5t-100 -26.5t-119.5 0q-39 3 -81.5 13.5t-80 28.5t-67 43.5t-43.5 58.5q-9 20 -14.5 43t-8.5 51.5t-4 64.5t-1 82q0 32 15 55t49 20q65 -6 56 -46q-8 -38 -9 -74.5t-1 -75.5q0 -26 17 -45
t45 -32.5t62.5 -22.5t70.5 -14q72 -11 112 -4.5t60 31.5t27.5 68t14.5 105q4 36 2.5 84.5t-5 98t-9.5 95.5t-11 77q-14 79 40 88q17 3 32 4.5t26.5 -0.5t19 -8.5t9.5 -20.5zM209 34q0 -18 -19.5 -27t-43 -8.5t-41.5 9.5t-15 26q1 95 2 191q0 41 0.5 86t1.5 90t1.5 89.5
t0.5 83.5q0 27 -1 56t-2 54.5t0 46t5 29.5q4 10 19.5 19t33 12.5t32.5 0.5t20 -17q9 -31 10.5 -64t-0.5 -69t-6 -75t-6 -81q-2 -35 -4 -64t-3.5 -56.5t-2.5 -56.5t0 -65q1 -33 3.5 -57t5.5 -46.5t5.5 -47.5t3.5 -59z" />
    <glyph glyph-name="ij" unicode="&#x133;" horiz-adv-x="498" 
d="M444 719q0 -27 -17.5 -50t-52.5 -26q-38 -3 -64 11t-26 46q0 11 5 23.5t13 23.5t18.5 18.5t22.5 8.5q19 2 37 0t32.5 -9t23 -18.5t8.5 -27.5zM216 719q0 -27 -17.5 -50t-52.5 -26q-38 -3 -64 11t-26 46q0 11 5 23.5t13 23.5t18.5 18.5t22.5 8.5q19 2 37 0t32.5 -9
t23 -18.5t8.5 -27.5zM418 123q11 -60 -3.5 -104t-43 -81.5t-64.5 -72.5t-67 -75q-11 -14 -27 -6t-30.5 25.5t-25 38.5t-10.5 33q-1 19 12 29t25 27q21 28 47 52.5t48.5 50t37 55.5t10.5 69q-5 54 -12 101t-11.5 92t-4 89.5t10.5 93.5q4 20 22 26.5t38 2.5t35 -17.5t13 -33.5
q-5 -51 -9.5 -99.5t-5.5 -96.5t2 -97.5t13 -101.5zM190 55q5 -17 2.5 -27.5t-10 -16.5t-18.5 -10t-22 -7q-23 -7 -43 2.5t-22 43.5q-2 36 -3 65.5t-1 58t0.5 57.5t1.5 64q2 66 2.5 127t2.5 131q0 19 18 31.5t38.5 14t36.5 -9t14 -37.5q-6 -64 -13 -122.5t-11 -125.5
q-2 -35 -2 -64.5t3 -57.5t9.5 -56.5t16.5 -60.5z" />
    <glyph glyph-name="Jcircumflex" unicode="&#x134;" horiz-adv-x="715" 
d="M650 835q9 -7 4.5 -22t-16 -29t-26 -23.5t-25.5 -6.5q-17 6 -35.5 17t-40 24.5t-45 27.5t-50.5 25q-48 -27 -92 -60t-103 -67q-19 -11 -36.5 -4.5t-29 20t-14.5 29.5t6 25q5 4 36.5 19t71.5 41q23 15 44.5 27.5t44.5 27.5q16 11 29 21t24.5 16.5t23 8.5t25.5 -3
q17 -6 45 -22.5t60 -35.5q13 -8 28.5 -16.5t29.5 -16t25 -13.5t16 -10zM675 673q7 -54 8 -124t-1.5 -142t-6.5 -139t-5 -113q-2 -58 -28.5 -94t-70 -55t-100 -24t-119.5 0q-39 3 -81.5 12.5t-80 25.5t-67 39t-43.5 53q-9 18 -14.5 38.5t-8.5 46.5t-4 58t-1 74q0 28 15 49
t49 18q64 -6 56 -41q-8 -34 -9 -67t-1 -68q0 -23 17 -40.5t45 -29.5t62.5 -20t70.5 -13q72 -10 112 -4t60.5 28.5t27.5 61t14 94.5q4 33 3 76.5t-5 88t-10 86t-11 69.5q-14 70 40 79q17 2 32 3.5t26.5 -0.5t19 -8t9.5 -18z" />
    <glyph glyph-name="jcircumflex" unicode="&#x135;" horiz-adv-x="245" 
d="M273 727q6 -7 3 -21.5t-10 -28t-16 -22.5t-16 -6q-21 11 -47 39.5t-59 51.5q-30 -26 -57 -58t-64 -65q-12 -11 -23 -4.5t-17.5 19.5t-8.5 28.5t4 23.5q2 4 22 18t44 40q14 14 27.5 26.5t27.5 26.5q20 21 33 36t31 6q11 -6 28 -22t37 -35q17 -15 36 -30t25 -23zM190 123
q11 -60 -3.5 -104t-43 -81.5t-64.5 -72.5t-67 -75q-11 -14 -27 -6t-30.5 25.5t-25 38.5t-10.5 33q-1 19 12 29t25 27q21 28 47 52.5t48.5 50t37 55.5t10.5 69q-5 54 -12 101t-11.5 92t-4 89.5t10.5 93.5q4 20 22 26.5t38 2.5t35 -17.5t13 -33.5q-5 -51 -9.5 -99.5
t-5.5 -96.5t2 -97.5t13 -101.5z" />
    <glyph glyph-name="uni0136" unicode="&#x136;" horiz-adv-x="748" 
d="M709 706q-40 -50 -77 -87.5t-73 -72t-73.5 -71.5t-77.5 -88q19 -21 35 -36t33.5 -28.5t38 -28.5t49.5 -37q24 -18 39.5 -29t27.5 -19t24 -17.5t30 -24.5q14 -12 10.5 -35.5t-17 -45t-32 -34t-34.5 -3.5q-45 26 -83.5 56t-76.5 60t-78.5 58.5t-90.5 50.5q-11 5 -28 -2.5
t-34 -18.5q-19 -12 -40 -30q-6 -29 -6 -49.5t2 -40t4 -42t2 -56.5q0 -19 -17 -33t-38 -20t-38 -2.5t-17 19.5q-1 55 -0.5 105t1.5 102t2.5 109t4.5 126q1 40 1.5 85t0.5 88.5t-1 83.5t-1 72q0 16 17 26t38 13t38.5 -1t18.5 -17q1 -17 0.5 -48.5t-2.5 -69.5t-4.5 -80
t-4.5 -80t-2.5 -68.5t0.5 -46.5q9 0 31.5 15t48 35.5t49 41t36.5 31.5q50 42 96 91t82.5 93t62 76.5t34.5 41.5t22 7t25.5 -11.5t23.5 -24.5t17.5 -31t7.5 -31.5t-7 -25.5zM435 -167q-8 -5 -22 -13.5t-30 -17.5t-32.5 -17t-29.5 -11q-6 -2 -13.5 6t-12 19.5t-3.5 22.5t11 17
q22 13 41 27t17 28q-2 15 -27 24.5t-83 2.5q-12 -2 -20 6t-10.5 19t1.5 24t15 22q10 8 27.5 15.5t39 13t45 8t46.5 -0.5q33 -3 57 -26.5t32 -54t-2.5 -62t-46.5 -52.5z" />
    <glyph glyph-name="uni0137" unicode="&#x137;" horiz-adv-x="570" 
d="M590 106q13 -9 8 -30.5t-19.5 -42.5t-33 -34t-31.5 -3q-13 4 -21 12.5t-16.5 20.5t-20 27t-31.5 30q-24 19 -45.5 35.5t-42.5 32.5t-43.5 31.5t-50.5 31.5q-20 12 -43.5 16t-49.5 2q-5 -43 -7 -70t-1 -47t3.5 -39t6.5 -45q2 -17 -11.5 -33t-33.5 -21q-26 -6 -38 -0.5
t-16.5 16.5t-5 24.5t-2.5 25.5q17 112 16.5 216.5t-2.5 205.5q-1 40 -1 74t0.5 66t0 66t-2.5 74q-1 17 16 24t37 6t36 -9.5t13 -22.5q-5 -23 -7.5 -41t-4 -34.5t-2.5 -34.5t-4 -42q-1 -4 -1.5 -18.5t-0.5 -35t0.5 -43t2 -42.5t4 -34.5t7.5 -16.5q40 18 75 42.5t70 50.5
t70 55.5t65 64.5q16 13 30 14.5t26 -4.5t21 -16.5t15 -19.5q16 -26 13.5 -44.5t-15 -33t-32 -26.5t-38.5 -26q-21 -16 -43.5 -29.5t-43.5 -28t-40.5 -31.5t-35.5 -39q24 -18 49 -36q21 -16 44.5 -33.5t43.5 -32.5q24 -18 42.5 -33t36.5 -29.5t38 -29.5t47 -33zM382 -167
q-7 -4 -19 -11.5t-26 -15.5t-28 -15t-25 -10q-6 -2 -12.5 5t-10.5 17t-3 20.5t10 15.5q19 11 35.5 23.5t14.5 24.5q-2 14 -23 22.5t-72 1.5q-11 -1 -18 5.5t-9 17t1.5 22t13.5 19.5q9 7 24 13.5t33.5 11t39 7t40.5 0.5q28 -3 49 -24t28 -48.5t-2.5 -55.5t-40.5 -46z" />
    <glyph glyph-name="kgreenlandic" unicode="&#x138;" horiz-adv-x="655" 
d="M610 555q-34 -40 -65 -69t-61.5 -56.5t-62 -57t-65.5 -69.5q16 -17 29.5 -28.5t28 -22.5t32 -23t41.5 -29q21 -15 34 -23.5t23.5 -15t20.5 -14t25 -19.5q12 -10 9 -28.5t-14.5 -35t-27.5 -26.5t-29 -3q-38 21 -70.5 44.5t-64.5 47.5t-66.5 46.5t-76.5 39.5q-10 4 -24 -2
t-28 -14q-16 -10 -34 -24q-5 -23 -5 -39t1.5 -31.5t3.5 -33.5t2 -45q0 -15 -15 -26t-32 -16t-31.5 -2t-14.5 15v83.5t1 81t2.5 86.5t3.5 99q1 32 1.5 67.5t0 70.5t-1 66.5t-0.5 56.5q0 12 14 20t31.5 11t32.5 -0.5t16 -13.5q1 -14 0.5 -38.5t-2.5 -55t-3.5 -63.5t-3.5 -63.5
t-2.5 -54.5t0.5 -37q8 0 26.5 12t40.5 28.5t42 32.5t31 25q42 33 80.5 72t69.5 73.5t52.5 60.5t29.5 33q12 11 29 2.5t30.5 -26t19.5 -37.5t-4 -32z" />
    <glyph glyph-name="Lacute" unicode="&#x139;" horiz-adv-x="635" 
d="M526 852q7 -20 2.5 -39t-14.5 -22q-20 -6 -36.5 -12t-32 -12t-31.5 -13.5t-35 -16.5q-17 -8 -31.5 -19t-28 -18.5t-25.5 -8t-22 11.5q-19 22 -17 48.5t24 49.5q27 29 52 47t48 29t46 17.5t46 12.5q21 5 32 -9t23 -46zM576 123q-14 -7 -37.5 -15.5t-53 -18t-62.5 -20
t-64 -20.5q-39 -13 -78 -31.5t-74.5 -33.5t-64.5 -22.5t-47 1.5q-22 11 -30 30.5t-8.5 47t3 62.5t4.5 76q1 52 1 98.5t4 99.5q3 47 3 94.5t-1.5 87.5t-2.5 67t1 33q11 24 26.5 31t44.5 14q5 1 13.5 0t16.5 -4.5t14 -9.5t7 -13q5 -65 -3 -130.5t-16 -133.5t-9 -138t18 -144
q56 10 107 28t96 35.5t84 31.5t71 18q16 2 27 -15t15.5 -39.5t3 -42.5t-8.5 -24z" />
    <glyph glyph-name="lacute" unicode="&#x13a;" horiz-adv-x="213" 
d="M319 872q6 -17 2 -33.5t-13 -19.5q-36 -11 -62.5 -20.5t-60.5 -25.5q-15 -7 -28.5 -16.5t-25.5 -15.5t-23 -6.5t-20 9.5q-17 19 -16 41.5t21 42.5q25 25 47.5 40.5t44 25t42.5 15t42 10.5q19 5 29 -7.5t21 -39.5zM181 63q13 -41 -5 -62t-52 -25q-23 -3 -36.5 4.5
t-21 20.5t-9.5 29.5t-2 31.5q0 22 0.5 42.5t0.5 42v46.5t-2 58q-1 13 0 45.5t2.5 75.5t1.5 93.5t-3 100.5q-1 18 -6 35t-6.5 32.5t2.5 29t21 22.5q16 6 33.5 7t32 -4t24.5 -16t10 -27q-10 -75 -19.5 -148.5t-9.5 -143.5q0 -38 0.5 -74.5t5 -73t13.5 -72t25 -70.5z" />
    <glyph glyph-name="uni013B" unicode="&#x13b;" horiz-adv-x="635" 
d="M581 208q-14 -8 -38 -16.5t-53.5 -18.5t-62.5 -20.5t-64 -21.5q-39 -14 -78 -32.5t-74.5 -34t-64.5 -23t-47 1.5q-22 11 -30 31.5t-8.5 48.5t3 64t4.5 78q1 53 1 101t4 102q3 48 3 97.5t-1.5 90.5t-2.5 68.5t1 33.5q10 25 26 32t45 14q5 1 13.5 0t16.5 -4.5t14 -9.5
t7 -14q5 -66 -3 -133.5t-16 -137t-9 -142t18 -148.5q56 11 107 29.5t96 36.5t84.5 32.5t71.5 17.5q16 2 27 -15.5t15.5 -40t3 -43t-8.5 -24.5zM410 -166q-8 -5 -22 -13.5t-30 -17.5t-32.5 -17t-29.5 -11q-6 -2 -13.5 5.5t-12 19t-3.5 23t11 17.5q22 12 41 26.5t17 28.5
q-2 15 -27 24.5t-83 2.5q-12 -2 -20.5 6t-10.5 19t1.5 24t15.5 22q10 8 27.5 15.5t39 12.5t45 7.5t46.5 0.5q33 -3 56.5 -26.5t32 -54t-2 -62.5t-46.5 -52z" />
    <glyph glyph-name="uni013C" unicode="&#x13c;" horiz-adv-x="213" 
d="M187 128q7 -21 5 -37.5t-10.5 -28.5t-22.5 -18.5t-31 -8.5q-24 -3 -38.5 5t-22 22t-10 31.5t-2.5 33.5q0 24 0.5 45.5t1 45t0 50.5t-2.5 62q-1 15 0.5 49.5t2.5 80.5t1 100t-3 108q-1 19 -6 37.5t-6.5 35t3 31t21.5 24.5q17 6 35 6.5t33.5 -4.5t25.5 -16.5t10 -28.5
q-10 -81 -20 -160t-10 -154q-1 -81 6 -158.5t40 -152.5zM222 -193q-7 -4 -19 -12t-25.5 -16t-27.5 -15.5t-25 -10.5q-6 -2 -12 5.5t-10 18t-3 21t10 15.5q18 11 34.5 24.5t14.5 26.5q-1 7 -6.5 13t-16.5 9.5t-28.5 4.5t-42.5 -3q-11 -2 -17.5 5.5t-8.5 18t1 22.5t13 20
q9 7 23.5 14t33 12t38.5 7t40 0q28 -3 48.5 -24.5t27 -50t-2.5 -57.5t-39 -48z" />
    <glyph glyph-name="Lcaron" unicode="&#x13d;" horiz-adv-x="635" 
d="M455 635q-8 -5 -22 -13.5t-30.5 -17.5t-32.5 -17t-29 -11q-7 -2 -14.5 5.5t-12 19t-3.5 23t12 17.5q21 12 40 26.5t18 28.5q-2 15 -27 24.5t-83 2.5q-12 -2 -20.5 6t-10.5 19t1.5 24t15.5 22q10 8 27.5 15.5t39 12.5t45 7.5t46.5 0.5q33 -3 56.5 -26.5t32 -54t-2 -62.5
t-46.5 -52zM576 137q-14 -8 -37.5 -17.5t-53 -20t-62.5 -22t-64 -23.5q-39 -15 -78 -35.5t-74.5 -37t-64.5 -24.5t-47 2q-22 12 -30 34t-8.5 52.5t3 69t4.5 84.5q1 57 1 109t4 111q3 52 3 105t-1.5 97.5t-2.5 74.5t1 36q5 13 11.5 21.5t15 13.5t19.5 8t25 7q5 1 13.5 0
t16.5 -5t14 -10.5t7 -14.5q5 -72 -3 -144.5t-16 -148t-9 -154t18 -160.5q56 12 107 31.5t96 39t84 35.5t71 20q16 2 27 -17t15.5 -44t3 -47t-8.5 -26z" />
    <glyph glyph-name="lcaron" unicode="&#x13e;" horiz-adv-x="407" 
d="M345 723q-6 -5 -17 -13t-23.5 -16.5t-25 -16t-22.5 -10.5q-5 -2 -10.5 5.5t-9 18t-3 21.5t8.5 17t16.5 12t15 12.5t10.5 13.5t3 13q-2 14 -21 23.5t-64 2.5q-9 -2 -15.5 5.5t-8 18t1.5 22.5t12 21q7 7 20.5 14.5t30 12.5t34.5 7t36 0q25 -3 43.5 -25t25 -51t-2 -59
t-35.5 -49zM184 74q7 -23 5 -41t-10 -30.5t-22 -20t-31 -9.5q-24 -3 -38 6t-21.5 24t-9.5 34t-2 36q0 26 0.5 49.5t1 48.5t0 54t-2.5 67q-1 16 0.5 53t2.5 87.5t1 108.5t-3 116q-1 20 -6 40t-6.5 38t3 33.5t21.5 26.5q16 7 34 8t33 -5t25 -18t10 -31q-10 -88 -20 -173
t-10 -166q-1 -88 6 -171.5t39 -164.5z" />
    <glyph glyph-name="Ldot" unicode="&#x13f;" horiz-adv-x="635" 
d="M459 557q0 -34 -18 -60.5t-55 -26.5q-40 0 -67 20t-27 60q0 16 4 31.5t12 28t19.5 20t26.5 7.5q20 0 39 -5t33.5 -14.5t23.5 -24.5t9 -36zM576 137q-14 -8 -37.5 -17.5t-53 -20t-62.5 -22t-64 -23.5q-39 -15 -78 -35.5t-74.5 -37t-64.5 -24.5t-47 2q-22 12 -30 34
t-8.5 52.5t3 69t4.5 84.5q1 57 1 109t4 111q3 52 3 105t-1.5 97.5t-2.5 74.5t1 36q5 13 11.5 21.5t15 13.5t19.5 8t25 7q5 1 13.5 0t16.5 -5t14 -10.5t7 -14.5q5 -72 -3 -144.5t-16 -148t-9 -154t18 -160.5q56 12 107 31.5t96 39t84 35.5t71 20q16 2 27 -17t15.5 -44t3 -47
t-8.5 -26z" />
    <glyph glyph-name="ldot" unicode="&#x140;" horiz-adv-x="382" 
d="M350 554q0 -34 -18 -60.5t-55 -26.5q-40 0 -67 20t-27 60q0 16 4 31.5t12 28t19.5 20t26.5 7.5q20 0 39 -5t33.5 -14.5t23.5 -24.5t9 -36zM184 74q7 -23 5 -41t-10 -30.5t-22 -20t-31 -9.5q-24 -3 -38 6t-21.5 24t-9.5 34t-2 36q0 26 0.5 49.5t1 48.5t0 54t-2.5 67
q-1 16 0.5 53t2.5 87.5t1 108.5t-3 116q-1 20 -6 40t-6.5 38t3 33.5t21.5 26.5q16 7 34 8t33 -5t25 -18t10 -31q-10 -88 -20 -173t-10 -166q-1 -88 6 -171.5t39 -164.5z" />
    <glyph glyph-name="Lslash" unicode="&#x141;" horiz-adv-x="725" 
d="M691 137q-14 -8 -37.5 -17.5t-53 -20t-62.5 -22t-64 -23.5q-39 -15 -77 -35.5t-72.5 -37.5t-64 -25t-50.5 3q-23 12 -29 37.5t-5.5 58.5t3.5 70.5t0 73.5q-4 36 -3 69.5t3 67.5q-26 -5 -50.5 -15t-49.5 -15q-34 -8 -49.5 20.5t-1.5 87.5q2 8 9.5 13.5t15.5 9.5q10 4 22 7
q35 11 62 21t50 12q2 47 1 90.5t-2.5 78.5t-2.5 58t1 28q5 13 10.5 20t13 11t18 6t24.5 6q5 1 14.5 1t18.5 -2.5t16 -8t7 -13.5q3 -66 -1.5 -125.5t-12.5 -131.5q23 5 49.5 24t61.5 36q25 12 39 -3t28 -41q9 -17 6 -34.5t-13 -33t-25 -26.5t-31 -15q-35 -8 -66.5 -22
t-60.5 -19q-2 -52 1 -107t15 -109q56 12 107 31.5t96 39t84 35.5t71 20q16 2 27 -17t15.5 -44t3 -47t-8.5 -26z" />
    <glyph glyph-name="lslash" unicode="&#x142;" horiz-adv-x="495" 
d="M475 503q9 -17 6 -34.5t-13 -33t-25 -27t-31 -15.5q-24 -7 -55 -19.5t-60 -16.5q-1 -26 -1.5 -53t0.5 -60t3.5 -57t5.5 -46.5t5.5 -47.5t3.5 -59q0 -18 -19.5 -27t-43 -8.5t-41.5 9.5t-15 26q0 41 1 89q0 41 0.5 94t1.5 113q-16 -3 -32.5 -9t-32 -12.5t-28.5 -12.5
t-21 -8q-17 -5 -32 1t-23.5 20t-8.5 35.5t13 48.5q10 22 31 33t46 17t49 10t41 13q0 27 0.5 55.5t0.5 52.5q0 54 3 96.5t-1 89.5q-1 10 14 19t35 12.5t39.5 0t26.5 -16.5q5 -10 6.5 -21t1 -22.5t-2 -23.5t-2.5 -24q-3 -44 -8 -91t-7 -101q13 3 26.5 10t26.5 15t25.5 16
t23.5 13q13 6 22.5 5t17 -7.5t14 -17t13.5 -23.5z" />
    <glyph glyph-name="Nacute" unicode="&#x143;" horiz-adv-x="847" 
d="M662 854q9 -18 3.5 -35t-18.5 -20q-24 -6 -45 -11t-40.5 -10.5t-39.5 -12t-43 -14.5q-21 -8 -39.5 -17.5t-35.5 -16t-31.5 -7t-27.5 10.5q-23 20 -21 43.5t29 43.5q34 26 65 42t60.5 26t58 16t57.5 11q26 5 40 -8t28 -41zM789 694q-1 -48 -7.5 -99t-11.5 -113
q-5 -66 -4.5 -123t4 -110.5t8.5 -104.5t8 -104q1 -18 -12 -28.5t-32 -14t-39 0t-33 14.5q-47 39 -87 74t-77 67.5t-73 64t-76 65.5q-10 8 -31 24.5t-44.5 33t-45.5 29.5t-34 16q-6 -36 -9 -61.5t-4.5 -49.5t-1.5 -51t1 -66q1 -25 1.5 -42.5t2 -34t3 -35t4.5 -45.5
q2 -20 -17 -29.5t-42 -10t-43 8.5t-21 27q-3 67 1 115.5t10 93.5t10.5 95.5t1.5 123.5q-1 28 -5 56t-8 53.5t-6.5 49t-0.5 44.5q1 13 19 22t40.5 13.5t43 4.5t26.5 -4q25 -20 49 -56.5t53 -73.5q41 -51 77 -86t75 -63.5t84.5 -57.5t105.5 -68q3 37 5 67t3.5 58.5t1.5 60
v72.5q-1 43 -6 87t-3 87q1 18 22.5 26t46.5 8t46 -8t21 -23z" />
    <glyph glyph-name="nacute" unicode="&#x144;" horiz-adv-x="590" 
d="M544 800q9 -17 3.5 -34.5t-18.5 -20.5q-24 -6 -45 -11t-40.5 -10.5t-39.5 -12t-43 -14.5q-21 -7 -39.5 -16.5t-35 -16.5t-31.5 -7.5t-28 10.5q-23 20 -20.5 43.5t28.5 43.5q34 26 65 42t60.5 26t58 16t57.5 11q26 5 40 -8t28 -41zM562 53q-2 -25 -12.5 -38.5t-36.5 -17.5
q-29 -11 -48 -3t-24 42t-5 62t2 54t5 53t4.5 60t0 73.5t-8.5 93.5q-12 7 -31 6t-39.5 -6t-40 -13t-31.5 -15q-23 -13 -47 -26.5t-45 -26.5t-36.5 -25t-19.5 -22q-8 -18 -10.5 -32.5t-2.5 -28t1 -27.5t0 -32q-1 -24 4 -46.5t9.5 -43.5t5 -39.5t-9.5 -33.5l-16 -14t-17 -11.5
t-19 -5t-22 5.5q-13 4 -16 22.5t-1.5 44t5 53t3.5 48.5q0 65 -2 112.5t-4 87.5t-3.5 76.5t-1.5 79.5q-3 29 1.5 43t13.5 19.5t21.5 6.5t26.5 4q18 4 23 -8t5 -31.5t-2 -41t1 -36.5q0 -9 16.5 -2t38 19.5t43 27t31.5 20.5q24 15 53 30.5t59 27.5t59.5 17.5t53.5 -0.5
q23 -5 37 -24t9 -52q-8 -55 -11.5 -117.5t-6.5 -128.5q-3 -62 7.5 -125t30.5 -116z" />
    <glyph glyph-name="uni0145" unicode="&#x145;" horiz-adv-x="847" 
d="M789 771q-1 -54 -7.5 -110t-11.5 -125q-5 -73 -4.5 -137t4 -123t8.5 -116t8 -116q1 -20 -12 -31.5t-32 -15t-39 0t-33 15.5q-47 44 -87 82.5t-77 74.5t-73 71t-76 73q-10 9 -31 27t-44.5 36.5t-45.5 33.5t-34 18q-6 -40 -9 -68.5t-4.5 -55.5t-1.5 -57t1 -73
q1 -27 1.5 -46.5t2 -38t3 -39t4.5 -50.5q2 -22 -17 -33t-42 -11t-43 10t-21 30q-2 50 -0.5 89.5t4.5 74.5t7 68t7.5 69t5 78t-0.5 96q-1 32 -5 62.5t-8 59.5t-6.5 55t-0.5 49q1 14 19 24t40.5 15t43 5.5t26.5 -4.5q25 -22 49 -62.5t53 -82.5q41 -57 77 -95.5t75 -70.5
t84.5 -63.5t105.5 -75.5q3 42 5 74.5t3.5 64.5t1.5 66.5v80.5q-1 48 -6 97t-3 97q1 19 22.5 28.5t46.5 9.5t46 -9t21 -26zM508 -180q-8 -5 -22 -13.5t-30.5 -17.5t-32.5 -17t-29 -11q-7 -2 -14.5 6t-11.5 19.5t-3 22.5t11 17q22 13 41 27t17 28q-2 15 -27 24.5t-83 2.5
q-12 -2 -20.5 6t-10.5 19t1.5 24t15.5 22q10 8 27.5 15.5t39 13t45 8t46.5 -0.5q33 -3 56.5 -26.5t32 -54t-2 -62t-46.5 -52.5z" />
    <glyph glyph-name="uni0146" unicode="&#x146;" horiz-adv-x="590" 
d="M562 53q-2 -25 -12.5 -38.5t-36.5 -17.5q-29 -11 -48 -3t-24 42t-5 62t2 54t5 53t4.5 60t0 73.5t-8.5 93.5q-12 7 -31 6t-39.5 -6t-40 -13t-31.5 -15q-23 -13 -47 -26.5t-45 -26.5t-36.5 -25t-19.5 -22q-8 -18 -10.5 -32.5t-2.5 -28t1 -27.5t0 -32q-1 -24 4 -46.5
t9.5 -43.5t5 -39.5t-9.5 -33.5l-16 -14t-17 -11.5t-19 -5t-22 5.5q-13 4 -16 22.5t-1.5 44t5 53t3.5 48.5q0 65 -2 112.5t-4 87.5t-3.5 76.5t-1.5 79.5q-3 29 1.5 43t13.5 19.5t21.5 6.5t26.5 4q18 4 23 -8t5 -31.5t-2 -41t1 -36.5q0 -9 16.5 -2t38 19.5t43 27t31.5 20.5
q24 15 53 30.5t59 27.5t59.5 17.5t53.5 -0.5q23 -5 37 -24t9 -52q-8 -55 -11.5 -117.5t-6.5 -128.5q-3 -62 7.5 -125t30.5 -116zM362 -157q-7 -4 -18.5 -11.5t-24.5 -15.5t-26.5 -15t-23.5 -10q-5 -2 -11 5t-9.5 17t-2.5 20.5t9 15.5q17 11 33 24t14 25q-2 13 -22.5 22
t-67.5 2q-10 -2 -16.5 5t-8.5 17t1.5 21.5t12.5 19.5q8 7 22.5 14t31.5 11.5t36.5 6.5t37.5 0q27 -3 46.5 -23.5t26 -48t-2 -56t-37.5 -46.5z" />
    <glyph glyph-name="Ncaron" unicode="&#x147;" horiz-adv-x="847" 
d="M664 894q-5 -4 -33 -24t-63 -55q-20 -20 -39.5 -35t-39.5 -35q-15 -14 -26 -27t-21.5 -22t-20.5 -11.5t-23 3.5q-15 8 -40.5 29.5t-54.5 46.5q-12 10 -25.5 21t-26 20.5t-22 17.5t-13.5 13q-5 6 1 21t16.5 30t22 26t16.5 9q15 -7 32 -21t35.5 -31t40 -35t45.5 -33
q21 17 41 36.5t40.5 40l42.5 42.5t49 44q13 10 25 5.5t15 -7.5q5 -5 14 -13t15.5 -17.5t7.5 -19.5t-11 -19zM789 694q-1 -48 -7.5 -99t-11.5 -113q-5 -66 -4.5 -123t4 -110.5t8.5 -104.5t8 -104q1 -18 -12 -28.5t-32 -14t-39 0t-33 14.5q-47 39 -87 74t-77 67.5t-73 64
t-76 65.5q-10 8 -31 24.5t-44.5 33t-45.5 29.5t-34 16q-6 -36 -9 -61.5t-4.5 -49.5t-1.5 -51t1 -66q1 -25 1.5 -42.5t2 -34t3 -35t4.5 -45.5q2 -20 -17 -29.5t-42 -10t-43 8.5t-21 27q-3 67 1 115.5t10 93.5t10.5 95.5t1.5 123.5q-1 28 -5 56t-8 53.5t-6.5 49t-0.5 44.5
q1 13 19 22t40.5 13.5t43 4.5t26.5 -4q25 -20 49 -56.5t53 -73.5q41 -51 77 -86t75 -63.5t84.5 -57.5t105.5 -68q3 37 5 67t3.5 58.5t1.5 60v72.5q-1 43 -6 87t-3 87q1 18 22.5 26t46.5 8t46 -8t21 -23z" />
    <glyph glyph-name="ncaron" unicode="&#x148;" horiz-adv-x="590" 
d="M541 855q-5 -4 -33 -24.5t-63 -54.5q-20 -20 -39.5 -35t-39.5 -35q-15 -14 -26 -27t-21.5 -22t-20.5 -11.5t-23 3.5q-15 8 -40.5 29.5t-54.5 46.5q-12 10 -25.5 20.5t-25.5 20.5t-22 18t-14 13q-5 6 1.5 21t17 30t21.5 26t16 9q15 -7 32 -21t36 -31.5t40 -35t45 -32.5
q43 35 81.5 76.5t91.5 86.5q13 10 25 5.5t15 -7.5q5 -5 14 -13t15.5 -17.5t7.5 -19.5t-11 -19zM562 53q-2 -25 -12.5 -38.5t-36.5 -17.5q-29 -11 -48 -3t-24 42t-5 62t2 54t5 53t4.5 60t0 73.5t-8.5 93.5q-12 7 -31 6t-39.5 -6t-40 -13t-31.5 -15q-23 -13 -47 -26.5
t-45 -26.5t-36.5 -25t-19.5 -22q-8 -18 -10.5 -32.5t-2.5 -28t1 -27.5t0 -32q-1 -24 4 -46.5t9.5 -43.5t5 -39.5t-9.5 -33.5l-16 -14t-17 -11.5t-19 -5t-22 5.5q-13 4 -16 22.5t-1.5 44t5 53t3.5 48.5q0 65 -2 112.5t-4 87.5t-3.5 76.5t-1.5 79.5q-3 29 1.5 43t13.5 19.5
t21.5 6.5t26.5 4q18 4 23 -8t5 -31.5t-2 -41t1 -36.5q0 -9 16.5 -2t38 19.5t43 27t31.5 20.5q24 15 53 30.5t59 27.5t59.5 17.5t53.5 -0.5q23 -5 37 -24t9 -52q-8 -55 -11.5 -117.5t-6.5 -128.5q-3 -62 7.5 -125t30.5 -116z" />
    <glyph glyph-name="napostrophe" unicode="&#x149;" horiz-adv-x="703" 
d="M675 53q-2 -25 -12.5 -38.5t-36.5 -17.5q-29 -11 -48 -3t-24 42t-5 62t2 54t5 53t4.5 60t0 73.5t-8.5 93.5q-12 7 -31 6t-39.5 -6t-40 -13t-31.5 -15q-23 -13 -47 -26.5t-45 -26.5t-36.5 -25t-19.5 -22q-8 -18 -10.5 -32.5t-2.5 -28t1 -27.5t0 -32q-1 -24 4 -46.5
t9.5 -43.5t5 -39.5t-9.5 -33.5l-16 -14t-17 -11.5t-19 -5t-22 5.5q-13 4 -16 22.5t-1.5 44t5 53t3.5 48.5q0 62 -1.5 108t-4 84t-4 73t-1.5 74q-20 -45 -45 -93q-9 -16 -25.5 -13.5t-41.5 15.5q-21 11 -22 30.5t7.5 44t21.5 52.5t22 56q17 54 35.5 99.5t50.5 74.5
q15 14 34 15t44 -24q20 -20 9 -41q-14 -31 -27 -63t-27 -67q6 1 12.5 1.5t14.5 2.5q18 4 23 -8t5 -31.5t-2 -41t1 -36.5q0 -9 16.5 -2t38 19.5t43 27t31.5 20.5q24 15 53 30.5t59 27.5t59.5 17.5t53.5 -0.5q23 -5 37 -24t9 -52q-8 -55 -11.5 -117.5t-6.5 -128.5
q-3 -62 7.5 -125t30.5 -116z" />
    <glyph glyph-name="Omacron" unicode="&#x14c;" horiz-adv-x="869" 
d="M697 887q12 -22 6 -47t-23 -43q-12 -12 -39 -16.5t-62 -5.5t-73.5 -0.5t-71.5 -2.5q-44 -3 -82 -4t-66.5 0t-46 4t-20.5 7q-17 23 -20 50.5t16 48.5q12 13 47.5 17t78 3.5t83 -3.5t62.5 -3q31 0 64 5t62.5 8.5t52.5 0.5t32 -19zM819 529q36 -74 26.5 -139t-54.5 -139
q-39 -65 -83.5 -107.5t-95 -70t-106.5 -43t-118 -25.5q-53 -9 -105 -1.5t-97 27t-80.5 50t-56.5 66.5q-45 78 -39.5 165.5t70.5 177.5q30 42 70 79.5t87.5 66t102.5 45t116 16.5q65 0 121 -8t102 -27t81 -51.5t59 -81.5zM742 453q-4 21 -25.5 38t-53.5 31t-71 23.5t-76 15.5
q-48 7 -104.5 1.5t-110.5 -26.5t-100 -60t-73 -100q-12 -26 -15.5 -56.5t2.5 -59t23 -52t48 -36.5q53 -23 111 -31.5t116 -1t113.5 31.5t103.5 68q27 25 49.5 49.5t38.5 51t23 54.5t1 59z" />
    <glyph glyph-name="omacron" unicode="&#x14d;" horiz-adv-x="640" 
d="M535 782q10 -23 5 -49t-19 -45q-9 -12 -32 -17t-52 -6t-60.5 -0.5t-59.5 -2.5q-36 -3 -67.5 -4t-55.5 0t-38.5 4t-16.5 8q-14 23 -16.5 52t13.5 51q9 13 38.5 17.5t65 4t69 -3.5t51.5 -3q26 -1 53.5 4.5t52 9t43 1t26.5 -20.5zM578 432q25 -36 32 -83.5t-2 -98t-35 -97.5
t-67 -81q-139 -113 -302 -41q-29 13 -59 36.5t-56 53.5t-44 63.5t-22 65.5q-11 88 21 157t105 121q60 43 125 48.5t136 -11.5q26 -6 51 -21t47 -34t40 -39.5t30 -38.5zM515 334q-8 23 -20.5 39t-29 27.5t-35.5 20t-40 15.5q-67 23 -130 11t-107 -68q-15 -18 -27 -35
t-18.5 -34.5t-7 -36.5t8.5 -41q15 -38 47 -60.5t71 -36.5q34 -12 70.5 -13.5t70 7t63.5 27.5t52 48q13 18 22.5 32.5t14 29.5t3.5 31t-8 37z" />
    <glyph glyph-name="Obreve" unicode="&#x14e;" horiz-adv-x="869" 
d="M673 915q-20 -22 -45.5 -52t-59 -56.5t-75.5 -43.5t-94 -12q-27 3 -55.5 19.5t-53 36t-42.5 37t-22 22.5q-13 15 -11 33t12.5 32t25.5 20.5t29 0.5q15 -7 27 -20t26.5 -26t33 -22.5t46.5 -7.5t49 11.5t41 25t40.5 35.5t46.5 42q12 10 30 4t33 -19.5t21.5 -30.5t-3.5 -29z
M819 529q36 -74 26.5 -139t-54.5 -139q-39 -65 -83.5 -107.5t-95 -70t-106.5 -43t-118 -25.5q-53 -9 -105 -1.5t-97 27t-80.5 50t-56.5 66.5q-45 78 -39.5 165.5t70.5 177.5q30 42 70 79.5t87.5 66t102.5 45t116 16.5q65 0 121 -8t102 -27t81 -51.5t59 -81.5zM742 453
q-4 21 -25.5 38t-53.5 31t-71 23.5t-76 15.5q-48 7 -104.5 1.5t-110.5 -26.5t-100 -60t-73 -100q-12 -26 -15.5 -56.5t2.5 -59t23 -52t48 -36.5q53 -23 111 -31.5t116 -1t113.5 31.5t103.5 68q27 25 49.5 49.5t38.5 51t23 54.5t1 59z" />
    <glyph glyph-name="obreve" unicode="&#x14f;" horiz-adv-x="640" 
d="M533 789q-18 -20 -41 -47t-53.5 -51t-68.5 -39t-85 -11q-24 2 -50 17t-48.5 33t-38 33.5t-19.5 20.5q-12 13 -10 29t11 29t23 19.5t26 0.5q13 -6 24.5 -18.5t24 -24t29.5 -20t43 -6.5q25 1 44 10t37 23t36.5 32t42.5 38q11 9 27 3.5t29.5 -17.5t19.5 -27.5t-3 -26.5z
M578 432q25 -36 32 -83.5t-2 -98t-35 -97.5t-67 -81q-139 -113 -302 -41q-29 13 -59 36.5t-56 53.5t-44 63.5t-22 65.5q-11 88 21 157t105 121q60 43 125 48.5t136 -11.5q26 -6 51 -21t47 -34t40 -39.5t30 -38.5zM515 334q-8 23 -20.5 39t-29 27.5t-35.5 20t-40 15.5
q-67 23 -130 11t-107 -68q-15 -18 -27 -35t-18.5 -34.5t-7 -36.5t8.5 -41q15 -38 47 -60.5t71 -36.5q34 -12 70.5 -13.5t70 7t63.5 27.5t52 48q13 18 22.5 32.5t14 29.5t3.5 31t-8 37z" />
    <glyph glyph-name="Ohungarumlaut" unicode="&#x150;" horiz-adv-x="869" 
d="M658 901q-18 -29 -29 -56t-20 -49t-18.5 -37t-25.5 -19q-39 -11 -61.5 5.5t-15.5 47.5q4 20 9.5 36.5t15 34.5t23 40t34.5 53q12 18 31.5 15.5t45.5 -20.5q16 -12 17 -26t-6 -25zM470 930q-20 -32 -31.5 -54.5t-19 -40t-12 -33t-8.5 -33.5q-6 -23 -28.5 -32t-47.5 0
q-26 9 -34.5 21.5t-6.5 29.5t12.5 38l23.5 47q10 19 16.5 32t13 23.5t13 20t16.5 23.5q11 17 36 21t50 -20q20 -20 7 -43zM819 529q36 -74 26.5 -139t-54.5 -139q-39 -65 -83.5 -107.5t-95 -70t-106.5 -43t-118 -25.5q-53 -9 -105 -1.5t-97 27t-80.5 50t-56.5 66.5
q-45 78 -39.5 165.5t70.5 177.5q30 42 70 79.5t87.5 66t102.5 45t116 16.5q65 0 121 -8t102 -27t81 -51.5t59 -81.5zM742 453q-4 21 -25.5 38t-53.5 31t-71 23.5t-76 15.5q-48 7 -104.5 1.5t-110.5 -26.5t-100 -60t-73 -100q-12 -26 -15.5 -56.5t2.5 -59t23 -52t48 -36.5
q53 -23 111 -31.5t116 -1t113.5 31.5t103.5 68q27 25 49.5 49.5t38.5 51t23 54.5t1 59z" />
    </font>
</defs>
</svg>
